<?xml version="1.0" encoding="utf-8"?>
<!-- Generator: Adobe Illustrator 27.1.1, SVG Export Plug-In . SVG Version: 6.00 Build 0)  -->
<svg version="1.1" id="Hopton_Wood" xmlns="http://www.w3.org/2000/svg" xmlns:xlink="http://www.w3.org/1999/xlink" x="0px"
	 y="0px" viewBox="0 0 445.6 744.1" style="enable-background:new 0 0 445.6 744.1;" xml:space="preserve">
<style type="text/css">
	.st0{opacity:0.25;fill:#626363;enable-background:new    ;}
	.st1{fill:#656566;}
</style>
<path class="st0" d="M267.4,723L267.4,723l-0.3,0.3l-0.1,0.3l-0.1,0.2v0.3l0.1,0.4l-0.1,0.3l-0.1,0.4l0.2,0.1l0.4-0.4l0.4-0.6
	l-0.1-0.8L267.4,723z M274.8,705.9l0.7-0.8v-0.4l-0.2-0.2h-0.2l-0.7,0.4H274l-0.6,0.4l-0.3,0.7l0.4,0.3l0.7-0.2L274.8,705.9z
	 M282,737.5l-0.2-0.3l0.1-0.6l-2-1l-0.6-0.6h-0.6l-0.3,0.1l-0.3,0.3l-0.5-0.3l-0.9-0.2l-0.3-0.3l-0.5,0.4l-0.4,0.3l-0.4,0.1h-0.6
	l-0.8-0.4l-0.6-0.2l-0.5,0.2v0.8l0.4,1.3l0.3,1.4l-0.3,1.4h0.4l0.9-0.4l0.1-0.1l0.4,0.2l0.5,0.6l0.4,0.1l0.3-0.8l0.3-0.6l0.3-0.4
	h0.3l0.4,0.2l0.4,0.2l1,1l0.7,0.3h1.3l0.4,0.2l0.4,0.3h0.3l0.1-0.6v-0.7v-0.5l0.2-0.4l0.4-0.3l-0.2-0.2L282,737.5z M260.1,718.9
	l-0.9,0.7l-0.9,0.4l-1.9,1.8l-0.6,0.1h-0.5l-0.3,0.3l0.2,0.9l-0.5,0.1l-0.3,0.3l-0.1,0.3l0.2,0.2h4.1l0.3,0.1l0.3,0.1h0.3l0.4-0.3
	l0.3-0.3v-0.2v-0.3l0.3-1l0.2-1.4l0.7-1.2l0.2-0.6l-0.7-0.6L260.1,718.9z M263.6,720.7l-0.1,0.4v0.6v0.3l0.3-0.8L263.6,720.7
	L263.6,720.7z M165.7,408.8l-0.1,0.1l-0.2,0.1v0.5l1,0.3l0.9-0.6l0.8-0.8l0.9-0.4l0.6,0.2l0.8,1l0.6,0.2l0.6-0.2l0.5-0.3l0.4,0.1
	l0.4,0.9l0.6-1.9l0.3-0.5l0.5-0.3l0.7-0.2l0.6-0.3l0.3-0.6l0.6-0.8l2.3-1.5v-0.9l1.2-1.1l1.4-0.8l0.9-1.1l-0.4-2l1.2-0.7l0.3-0.3
	l0.2-0.5l0.2-0.7l0.3-0.6l0.3-0.2l0.6-1.3l0.2-0.2l0.4-0.3l-0.1-0.6l-0.3-0.6l-0.2-0.4l-0.3-0.2l-0.8-0.1l-0.3-0.2l-0.2-0.5
	l-0.3-1.2l-0.2-0.5l-0.1-1l0.9-2.7l0.2-1l-0.7-0.4l-0.8,0.2l-0.8,0.4l-1.6,0.4l-2.2,1.4l-1.5,1.4l-1,1.9l-1.8,4.5l-0.6,0.8l-1.3,1.2
	l-0.9,1.1l-1,0.7l-0.9,0.2l-0.1,0.3v0.5l-0.1,0.7l-0.4,1.1l-0.2,0.9v2.2l-0.4,1.3l-1.4,2v1.4l-0.3,0.1L165.7,408.8z M163.7,410.2
	l-0.1,0.4l0.3,0.5l0.3-0.1l0.2,0.2l0.2-0.4l0.3-0.8l-0.4-0.1L163.7,410.2z M111.7,164.7l-0.1,0.3l-0.1,0.2l-0.1,0.6l0.7,0.5l0.7-0.3
	l0.7-0.5l0.7-0.3l0.7-0.6l-0.2-1.3l-0.6-1.3l-0.3-0.6V159l0.6-2.7l0.7-2.3l0.2-1.2l-0.2-0.4l-0.3-0.3l-0.3-0.2l-0.4-0.1l0.6,1.1v0.6
	l-0.9-0.5h-0.4l-0.5,0.5l0.3,0.8l0.2,0.4l0.3,0.4v0.5l-1.2,0.2l-0.7,0.6l-0.3,1.3l-0.3,5l0.1,1.3L111.7,164.7z M107.7,145.1
	l-0.4-0.8l-0.8-1l-1.9-1.6l-0.1-0.4l-1-1.8L103,139l-1-0.8l-0.4-0.5l-0.4-0.8l-0.1,0.3l-0.1,0.1l-0.3,0.1l-0.5-0.2l-0.3,0.5l-0.2,1
	l-0.4,0.9l-0.3,0.3l-1.7,1.1l-0.3,0.1l-0.1,0.3v0.9l0.2,0.5l0.4,0.5l0.2,0.6l-0.2,1.1l0.3,0.3l0.4,0.2l0.5,0.1l0.5-0.1l-0.5,1.6
	l-0.6,0.8l-0.2,0.8l0.7,1.6l1.4,1.7l0.6,1v1.1l0.2,0.3l0.2,0.5l0.2,0.3v0.5l-3.2-4.3l-0.6-0.3l-0.5,1.5l-0.9,1.2l-0.4-0.1l1-2.3
	h-0.7l-0.6,0.3l-0.6,0.1l-0.6-0.7l-0.5-0.7l-0.5-0.4l-2-1.1l-0.3-0.2l-0.4-0.5l-0.1-0.5l-0.1-0.7l-0.2-0.6l-0.9-0.6l-0.5-0.7
	l-0.6-0.6h-0.9v0.6l0.5,0.7l-0.1,1.1l-0.4,1.2l-0.6,0.8l1,0.3l1.3,0.8l1.1,1.2l0.4,1.4l-1.2-0.6l-0.7-0.1l-0.3,0.4l-0.1,0.3
	l-0.4,0.2l-0.1,0.3l0.1,0.3L88,154l0.1,0.3l0.1,0.2l0.7,0.9l-0.2,0.1l-0.2,0.2l-0.2,0.2v0.5l0.2,1l-0.6-0.1l-0.8-0.6l-0.4-0.5
	l-0.3-0.7l-2.2-3.3l-0.4-0.3l-0.4,0.2l-0.6,0.9l-0.3,1l0.1,0.9l0.4,0.8l0.6,0.7H81l0.5,1.8l1.7,1.3l0.4,2l0.3,1.1l0.8,0.9l1,0.7
	l3.9,1.3l0.7-0.6l0.1-0.9l-0.5-1.4l0.1-0.9l0.4-0.6l0.5-0.2l0.5-0.3l0.3-1l0.4,0.6l0.2,0.7v0.7l-0.2,0.7l0.6-0.4l0.8-1.1l0.6-0.2
	l-0.2,0.9l0.1,0.6l0.3,0.4l0.4,0.2l-0.1,0.3l-0.1,0.1l-0.3,0.1l0.8,0.5l0.3,0.1v0.6l-0.6,0.5h0.5l0.9-0.4l0.5-0.1l0.5,0.1l0.3,0.2
	l0.5,0.7l2.6,2.2l0.6,1l-1.1-0.3l-0.9-0.8l-0.8-0.9l-0.7-0.7l-0.9-0.2l-0.8,0.4l-1.9,1.4l0.1,0.5l0.2,0.3l0.2,0.2l0.2,0.3l0.1,0.3
	l0.2,0.7l0.1,0.3l2,2.7l0.7,0.2l1.9-0.2l-0.3,0.6l-0.3,0.4l-0.4,0.3l-0.5,0.2l0.6,1.4l0.8,1.3l0.7-0.5l0.7-0.4l0.7-0.2h0.8v0.5
	l-1.3,1.7l-0.5,0.4v0.6l5.9-1.6l0.7-0.5l-0.6-0.6V176l0.4,0.1l0.4,0.2l0.3,0.3l0.3,0.5l0.3-0.4l0.2-0.2l0.2,0.1l0.3,0.4l0.1,1.2
	l0.2,1.6l0.2,1.4l0.5,0.6l0.6-0.3l0.4-0.8l0.4-0.9l0.5-0.6l-0.3-0.6l0.4-0.4l0.3-0.5l0.4-1.1l-0.5-1.2l-0.2-0.6l-0.2-0.8l0.5,0.3
	l0.5,0.7l1,1.7l0.1,0.4v0.5l0.1,0.5l0.2,0.2l3.6-0.1l1.2-0.4l1.2-0.6v0.5l-4,2.1l-0.5,0.5l-0.4,0.5l-0.8,1.5l-0.3,0.4l-0.1,0.3
	l-0.2,0.7l-0.1,0.2l-0.3,0.2v0.5l0.1,0.7l-1.1,1.7l-0.1,1.3l0.4,1l0.6,0.3l2.2-0.4l0.8-0.5l0.7-0.7l2.5-3.5l0.3-0.6l0.4-0.4l0.9-0.5
	l0.9-0.7l0.4-1.1l0.1-1.7l0.3-0.5l1.7-0.2l0.6-0.3l1.5-1.3l0.9-1.2l0.3-0.6l0.2-0.8l-0.2-0.8v-0.5l0.7-1.9h-3.1l-0.7-1h-1.2
	l-1.2,0.4l-1.2,1.2l-1.7-0.1l-0.2,0.3l-0.3,0.5l-0.4,0.4l-0.6-0.1l-0.3-0.4l-0.3-0.7l-0.4-0.7l-0.6-0.3l-1.1,0.1l-0.6-0.1l-0.4-0.3
	l-0.9-1l-0.9,0.1l-0.9,0.5l-1.1,0.1v-0.5l1.1-0.5l0.5-0.7L112,168l-1-0.3l-3.6,0.5l0.6-0.5l1.4-0.9l0.3-0.7l-0.3-0.6l-0.6-0.6
	l-0.6-0.8l-0.2-1.3l0.3-0.5l0.4-0.6l0.2-0.7l-0.4-0.8l-0.6-0.2l-0.7,0.3l-0.7,0.5l-0.5,0.5l0.4-0.7l1.1-1.1l0.2-0.6l0.1-1.1l0.4-1.8
	l0.1-1.2l-0.1-1.1l-0.4-2.3l-0.4-5.4L107.7,145.1z M115.7,151.4v-1.3l0.5-3l-0.3-0.4l-0.3,0.1l-0.3,0.3l-0.3,0.5l0.1,0.3v0.1
	l0.2,0.2l-0.5,1l-0.1,1l0.3,0.8L115.7,151.4z M121.6,23.3l0.5-0.3l-0.1-0.1v-0.4v-0.3l-0.2-0.1h-0.2v0.1v0.4l-0.3,0.2l-0.1,0.2
	l-0.1,0.2l-0.1,0.2l0,0L121.6,23.3z M114.8,166.4l-1,0.6l0.3,1.1l1,1l1.1,0.5l1.4-0.6l-0.2-1.2l-1.1-1.1L114.8,166.4z M111.9,219.6
	l0.1-0.3l-2-0.6l-0.6-0.4l-1.4,0.2l-1.7,0.5l-1.2,1l-0.1,1.5l-0.3,0.3h-0.4l-0.4-0.3l-0.4-0.6l-0.7,0.6l-0.7,0.3l-1.5,0.1l0.3,0.9
	l0.9,1l0.3,0.7l-2,1.5l0.6,0.6l0.7,0.5l0.8,0.4l3.9,0.7l0.9,0.5l0.5,0.6l0.4,0.7l0.7,1.6l0.4,0.4l0.4-0.1l0.4-0.3l0.3-0.2l0.9-0.1
	l2.7-1.4l0.4,0.5l0.2,0.6v0.7l-0.2,0.8l-0.5,0.4l-2.5,1.2l-1.5-0.2l-0.4,0.2l-0.4,0.5l-0.2,0.5l-0.1,0.5l-0.6,1.6l-0.3,0.4l-0.6,0.1
	l-0.5,0.2l-0.4,0.6l-0.2,0.8l0.2,0.8l0.8,0.7l1,0.1l2-0.5l2.5-1.4l0.8-0.2l0.3,0.4l-0.8,0.8l-1.9,1.4l-2.9,0.6l-0.7,0.7l-0.7,0.3
	l-1.9-0.4l-0.8,0.3l0.2,0.2l0.1,0.2l0.2,0.1l0.3,0.1v0.5l-0.8,0.5l-0.6-0.7l-0.6-1.1l-0.7-0.8l-0.8-0.1L100,242l-0.9,0.6l-0.4,1.1
	l0.3,1.4l0.6,1.2l0.8,0.8l1.2,0.7l0.9,0.3h0.5l0.4-0.2l0.3-0.5l0.2-0.5l0.2-0.2h3.9l0.4-0.2l1-0.7l0.4-0.2l0.5,0.2l0.5,0.3l0.5,0.2
	l0.5-0.4l0.7-0.8l3.3-1.7l1.4-0.3l0.4-0.2l0.3-0.5l0.2-0.5l0.2-0.2l1-0.4h0.5l0.3,0.4l-0.1,0.7l-0.4,0.6l-0.5,0.5l-0.3,0.2l1.3,0.9
	l1.7-0.4l3.7-2.6l0.7-0.9l0.3-0.8l-0.7-0.4l-1.6,0.2l-0.8,0.3l-0.7,0.5v-0.6l1.4-1.2l0.5-0.9l-0.1-1h0.3h0.3l0.3,0.1l0.3,0.3
	l-0.1,0.8l0.6,0.3h1.4l0.5-0.5l-0.3-1.1l-0.6-1.1l-0.4-0.5l0.8,0.1l0.3,0.1l0.4,0.3l0.2-1.5l-0.4-0.3l-0.6,0.2l-0.3-0.2l-0.2-0.9
	l-0.5-0.9l-0.6-0.7l-0.5-0.4h-0.3l-0.8,0.1l-0.4-0.1l-0.4-0.3l-0.9-1.5l-0.3-0.2l-0.4-0.1l-0.4,0.1l-0.6,0.4l-0.3-0.3l-0.3-0.5
	l-0.3-0.3h-4.2l-0.4-0.2l-0.1-0.4v-0.5l-0.1-0.5l-1.7-4.1l-1-1.5l-1.3-0.1l0.1-0.3L111.9,219.6z M91.3,187.9l1.4-0.2l1.1-0.6
	l-0.5-0.4l-1-0.3l-0.5-0.4l-0.8,0.2l-1.5,0.9l-0.6,0.6L90,188L91.3,187.9z M86,223.2l-1.1,0.2l0.2,0.7l0.4,0.9l0.4,0.4l0.2-0.8
	l0.2-0.7h0.5l1,0.5l0.7-0.2l2.2-1.8l1.6-2.1l0.5-0.1l0.4-0.2l0.3-0.3l0.3-0.4l0.3-0.6l0.6-1.5l0.4-0.8l0.3-0.8l-0.4-0.2l-1.1,0.2
	l-0.7,0.3l-1.3,1.1l-1,0.4l-1.4,1L89,219l-1.9,3.1L86,223.2z M108.9,295.2l1.1-0.6l1-0.9l0.8-1.2l0.3,0.6l0.2-0.6l0.3-0.4l0.4-0.3
	l0.5-0.3V291l-0.2-0.6l-0.1-0.7v-0.9l0.1-0.9l-0.7-0.3l-0.3-0.3l-0.2-0.4l0.1-0.5l0.2-0.7l0.1-0.6l-0.2-0.3l-0.4-0.3l-0.6-0.6
	l-0.6-0.8l-0.3-0.7l-0.1-2.3l-0.6-4.2l-0.2-3.2l-0.1-0.5l-0.3-0.3l-0.4-0.1l-0.4,0.5l-0.6,0.5l-0.6,0.4l-0.6,0.2l-0.5,0.3l-1,1.4
	l-1.5,0.9l-1.4,1.4l-0.9,1.7l0.3,1.5v0.5l-0.5-0.2l-0.3-0.5l-0.3-1.3v-0.5l0.5-2.1l0.3-0.5l-0.6-0.2l-0.5,0.4l-0.5,0.6l-2.3,1
	l-1.5,1.1l-0.3,0.6l-0.1,0.9l-0.1,1.2l-0.2,0.7l-0.3,0.5l-0.6,0.5l1.4,1l-1.9,2.8l-0.5,1.2l0.2,0.1l0.2,0.3l0.2,0.1l-0.5,1.3v1.2
	l0.5,0.7l1.2-0.2l0.5-0.6l1.3-2l1.3-0.9l0.6-1.2l1-2.6l0.9-0.7l1.2-0.2l1.2,0.2l0.9,0.5l-1.9,1.9l-1.1,1.4l-0.2,1.3h0.4l1.7,0.8
	l0.5,0.6l0.9,2.6l-2.3,1.3l-0.9,1.1l-0.2,1.7l0.6,1.7l1,0.4l1.1-0.4l1.1-0.9l0.4-0.5l0.2-0.3l0.3-1.6l0.5-0.3l1.8,0.3L108.9,295.2z
	 M222.9,43.3l0.4-0.1l0.4,0.3l0.2,0.1l0.5-0.5l0.3,0.1l0.2,0.5l-0.1,0.4l-0.2,0.4V45l0.9,1.7l0.4,0.4l0.5,0.4l0.4,0.5l0.2,0.7
	l0.8,2.1L228,51h3.9l2.1-0.6l1-1.6l-1.2-0.1l-2.5,1.2L230,50l0.5-1.1l0.9-0.7l1-0.4l0.8-0.1v-0.5l-0.6-0.8l-0.4-0.2h-0.5v-0.6
	l0.6-0.5l-2.2-3.5l-0.8-0.5l-0.9-0.3l-1.4-1.4l-0.6-0.4h-0.5l-1.8,0.7l-1,1L223,41l-0.6,1.6l0.1,0.8L222.9,43.3z M106.1,259.7
	l-0.3,0.3l-0.3,0.4l-0.9,1.2l-0.4,0.9l-0.2,1l-0.3,0.9l-0.7,0.5l0.9,0.5h1.2l1.1-0.3l0.8-0.6l-0.1-1.3l0.5-1.5l1.4-2.3l-0.2-0.9
	h-0.5l-0.7,0.3l-0.7,0.1l0.1,0.5l0.1,0.2l0.1,0.3l-0.3,0.3L106.1,259.7z M131.6,244l0.2-0.9l-0.6,0.3l-1-0.2l-0.5,0.4l-0.6,1.5
	l0.3,1.2l0.8,0.5l1-0.6l-0.3-1l0.2-0.6L131.6,244z M106.3,321.6v0.4l-0.1,0.6l0.3-0.5l0.4-0.8l0.3-0.9l-0.1-0.8l-0.4-0.2l-2.2-0.3
	l-0.6,0.1l-0.5,0.2l-0.5,0.3l-0.5,0.4l1,0.2l1-0.1l1,0.1l1,0.8l-0.2,0.3L106.3,321.6z M128.4,250.9l0.8,2.1l0.4,0.5l0.4-2.4l0.4-1.1
	l0.3-1.1l-0.1-1.1l-0.2,0.4h-0.2L130,248l-0.2-0.3l-0.5,0.6l-0.5,1.8L128.4,250.9z M103.8,189.5l-0.9-1.1l-2.2-1.4l-1.6,0.2
	l-1.3,1.1l-2.5,2.9l0.8,0.4l1.3,1.4l0.6,0.3l0.6,0.4l0.7,1.8l0.8,0.4l1.6-0.2l1.2-0.7l0.8-1.6l0.6-2.8H103V190L103.8,189.5z
	 M253.8,17.5L254,17l0.1-1.1l0.7,0.2l0.9-0.9l1.6-2.2l0.3,0.4h0.3l0.8-0.5v0.6l-0.1,0.3l-0.2,0.9l1.8-2.2l0.7-0.1l0.1,1.8l0.4-0.3
	l0.3-0.5l0.8-1.9l0.4-0.4l0.3-0.9l0.8-0.4l2-0.1l-0.1-0.8l-0.4-1.8l-0.3-0.2l-0.6,0.7L263.9,9l-0.6,0.2h-0.7L262,9.3l-1.1,1.2
	l-1.4,0.3l-0.5,0.5l-0.1-0.3l-0.1-0.1l-0.3-0.1l1.1-1.3l0.6-0.6l0.6-0.4V7.9L259.7,8L258,9h-1l0.6,0.9l0.2,0.2l-0.2,1.1l-0.3,0.3
	h-0.4l-0.5,0.3l-0.4,0.5l-0.7,1.3l-0.4,0.5l-0.5,0.4l-0.4,0.2l-0.3,0.4l-0.2,1.2v0.9L253.8,17.5z M247.8,18.7l0.6,0.2l0.5,0.5
	l0.4,0.8l0.2,1.1l0.3,0.3l0.7-0.1l1.2-0.5v-0.6l-0.7-0.1l-0.3-0.7l-0.1-1.1v-1.3l0.2-0.4l0.9-1.4l0.3-0.7l-0.3-0.8l-0.4-0.4
	l-0.5-0.1l-0.6,0.1V13h0.3v-0.6l-0.7-0.1l-0.4,0.5l-0.2,0.8l0.1,1l-0.1,0.5l0.2,1.4v0.3l-0.5,0.2l-0.4,0.3l-0.4,0.1l-0.5-0.5v1.8
	C247.6,18.7,247.8,18.7,247.8,18.7z M256.9,24.3l0.6,0.9l0.1,1.9l0.9-0.6l1.8-0.3l0.7-0.8l-1.2-0.8l-0.3-0.5l0.3-0.9l0.1-0.1h0.1
	l0.1-0.1v-0.4l-1,0.6l-0.6,0.2l-0.5-0.1l-0.5-0.7l0.1-0.7l0.4-0.5l0.5,0.2l-0.4-0.4l-0.5-0.1h-1.2l0.1-0.3l0.1-0.3V20l-0.6-0.1
	l-1.7,0.6l0.4,0.3l1.3,1.4l0.3,0.5l-0.2,0.9l-0.5,0.3l-0.7,0.1l-0.6,0.3l-0.9,1.6l0.7,0.6l0.9-0.3l-0.1-1.3l0.7-0.6H256.9z
	 M244.3,48.4l1.2-0.8l0.1-1l-1-0.5l-1.9-0.2l-1.9,0.4l-1.6,0.7v0.5h2.9v0.6l-0.5,0.4l-0.5,0.1l-0.5-0.1l-0.5-0.4l1.3,2.1l0.4,1.2
	l-0.6,0.6v0.6l2,2.2l0.9-0.6l0.3-0.8l-0.2-1.1l-0.5-1.4l0.5-0.5l-0.1-0.5l-0.2-0.5l0.1-0.7L244.3,48.4z M237.8,6.6h0.4l0.4,0.3
	l0.4,0.6l0.1,0.4l0.1,0.5l0.6,1.7l0.2,0.4l0.3,0.3l0.4,0.3l0.3,0.1l0.3-0.2l0.3-0.7l0.6,0.6l-0.4-0.9l-0.2-0.3V9l1.2,0.2l1.1,0.7
	l2.1,2l-0.3,0.5l-0.2,0.5l-0.1,0.6l-0.1,0.7l1-1.4l0.5-0.4h0.8v-0.5l-0.4-0.6l-0.4-0.1l-0.4-0.1l-0.5-0.3l-0.2-0.5L245,8.2l-0.6-0.3
	l-3.3-1V6.3l0.3,0.1l0.9-0.1l-0.2-0.7V5.2l0.5-0.6l0.1-0.1h0.1l0.1-0.1V4l-0.8-0.6l-0.6,0.5l-1.2,1.7L239.6,6l-1.3-0.3h-0.9l0.2,0.8
	L237.8,6.6z M116,282.3l0.3-1.1l0.4-2.9l0.3-0.6l0.7-0.4l1-1.3l0.4,0.2l0.9-3l3.5-7l1.7-4.2l0.8-0.9l0.6-1.1l0.7-0.7l0.1-0.9l-0.1-1
	l-0.2-0.7l-0.9-0.4l-1.3,0.9l-2.2,2.2l-3.2,3.2l-1.3,0.4l-0.9,0.7l-1.3,1.6l-1.2,1.9l-0.5,1.7l0.6,1.2h1.4l1.5-0.4h1l-1.4,1.2
	l-3.3,0.6l-1.2,1l-0.7,0.7l-0.7,0.4l-0.6,0.5l-0.4,1.2l-0.1,1.3l0.4,3.6l0.7,1.9l1.5,1l1.6,0.1L116,282.3z M227,36.5l1.4,0.5v-0.5
	l1-1l0.4-0.7l-0.2-1.1l-0.1-0.1V33l-0.1-0.5l-0.4-0.3l0.4-0.3l0.4-0.1l0.4,0.1l0.4,0.3v-0.6l-0.3-0.5l0.1-0.5l0.3-0.4l0.5-0.3
	l0.1,0.6l0.2,0.6l0.2,0.5l0.3,0.5v0.5l-0.7,1.1l-0.5,1.5l-0.1,1.8l0.4,1.8l1.1,1l2.5-0.4l1,0.4l0.2-0.9l0.5-0.3l1.3,0.1l-0.6-1.2
	l0.5,0.1L238,38l0.4,0.1l0.4-0.3l0.8,0.2l0.7-0.7l0.6-0.8l0.5-0.1l0.3,0.5l1.5,3.3l0.4,0.7l0.5,0.5l3.2,1.3l0.7,0.1l0.7-0.5l1-1.8
	l0.6-0.4l1.6-0.4l0.8-0.4l0.3-0.6v-1.2l-0.1-0.9l-0.3-0.6l-0.6-0.3l-0.7,0.1l-1.4,1l-0.8,0.1l0.3,0.6l0.6,1.7l-0.8,0.2l-0.7-0.2
	l-0.6-0.7l-0.5-1.1l0.6-0.7l1.7-1.3l0.3-0.8l-0.2-0.5l-0.4-0.2l-1,0.1l-0.8,0.3l-0.7,0.6l-0.7,0.4l-0.9-0.2l0.1-0.4l0.1-1l0.1-0.4
	l-0.7,0.6l-0.5-0.5l-0.5-0.8l-0.7-0.4l-0.6,0.3L242,33l-0.6,0.2l-1.6-1.5l-0.7,0.6l-0.7,1l-0.6,0.5l-1.6-0.2l-0.8-0.3l-0.6-0.6
	l0.7-0.3l1-0.9l0.8-1.2L238,29l0.4,0.2l2.5-1l-0.2-0.1l-0.2-0.2l-0.2-0.2l0.1-0.3l0.1-0.1l0.3-0.1l-2.4-1.4l-0.8-0.9l0.3-0.1
	l0.6-0.5l-0.4-0.3l-0.7-1l-0.4-0.3h-0.5l-0.5,0.2h-0.6l-1.5-1.5L233,21l-2-0.1l-2,0.4l-1.9,1.3L226,25l0.3,3.7l-0.3,0.6l-0.7,2.4
	l0.6,2.7L227,36.5z M236.8,21.4l1.1,0.8l1.2,0.4l1.3,0.1l1.2-0.5l0.1-1.1l-0.1-1.3l0.7-1l0.2-0.1h0.1l0.1-0.1v-0.4l-0.6-0.4h-0.5
	l-1.7,0.4h-0.3l-0.3-0.1l-0.3-0.3l-0.2-0.4l-0.1-0.3l-0.1-0.2l-1-0.1l-1.2,0.6l-0.8,1.1l0.2,1.5L236.8,21.4z M99.7,693.8l-0.2,0.1
	v0.3l0.3,0.4h0.2l0.1-0.4l-0.1-0.3L99.7,693.8z M141.5,290.9l-1,1.6l-0.6,1.6l-0.2,2.4l0.4,1.8l0.8,1.5l1,1.5l-0.2,0.4l-0.1,0.2
	l-0.1,0.2l-0.2,0.2v0.5l0.2,0.6l0.4,2v0.5v0.5l1.7,1.5l1.7,1.1l1.9,0.7l2.3,0.2l1.9-0.4l1.1-0.5l0.6-0.7l-0.1-1.2l-0.4-1.1l-0.1-1
	l0.9-0.7l-1.7-0.8l-0.3-0.3l-0.2-1l0.4-0.3h0.6l0.4-0.2l-0.1-1.7l-1.8-1.9l0.5-1l-0.8-3.7l-0.6-1.6l-0.9-1.4l-0.7-0.7l-2.7-1.4
	l-0.4-0.1l-1.1,0.1l0.1,0.3l0.1,0.6l0.1,0.3l-1.4,0.3L141.5,290.9z M127.8,253l-0.3-0.6l-1.4,1.1l-0.7,0.7l-0.5,1.2l1-0.1l1.3-0.4
	l0.9-0.8L127.8,253z M404.8,593.1l-0.4-0.2l-5.2-1.8l-0.6,0.2l-0.3,0.4l-0.5,1.8l0.4,0.8l0.6,0.9l0.7,0.7l0.8,0.3l4.9,0.4l1-0.4
	l0.2-0.8l-0.4-1l-0.9-1L404.8,593.1z M440.4,517.1l0.1-2.5l-0.1-1.4l-0.3-1.1l0.3-1.5l-0.5-2l-0.8-2l-0.8-3.3l-1-1.7l-1.2-1.4
	l-10.4-8l-5.1-2.6l-13-3.1v0.5l0.5-0.1l0.5,0.1l0.5,0.2l0.4,0.3l-1.9,0.9l-2-0.5l-1.9-0.9l-1.7-0.4h-3.6l-0.9-0.2l-0.9-0.4l-0.9-0.2
	l-0.9,0.3l0.3,0.5l-2-0.1l-2.3,0.4l-2.1,1l-1.5,1.5l-0.6,1.2l-0.7,1.7l-0.5,1.9l-0.2,1.7l-0.5,0.9l-1.1,1.2l-0.8,1.3l0.2,1.1v0.5
	l-0.6-0.3l-1.2-1.7l-0.7-0.4l-1.7-0.2l-0.9,0.1l-0.7,0.6l-1-1.3l-2.2-3.4l-1-0.7l-0.6-0.2l-1.2-1l-0.5-0.2l-2.2,0.5l-1.3-0.1
	l-0.1-0.9l0.6-1l0.7-0.5l1-0.4l0.9-1l3.3-4.9l0.6-0.4l0.8-0.3l3.8-3.8l0.7-0.4l0.8-0.2l0.5-0.2l0.3-0.5l0.9-3.7v-3l-0.6-2.6
	l-3.4-9.5l-0.2-1l-0.5-1.1l-0.7-1l-0.7-0.5l0.3-0.5l-1.2-0.9l-0.4-0.1l-0.2-0.3l-0.1-0.6l-0.1-0.7l-0.1-0.5l-0.7-0.8l-0.7-0.3
	l-0.8-0.2l-0.8-0.4l-4-3.3l-2-2.5l-0.6-0.3l-1.5-0.2l-0.7-0.5L361,442l-1.9-1l-3-4.7l-0.8-1.4l-1.2-0.5l-7.5,1.4l-1.2,0.9l-0.7,0.3
	l-0.6-0.4l-0.5-0.5l-1.7-1.2l-1-0.3l-1.3,0.1l-1.2,0.6l-0.6,1.1l-0.3-0.3l-0.4-0.3l-0.4-0.2l-0.4-0.1l2.9-1.9l0.9-0.3l2.4,0.3
	l0.1,0.2l1,1l0.3,0.1l1.4-0.3h3.3l5.3-1.8l1.9,0.3l1.5,1.1l4,5.2l0.7,0.6l0.9,0.5l1,0.3l1,0.1l0.9-0.2l1.6-1l0.8-0.2l0.9,0.3
	l1.8,1.3l0.9,0.3l0.7,0.5l-0.2,1.2l-0.9,2.2l0.9-0.7l0.2-0.3l0.5-2.3l-0.7-2.3l-7.5-11.2l-4.5-7l-0.7-2.1l-1.2-4.7l-0.9-2l1-2.8
	l1.3-1.5l3.7-2.1l-1.5-1.4l-5.1-2.1l-1.1-1.2l-0.1-0.3l-0.3-1.9l-0.3-0.7l-1-0.5l-0.5-0.5l-0.4-0.3l-1.7-0.5l-0.3-0.4l-0.8-1.2
	l-0.4-0.4l0.1-0.3l0.2-0.7l-0.4-0.2l-0.3-0.4l-0.2-0.5l-0.2-0.5v-1.4l-0.5-1.8l-0.7-1.7l-0.6-1.1l-0.6-0.6l-1.4-1L345,384l-0.1-0.7
	l0.1-0.6v-0.6l-0.5-1l-1.2-1.2l-9.5-6l-8.6-2.7l-2-1.4l-1.8-0.3l-0.8-0.3l-0.7-0.6l-0.7-1l-0.4,2l-0.3,0.4l-0.5,0.1l0.1-0.2
	l-0.1-0.4l-0.2-0.3l-0.1-0.2h-0.2l-0.1,0.2v0.2l-0.1,0.1h-0.4l-0.3-0.1l-0.2-0.3l-0.1-0.5l1-0.5l0.4-0.4l0.3-0.6l-0.3-0.4l-0.2-0.5
	l-0.2-0.5l-0.1-0.6l-0.2-0.4l-0.1-0.2v-0.3h0.9v-0.5l-2.2-1l-0.6-0.5l-1.5-1.9l-0.9-2.3l-2.5-9.1l0.1-0.7l-0.3-0.3l-0.1-0.6v-1.6
	v-0.4l0.1-0.3v-0.4l-0.3-0.8l-1.2-1.2l-0.1-0.2l-0.5-0.3l-0.3-0.8L307,340l-0.2-0.7l-0.4-0.7l-0.7-1.9l-0.1-0.6l-0.1-0.2l-0.2-0.1
	l-0.5-0.2l-0.2-0.1l-0.1-0.5l-0.4-1.6l-0.1-1.6l-0.2-0.5l-0.7-1.1l-0.2-0.8l0.2-0.6l0.3-0.6l0.1-0.7l-0.3-0.8l-0.4-0.4l-0.2-0.5
	l0.3-1l-1-1.1l-0.5-0.8l-0.2-0.9l-0.1-0.5l-0.2-0.5l-0.1-0.5l0.2-0.5l0.2-0.3l0.1-0.3l0.1-0.3l0.1-0.3l-0.1-1.3l-1-1.9l-0.3-1.6
	v-0.7v-0.4l0.2-1.2l0.1-0.7l-0.1-5l-0.2-0.9l-0.3-0.3l-0.4-0.3l-0.2-0.4l0.3-0.6V303l-0.8-0.8l-0.4-0.2v-0.5l0.6-0.5l-0.4-0.5
	l-0.3-0.5l-0.1-0.5l0.2-0.5v-0.5l-2.9-2.1l-0.9-0.1l-1.5,0.4l-0.5-0.3v-0.5h0.9l-0.4-1.1l-0.5-0.6l-0.5-0.3l-0.5-0.1l-0.2,0.2
	l-0.2,0.4l-0.3,0.4l-0.4,0.1l-0.2-0.3l-0.2-0.5l-0.2-0.5l-0.9-0.6l-0.4-0.9l-0.6-1.7l-5.6-7.2l-0.6-1.1l-2.4-4.7l-0.8-0.9l-0.9-0.4
	l-0.3-0.2l-0.1-0.6l-0.1-0.7l-0.2-0.6l-0.4-0.2l-6.8-1.3l-1.8-1l-2.7-2.3l-1.6-0.5l-1.7-1.2l-0.6-0.7l-0.3,0.3l-0.4,0.4l-0.2,0.3
	l-0.6-0.5l-1.1,0.2l-0.6-0.2l0.2-0.4l0.4-1.2l-0.8-0.5l-1.2-1.7l-0.8-0.4l-7.1-0.5l-0.9,0.4l-1.2,1.5l-0.8,0.7l0.2,0.3l0.1,0.3
	l0.2,0.9l-1,0.1l-0.7,0.9l-0.7,1.2l-1,0.9l-3.2,1.4l-2.6,0.3l-0.5-0.1l-0.3-0.3l-0.8-1.1l-0.3-0.2l-7.6-0.6l-0.7-0.6l-0.4-0.6h-0.4
	l-0.7,0.4h-2l-7.2-2.1h-0.9l-2.4,0.5l-0.5-0.2l-0.3-0.4l-0.2-0.5l-0.3-0.4h-0.3l-0.8,0.2l-0.4-0.1l-0.2-0.6l-1.4-2.6l-0.4-0.2
	l-0.4-0.6l-2.5-1.8v-0.5h0.9l0.6,0.4l0.9,1.1l1.5,1.5l1.5,1.1l1.6,0.6l3.7-0.1l6.8,2l1.7,0.1l1.6-0.3l1.7-0.8l1.5-1l0.8-0.4l2.9-0.2
	l0.6-0.4l0.5-1.1l0.6-2.5l0.5-0.8l0.8-0.3l0.7-0.4l2.3-2.7l2.2-1.6l0.3-0.7l0.4-0.6l1-0.3h2l2.6,1.4l1,0.2l0.9-0.3l2.7-1.8l2-0.5
	l1-0.5l0.8-1.5l2.2-2.2V246l-1.5-1.4l-0.3-0.2l-1.4-1.3l-0.9-0.5l-3.8-0.3l-0.3-0.5l-0.3-0.2l-0.4-0.1l-0.5-0.2l-0.1-0.3l-0.2-1
	l-0.2-0.2h-1l0.7-0.8l0.6-1.1l0.3-1.4l-0.1-1.5l-0.5-0.9l-1.5-0.1l-0.7-0.7l-0.7-0.5l-1,0.2l-0.9,0.6l-0.4,0.7l-0.4,0.5l-8.4,4.3
	l-1.6,0.4l-1.8,1.1l-0.9,0.2h-1.8l-0.7-0.3l-0.5-0.7l1.8,0.6l1.8-0.7l4.4-4.5l1.5-1.1l1.6-0.8l12.4-1.8l0.5,0.2l0.3,0.3l0.3,0.2
	l0.4-0.2l0.8-2l0.4-0.6l1.6-0.8l0.9-0.6l0.7-1.6l3.9-2.8l0.7-0.8l0.4-1.3l0.8-0.8l0.2-0.5v-0.4l-0.3-1v-0.6l0.4-1.1l0.6-0.8l0.5-0.9
	l0.5-3.4l0.6-1.3l0.8-0.9l0.7-0.6l2.3-1.5l0.7-0.8l1-1.8l1.1-1.6l1.4-1.2l0.6-0.9l0.3-1.4l0.2-0.4l0.8-1l0.2-0.4v-0.9l-0.2-0.6
	l-0.3-0.5l-0.1-0.7l0.5-2.8l1.3-2.8l3.8-6.1l0.7-1.5l-0.1-0.7l-0.8-0.6l-0.1-1.4l0.2-1.6l1-4l2.7-7.2l1.1-1.7l4.4-4.1l0.1-1.1
	l0.7-1.4l1.7-2.4l1-0.8l0.3-0.5l-0.5-0.2l-0.4-0.3v-0.7l0.3-0.6l0.6-0.1l-1.2-1.4l-0.4-0.9l0.2-1v-0.5l-0.7-1.3l-0.2-1.4l-0.1-1.4
	l-0.4-1.3l-3.6-4l-0.5-1l-0.3-0.3h-0.5l-0.7,0.6l-0.5-0.1l-0.4-0.4l-0.4-0.7l-0.2-0.7v-0.3l-4.7-0.2l-0.7,0.2l-2.5,1.9l-1.1,0.2
	l-0.9-0.3l-1.9-1.2l-0.9-0.2l-0.4,0.2l-0.4,0.3l-0.3,0.4l-0.1,0.4l-0.2,0.4l-0.5-0.1l-0.8-0.5l-0.4,0.1l-0.7,0.7l-0.5,0.3l-0.5-0.1
	l-0.4-0.4l-0.3-0.1l-0.3,0.6l-2-1l-0.8-0.1l-0.5,0.4l-0.3,0.6l-0.3,0.1l-0.7-1.1l-1.3,0.1l-3.6-1.3l-1.4,0.7l-0.4-0.5l-0.3,0.1
	l-0.3,0.3L252,138l-0.4-0.2l-0.4-0.8l-0.3-0.2h-6.6l-0.7,0.3L241,139l-1.7,0.5l-1.8-0.1l-5.5-1.9l-3.1-2.1l-5.2-0.2l-0.5,0.1
	l-1.1,0.7l-0.5,0.2l-0.5-0.1l-0.4-0.2l-0.4,0.1l-0.4,0.8l0.2,0.9l-0.4,1l-0.7,0.9l-0.6,0.5l-0.8,0.2l-0.8-0.1l-1.5-0.5l0.9,2.1
	l-0.6,0.2l-0.6,0.3l-0.5,0.1l-0.6-0.5l0.3-0.4l0.2-0.4l0.3-0.9l-2.5,0.6l-6.4,4.8l-1.3,0.4l-4-0.4l-3.9,0.6L195,146l1.6,1.4l0.5,0.9
	l-0.8,0.4l-0.6,0.2l-0.7,0.4l-0.6,0.6l-0.8,1.2l-0.4,0.2l-1,0.1v0.2l-0.3,0.5l-0.7,0.9l-0.9,0.5h-0.8l-1.5-0.4l0.5-0.6l0.5-0.8
	l0.8-1.8l-0.5-0.4l-0.6-0.1h-1.2v-0.6h2.3l1,0.3l0.3-0.1l-0.4-0.7l0.7-0.9l0.8-0.5l2-0.2l-0.2-0.2l-0.1-0.2l-0.1-0.3l-0.1-0.4
	l1.5-2.4l1.2-1l1.2-1.5l0.9-1.6l-0.2-1l-0.6,0.1l-1.8,1.2l-0.5,0.6l-0.7,0.5h-0.9l-2.1-0.5l-0.6-0.7l-0.5-0.2h-0.3l-1.8,0.9
	l-1.6,1.7l-1.9,1.2l-0.5,0.7l-0.4,0.8l-0.6,0.8l-0.6,0.6l-1.3,0.5l-0.6,0.4l-0.2-0.1l0.3-1.2l0.3-0.8l0.4-0.5l2.7-2.8l0.6-0.2
	l0.6-0.5l0.3-1.1l0.3-0.9h0.7l0.8,0.1l2.7-0.8l1.1-0.1l0.6-0.2l3.3-3l1.5-0.5l1.1,1.1l-0.5,1.2l0.2,0.8l0.7,0.3l0.8-0.2l0.5-0.6
	l1.1-1.7l1-0.8l5.7-7.5l0.3-0.7l0.1-1.3l-0.3-0.8L207,124l-0.6,0.7l-1.2,1.8l-1.5,1.4l-1.6,0.7l-1.4-0.4l0.6-1l-0.7-1l-1.4-0.3
	l-2.4,1.9l-1.5-0.4l-2.7-1.9l0.2,1.3h-0.7l-1-0.7l-0.7-0.9l-0.7-0.7l-0.9,0.2l-1.7,0.8l-1.6-0.4l-1.3-1.1l-2.2-3.4l0.8,0.3l0.8,0.7
	l1.4,1.9l0.9,0.7l3.4-0.9l1.2,0.3l2.4,1.3h1.2l0.3-0.3l0.7-1l0.4-0.3h0.6l1.3,0.5h0.7L198,123l0.2-0.8l0.9-1.5l-0.9-1.5l-0.3-0.4
	l-0.6-0.3l-1.3-0.1l-0.6-0.5l-0.4-0.7l-0.1-0.6l0.2-0.3l1.2,0.7l1.1,0.1l0.6,0.3l-0.3,0.5l0.2,0.2l0.7,0.4v-0.8l0.1-0.7l0.3-0.5
	l0.4-0.2l2.7-1.9l1.3-0.3l1.1-0.6l0.4-0.4l0.2-0.6l0.4-1.6l0.4-0.8l0.8-0.8l3.1-1.6l9.2-7.7l1.8-2l0.8-1.3l0.3-1.3l0.4-0.7l2.2-2.3
	l1.5-0.9l3.7-1.3l1.8-1l1.6-1.8l2.2-3.3l1.8-3.6l0.4-2.8l0.4-0.1l0.4-0.5l0.2-0.7l-0.1-0.9l-0.3-0.4l-0.4,0.1l-0.5,0.3l-0.5,0.1
	l-0.9-0.5l-0.4-1v-1.3l0.5-1.6l0.3-0.5l1.1-1.1l0.4-0.7l0.6-1.5l0.5-0.7l0.2-1.2l0.8-1.7l0.3-1.5l-1.4-0.6l-2.8,0.6h-1.4l-2.2-1.6
	l-1.7,0.2l-2.8,0.9h-1.3l-0.3-0.3l-0.2-0.7l-0.1-0.7l-0.2-0.4l-0.7-0.1l-0.6,0.4l-1,1.3l0.4,1.1l0.7,0.8l0.8,0.6l0.7,0.3l-0.6,1.6
	h-1.2l-2.3-1.1l-2.4,0.9l-1.2,0.1l-1-1l0.2-0.1l0.4-0.4l-1-0.5h-1.4l-2.6,0.5l-1.6,0.8l-2.9,2.2l-1.8,0.9l-3.6,0.6l-3.6-0.6
	l-0.9,0.2l-0.2-0.2l-0.8-1.6l-0.1-0.2l-0.1,0.1l-0.4,0.1l-0.4,0.3l-0.5,1.4l-0.4,0.6l-0.5,0.3h-0.4l-0.9-0.3h-1.6l-0.5,0.2l-0.3,1.1
	l-0.4,0.2l-0.6-0.1l-0.8-0.4l-0.5,0.1l-0.3,0.3l-0.2,0.5l-0.2,0.5l-0.5,0.3l0.6,0.6l-1-0.3l-1.3-1.2l-0.8-0.3l-0.4,0.1l-1.1,0.6
	l-1.6,1.1l-0.1,0.2l-1.7,1.9l-0.2,0.1l-0.2,0.1v0.3l0.1,0.4l-0.1,0.3L179,77l-0.7,0.7l-0.7,0.3l0.8-1.8l0.5-1.7l0.6-1.5l1-1.2
	l-0.1-0.8l0,0l0.1-0.3v-0.6l-2.1-1.6l-1.8-0.8l-1.8-0.4l-1,0.5l-0.4,1.1l-0.2,1.5l-0.5,1.4l-0.8,0.8L171,73l-0.7,0.6l-0.3,1.2
	l-0.4,0.2l-2.5,2.8l-0.8,0.1l0.4-1.1l0.8-1.5l0.8-2l1.5-1.5l0.5-0.7l0.2-0.5l0.2-0.7v-0.7l-0.4-0.3l-0.5-0.2l-1.2-0.9l-0.7-0.4
	l-1.3-1.7l-0.7-0.6l0.2,1.4l-0.2,0.6l-0.4,0.5l-0.2,1.2v0.9l-0.1,0.8l-0.3,0.7l-0.8,0.6l0.3-0.6l0.2-0.6l0.1-0.7V69l-0.1,0.1
	l-0.3-1.1l-0.2-1.3v-0.4l-0.8-1l-1-0.7l-5.4-1.2l-0.7,0.9l-0.3,1.4l-0.1,1.6l-0.3,1.7h0.3l-0.5,1.2l-0.6,0.7l-2.2,1.3l-0.3,0.4
	l-0.1,0.7v1.5l4.6,4.1l-1.3-0.9l-1-0.5l-2.3,1.4l0.4,0.4l0.2,0.1l0.3,0.1V80h-0.1h-0.4v0.6l0.5,0.1h0.4l0.4-0.2l0.4-0.4l0.3,0.6
	l-0.1,0.6l0.4,0.5l1.2,1l-1.8,0.1l-2.4-1.7l-0.3-0.1l-0.6-0.3l-0.3-0.1l-0.2,0.2v0.5l0.1,0.5v0.4l-0.4,0.8l-0.3,0.8v0.8l0.4,0.8
	h-0.8l0.1,0.6l0.1,0.6l0.3,1l0.2,0.2l0.8,1.2l0.1,0.3l0.4,0.4l1.2,1.9l0.6,0.4l0.5,0.2l0.9,0.7l0.4,0.2l0.4-0.2l0.5-0.7l0.3-0.2h0.8
	l2.7,0.6l-0.6,0.4l-1.2,0.2l-0.6,0.5l1.1,0.9l0.5,0.5l0.4,0.8l-2.9-2.2l-0.6-0.2l-2.1,0.2l-0.6-0.3l-1.3-1.1l-0.8-0.2l-0.4,0.1
	l-0.6,0.4l-0.6,0.5l-0.3,0.6l-0.9-0.7l-0.9-0.1l-0.9,0.3l-1.7,1.1l-0.7,0.2l-0.7-0.2l-1.8-1.2l-1-0.4l-0.7,0.2v1.3l1.9,3l0.4,0.3
	h0.5l-0.1,0.4l-0.1,0.9l-0.1,0.4l0.4,0.1l0.4,0.2l0.3,0.3l0.3,0.4l-0.3,0.5l0.6,0.5l0.7,0.1l1.4-0.1v0.6l-0.6,0.3l-1.2,0.3l-0.6,0.4
	l0.9,0.6v0.5H144l0.3,0.6l0.2,0.7v0.7l-0.2,0.8h0.3l-1,1.3l-0.9-0.1l-0.9-0.3l-0.9,0.8l-1-2.1l-1.6-0.5l-0.8,1.1l1.4,2.5v0.5
	l-0.2,0.3l-0.1,0.2l-0.1,0.3l-0.1,0.3l1.7-0.1l0.8,0.3l0.6,0.9l-0.2,0.2v0.1l-0.1,0.2l1.1,0.2l1.7,2.2l1.2,0.3l0.6,0.6l1.4,0.3
	l0.5,0.5l0.4,1l0.1,0.9l-0.3,0.6h-0.8v0.6l1,0.3l4.2,3.7l0.2,0.5l0.1,0.6l0.2,0.8l0.3,0.7l0.2,0.4l-0.9-0.6l-1.2-2.2l-1.8-0.8
	l-1.5-1.5l-0.5-0.3l-0.4-0.2l-1-0.7l-0.5-0.2l-0.4,0.1l-0.8,0.4h-0.5l-0.9-0.5l-1.2-1.7l-0.8-0.5l-0.2,1l-0.3-0.1l-0.3-0.4l-0.3,0.1
	l-0.2,0.5v0.2l0.1,0.2l0.1,0.4l0.3,0.3l2.7,1.2l1.8,1.9l1.2,0.6l0.5,0.5l0.6,1.1l-3-1.2l-1.4-0.9l-1.2-1.4l-0.6-0.5l-1.9-0.8h-0.5
	l-0.4,0.8l-0.5,2.3l-0.5,0.7l0.3,0.5l-1.4-0.2l-1.7-0.9l-1.2-1.6l0.2-2.2h-1.5l-0.5-0.3l-0.6-0.8l-0.3,0.6l-1,1.3l-0.4,0.8l0.1,0.3
	l0.1,0.1l0.3,0.1l-0.4,0.8l0.5,0.9l1.6,1.5l0.6,1.2l-0.1,1l-0.2,1.1l0.3,1.6l-0.8-0.5l-0.4-0.1h-0.5l0.3,1l0.2,0.4l0.3,0.4H130
	l-0.6-0.3l-0.5-0.6l-0.4-0.8l-0.3-1.2l-0.3-1.6l-0.1-1.6l0.2-1.1l-1-0.7l-1.1-0.4h-1.1l-1.1,0.4l-0.5,0.5l-0.4,0.7l-0.3,0.8
	l-0.2,0.8l0.1,1l0.4,1.6l-0.1,0.6l0.1,0.9l-0.2,2l0.1,0.8l3.5,0.8l0.5,0.3l0.4,0.5l0.3,0.5l0.3,0.4l0.5,0.1l-0.3,0.9l-0.4,0.6
	l-0.5,0.1l-1.2-1.4H125l-1.6,0.9v0.6l0.2,0.7l-0.9,1l-0.2,1l0.2,1l0.5,0.3l0.7,0.1l0.6,0.3l0.8,1.3l0.5,1.5l0.7,1.2l1.4,0.3
	l-0.4,0.8l-0.2,0.2l1.4,1.7l1.2-1l1.9-0.3l1.9,0.4l1.3,1.1l-0.2,0.5h-1l-1.7-0.3l-3,0.5l0.1,0.4l0.1,0.4l0.1,0.4l0.2,0.4l-0.5-0.1
	l-1.3-0.9l-0.4-0.3l-0.7-1.1l-0.4,0.3l-0.7-0.5l-2.3-2.3l-0.7-0.5l-0.7-0.1l-0.7,0.3l0.1,0.4l0.1,0.9l0.1,0.4h-0.7l-0.2,0.6v1v1.1
	l-0.2,0.5l-0.6,1.3l-0.1,0.6l0.1,1l0.4,1.4l0.1,0.8l0.3,0.2l1.3,0.4l0.4,0.3l-0.4,0.5l-0.1,0.5v1l0.1,0.2l0.4,0.6l0.1,0.3l-0.1,0.2
	l-0.2,0.2l-0.2,0.1l-0.1-0.1l0.7,3.1l1,0.5l2.2-0.3l1.1-0.5l2.8-3.8l0.7-0.6h0.2l0.1,0.5l0.4,1l0.1,0.7l-0.4,0.5l-1,0.7l1.2,0.2
	l1,0.5l1,0.1l1.1-0.8l1.9-2.7l1.1-1.2l0.7,0.2l-0.4,2.2l-1.9,1.8l-4.7,2.3l-1,0.2l-0.2-0.3l-0.2-0.5l-0.3-0.3l-0.4,0.3l-0.4,0.4
	l-0.9,0.6l-0.4,0.4l-1,2.4l-0.2,0.3l0.4,1.1l0.9,0.1l1.8-0.6l0.8,0.2l1.6,0.8l0.9,0.1l0.8-0.3l1.5-1.1l0.7-0.2l0.5-0.5l0.5-1
	l0.7-0.6l1,0.4v0.6l-1,0.4l-1,1.1l-0.5,1.1l0.4,0.5l0.4,0.2l0.4,0.5l0.6,1.1l0.4,0.4l1.8,0.4v0.5l-1.6,0.5l-1.4-1.1l-1.3-1.6l-1.4-1
	l-1.5,0.3l-1.8,1.1l-1,1.5l0.8,1.3l-0.6,1.1l-1.5,2.1l-0.3,1.3l0.5,0.8l3.5,1.1l0.5,0.5l1.1,1.4l0.3,0.3l0.6-0.1l1-0.4l3.5-0.6
	l0.8,0.5v0.6h-0.3l-0.3-0.1l-0.7-0.2h-0.7l-0.3,0.6l-0.2,0.2l-4.1-0.1l-0.8-0.5l-1.8-1.4l-1.1-0.4l-0.7,0.4l-0.4,0.4l-1.2-0.1h-0.5
	l-0.3,0.3l-0.5,0.9l-1.8,2.3l-0.6,1.3l0.5,0.6l0.4,0.2l0.7,0.7l0.4,0.2l0.5-0.1l0.9-0.4l0.4-0.1l0.9,0.7l-0.1,1.1l-0.2,1l0.6,0.4
	l0.9,0.3l0.9,0.6l0.9,0.3l0.9-0.7l0.6,0.3l0.6-0.2l0.7-0.4l0.7-0.2v0.5l-2,1l-2.3,0.6l-1.4-0.2l-0.7-0.3l-0.6-0.5l-0.5-0.6l-0.8-1.5
	l-0.4-0.5l-1.1-0.2l-1.3,0.5l-1.2,0.8l-0.7,1l-0.5,1.5l-0.4,1.8L120,197l-0.7,0.9l0.8,0.9l0.3,0.2v0.6l-1.5,0.1l-1.4,0.4l1.9,0.5
	l4-0.9l1.9,0.4l-1.7,1.9l-0.4,0.8l1.7,0.4h0.8l0.7-1.3l0.7-0.4l0.8-0.1l0.6,0.3l-1.4,1.4l-1.7,0.8l-4.4,0.6l-0.6,0.6v0.9l0.8,1
	l3.2,1.6l-0.8-0.2l-1.1-0.3l-0.9,0.3l-0.6,0.8l-0.5-0.4l-0.5-0.2h-0.5l-0.5,0.1v0.6l0.8,0.1l0.4,0.6l0.2,0.8v0.8l-0.4-0.3l-2.2-1
	l-0.6-0.5l-0.4-0.5l-0.4-0.4l-0.7-0.2l-0.6,0.2l-1.5,1.1l-0.5,0.3l-6.5,0.7l-0.5,0.5l-0.9,1.5l-0.3,0.2l-0.3-0.1h-0.2l-0.1,0.7v0.5
	l0.1,0.5l0.2,0.4l0.2,0.4l0.5,0.5l1,0.6l1,0.2l0.8-0.5l0.8-0.8l1.1-0.1l3.1,0.9l2.9-0.2l0.5,0.1l0.9,0.7l0.5,0.2h0.4l1.6-0.5
	l4.6-2.6l1.7,0.5l2.1,1.4l0.9,0.2l3.9-0.5l-0.9,0.6l-1.2,0.3l-2.2,0.2l-1.1-0.2l-2.6-1.4l-1,0.1l-4.5,3v0.8l0.4,0.5l1,0.8l-0.3,0.6
	l-1.2-1.2l-1.4-0.7l-1.5-0.3l-2.1,0.1l-0.6,0.2l-0.4,0.6l-0.1,1.2l0.3,0.6l6.3,5.2l2.5,0.6l1.6-2.2h0.3l-0.1,0.8l-0.2,0.6l-0.6,1.2
	l0.5,0.6l0.7,0.5l0.8,0.4l0.7,0.1l0.5,0.2l0.5,1l0.4,0.3l0.3-0.1l2.8-2.3l2.8-3.3l1.7-2.6l0.5-0.5l0.5-0.4l0.5-0.2l0.4-0.3l0.6-1.4
	l0.4-0.3l0.9-0.2l0.7-0.5l1.2-1.5l0.5-0.9l0.3-0.4l0.9-0.3l0.4-0.7l0.4-0.2l0.7-0.1l0.6-0.3l0.6-0.7l0.6-1.1l0.1-0.6l0.1-0.7
	l0.1-0.6l0.4-0.2l0.4-0.1l0.5-0.3l0.4-0.4l0.2-0.5l0.4-0.6l2.5-2.2l-0.7,1.5l-0.8,1.3l-2.8,3.1l-0.3,0.4l-0.4,1.1v0.5l3.3,1.6
	l6.9-1.5l-0.7,0.5l-3.4,0.8l-1.6,1.1l-0.9,0.3l-1.8-0.6h-0.9l-1.2,1.1l-0.6,0.1l-1.1-0.1l-0.9,0.8l-0.4,0.2v0.6l0.8,0.6l-0.5,1
	l-1.7,1.6l-0.4,0.5l-1.1,2.1l-0.1,0.3l-0.1,0.6l-0.2,0.4l-0.3,0.3l-0.2,0.2l-0.2,0.2l-0.1,0.6l0.6,0.1l0.7,0.8l0.5,0.2l0.5-0.1
	l0.9-0.8l0.5-0.2l0.7-0.6l0.2-0.1l0.8,0.1l0.5-0.1l1.4-0.9l-0.4,0.7L145,227l-1.1,0.5l-2,1.6l-0.8,0.3h-0.9l-1-0.4l-1-1l-0.2,1.1
	l-1.5,3.6l0.6,0.5l0.8-1.7l0.5-0.7l0.6-0.3l0.7,2.9l0.7,0.5l1.2-1.1l4.5,1l1.8-0.2l0.5-0.5l1-1.6l1.7-1.6l0.6-1.2l0.5-1.4l0.6-1.1
	l0.9-0.5l-0.9,1.3l-1.4,3.1l-2.7,3.7l-1.1,1l-1.4,0.3l-3.4-1l-4.2,0.4l-1.4,0.7l-1.1,1.5l0.2,0.6l-0.3,0.4l-0.5,0.3l-0.4,0.3
	l-0.3,0.6l-0.9,2.5l0.9,0.2l1.8-0.6l1-0.1v0.5l-2.1,0.9l-1.1,0.1l-0.8-0.5l-0.8,0.9l-0.4,1l-0.5,2.8l-0.5,1.6l-0.1,0.9l0.3,0.7
	l0.4,0.1l0.4-0.4l0.4-0.5l0.4-0.2l1.8-0.6l0.6,0.3l0.3,0.5l-0.1,0.6l-0.5,0.2l-0.8,0.2l-0.9,0.5l-0.5,0.8l0.4,1l-0.8,1.2l-0.7,1.4
	l-0.5,1.5l-0.3,1.6l1-0.8l0.8-1.3l1-1.2l1.3-0.4l-0.3,1l-0.3,0.7l-1.4,2.1l-0.2,0.5l0.1,0.6l0.3,1.2l0.1,0.1l0.3,0.2l0.3,0.3
	l0.2,0.5l-0.1,0.4H134l-0.4-0.2l-0.1-0.2v-0.1l-0.3-0.2l-0.3-0.2l-0.3-0.1l-0.3,0.2l-0.1,0.3l-0.1,0.3L132,262l-3.2,4.6l-1.5,3.1
	l-0.2,2l-0.2,0.4l-0.1,0.5l0.1,0.4l0.4,0.2l0.2-0.2l0.7-1.3V270l1.8-2.1l0.3-1.4l0.7-0.4l0.6-0.5l0.5-0.3l0.5,0.2l-0.2,0.4l-0.3,0.3
	l0.2,0.3l-0.4,0.9l-4.6,7.2l0.1,0.8l0.3,0.9l0.3,0.5h0.4l0.8-0.8l1.1-0.6l1.4-1.7l0.9-0.5L132,274l-0.8,0.7l-0.6,0.8l-0.3,1
	l-0.3,0.6l-1.8,2.7l0.2,0.6v2l0.3,1l0.6,0.7l0.6,0.4l1.2,0.4l-0.3,1h0.6l0.5-0.2l1.5-1.2l4.1-4.6l-0.8,2.2l-1.3,2l-1.5,1.4l-1.2,0.5
	l-0.6,0.5l-0.7,1.1l-0.6,1.3l-0.3,1l-0.3,0.8l-2.3,1.9l0.5,1l-0.2,1.5l-0.9,2.6l-1,2.2l-0.2,0.8l0.1,0.5l0.3,0.5l0.2,0.5l-0.6,2.2
	l0.1,1.7l0.2,1.7v1.5l-0.4,0.8l-1.6,1.9l-1.2,1l-0.2,1.4l0.1,1.7l0.5,3.2l0.5,0.9l0.7,0.3h1.2l0.5-0.1l0.9-0.7l0.4-0.2h0.5l0.8,0.4
	l0.4,0.1l1-0.2l0.9-0.5l0.8-0.7l0.7-0.7l1.4-2l0.4-1.1l-0.5-0.5V314l-0.7-1.7l-0.4-0.6l-0.4-0.4l-0.4-0.2l-0.5,0.1v-0.5l1-0.6l0.7-1
	l0.9-2.5l0.2-0.2l0.2,0.1h0.1l0.1-0.6v-1.4v-0.4l0.3-0.7l0.9-1.8l-0.3-1.4l0.5-0.4l0.7-0.3l0.3-1l-0.3-0.8l-0.5-0.1l-0.4-0.4
	l0.1-1.7l-0.1-0.2L136,295l-0.1-0.3l0.9-0.7l0.1-0.6l0.1-1.3l0.1-0.6l0.3-0.9l0.4-0.8l0.5-0.7l1.9-2.2l0.6-0.5l1.4-0.5l0.6-0.5
	l0.3-1l-0.4-1.9l-1.1-1.8l-2.3-2.5l0.2-0.2l0.2-0.2l0.2-0.2l-0.4-0.4l-0.2-0.1v-0.5h0.3v-0.5l-0.5-0.5L139,275v-0.7l-0.2-0.9
	l-0.4-1.5l-0.2-0.1l-0.6-0.3l-0.1-0.2l0.3-4v-0.5v-0.5l0.1-0.4l0.3-0.2l0.1,0.5v0.7v0.3l0.8,0.3l1,0.1l0.9-0.3l0.4-0.8l0.1,0.1
	l0.3-0.9l0.2-1.1v-0.4l0.3-0.2l0.8-0.1l0.4-0.2l3.5-5.4l5-3.4l0.4-0.5l1-2.6l0.5-0.9l0.6-0.6l0.7-0.3l1.7-0.1l0.7-0.4l1.6-1.7
	l0.7-0.5l-0.8,2l-1.5,1.1l-1.6,0.7l-1.3,0.9l-0.7,1l-1.5,3.5l-0.4,0.4l-1.8,1.4l-2.4,1l-4.6,8.1l-1,1.2l0.5,2.2l0.1,0.6l-0.1,0.6
	l-0.4,0.8l-0.1,0.6v1.4v0.7l0.1,0.5l0.3,0.4l0.3,0.2l0.3,0.3l0.3,1.9l0.4,0.6l1.4,0.5l1.8,1.1h0.8l-0.3-1.3l-0.4-1.2l-1-2.1l1.2-1.8
	l0.2-0.6l0.1-0.7l0.3-1l0.4-1l0.4-0.6v1.6l0.4,1l2.8,2.3l0.8,0.3l0.4-0.7l-0.3-1.6l-1.6-4.1l-0.7-1.2l0.7-0.5l0.3,0.6l0.2,1l1.7,2.3
	l0.2,1.5l0.4,2.1l0.6,1.9l0.7,0.8l1.3,0.3l0.5-0.1l0.6-0.7l0.4-0.8l0.2-0.7l0.1-0.7l0.2-0.9l0.4-0.7l0.5-0.6l0.4-0.7l0.2-1.1
	l-0.2-0.9l-0.4-0.6l-0.6-0.4l-0.5-0.3v-0.5l0.7,0.2l0.7,0.4l0.6,0.2l0.6-0.3l-0.2-0.9l-0.1-1v-1.5l-0.2-1.5l0.1-0.6l0.5-0.2l0.1-1.2
	l-0.4-2.6l-0.6-2.6l-0.5-1.3l0.6-0.7l0.6,0.2l0.4,0.8l0.2,1l-0.1,2.3l0.3,0.6h0.9l0.6-0.9l2.4-5.1l0.6-0.8l0.4-0.3l0.2,0.3l-0.2,1.1
	l-3,4.8l-1.6,4.3l-0.1,0.6l0.1,2.9l0.1,1.4l0.5,1.1l1,0.4h1l0.8-0.1l0.3-0.6l-0.5-1.4l-2-3l-0.3-0.9v-0.8l0.2-0.6l0.6,0.2v0.4
	l0.5,2.3l0.5,1l0.7,1l0.8,0.8l1.7,0.7l2.1,2.7l1.8,1.2l6.2,1.3l-1,0.7l-7-1.1l-0.9-0.6l-0.5,0.2l-0.7-0.1l-2.7-1.3l-0.6-0.1
	l-0.8,0.2l-1.3,0.6l-1,0.8l-0.6,1.3l-0.3,2l0.4,5.4l0.2,0.8l0.3,0.6l0.3,0.9l0.2,2.5l-0.6,1.6l-1.9,2l0.8,1.2l1.4,1.2l2.4,1.6v0.6
	l-0.3,0.7l0.4,0.3h1.4l2.3,1l1.2,1l0.9,1.5l0.2,1.6l-0.9,1.4l1.5,0.5l1,1.3l0.4,1.8l-0.4,2l-1,1.5l-2.8,1.3l-1.4,1.2l-0.4,0.8
	l-0.3,1.7l-0.3,0.7l-0.3,0.4l-0.8,0.6l-1.4,1.7l-0.2,0.4L163,319l0.1,1.6v0.7l-0.2,0.7l-1,2.5v0.4v0.8l-0.1,0.2l-0.4,0.1l-0.2,0.2
	l-2.7,3.7l-1.7,1.1l-0.8,0.8l-0.4,1.4l-0.1,1.5l-0.3,1l-0.7,1.8l-0.2,0.6l-0.1,0.5v1.6l0.1,0.9l0.6,1.4l0.1,0.7l0.2,0.7l1.5,3.1v0.5
	l-0.2,0.3l-0.1,0.3l-0.7,0.8l-0.8-0.1l-0.7-0.7l-0.6-0.8l-0.2-0.7l0.1-1.8V344l-0.2-0.8l-0.3-0.7l-0.6-1l-0.2-0.4l-0.4-0.8l-0.4-0.4
	l-0.2,0.9L151,341l-0.5,0.1l-0.9-0.1l-0.6,0.6l-0.3,1.3l-0.1,2.6l0.2,2.9l0.8,2.6l1.2,2.2l4,4.8l0.8,0.4l0.4,0.4l0.3,0.9l0.2,1
	l0.2,0.7l0.3,0.3l0.3,0.1l0.8,0.1l-0.2,0.5v0.5l0.2,0.5l0.3,0.5l-0.5,0.7v1.2l0.3,1.1l0.4,0.5l0.9,0.2l1.8,1l0.9,0.2l-0.5-1.2v-0.4
	v-0.7l0.2-1.3v-0.6l-1.2-1.1l-0.7-1.7l-0.5-1.7l-0.3-0.8l-0.4-0.3l-0.3-0.8l-0.2-0.8l-0.1-0.6v-0.5v-0.4l0.2-0.4l0.4-0.6l0.6-0.9
	l0.8-0.9l1-0.7l1-0.5h1.6l0.9,0.4l0.8,2.1l0.9,0.6l1.9,0.5l5,3.1l1.4,1.4l2.4,3.8l0.4,0.3h1.5l0.4,0.2l1.1,0.8l0.9,0.4l1,0.1
	l0.4-0.2l0.3-0.3l0.2-0.3l0.2-0.2l0.3-0.6l-0.2-1.4l-0.1-1.5l0.5-1.1l-0.6-1l0.2-0.9l0.4-0.8l-0.1-0.9l-0.5-0.7l-0.5-0.4l-0.6-0.2
	h-0.7l-0.3-0.5l-0.3-1.1l-0.4-1.7l0.1-0.8l0.3-0.9l0.3-0.8l0.3-0.3l0.7,0.2l0.3,0.5l0.2,0.8l0.4,1l0.4,0.5l0.5,0.4l3.1,1.5l0.6,0.1
	l0.7-0.3l1-1.3l0.6-0.4l-0.4,2.9l1.5,2.5l2.2,1.4l1.6-0.3l-0.4-1.1l0.1-1.2l0.5-1l0.6-0.5v0.3l0.6,0.3l0.1,0.8l-0.2,0.9l0.1,0.7v0.1
	l-0.1,0.3l-0.1,0.2l0.1,0.2l0.1,0.1h0.1l0.2,0.1v0.5l1.3,0.1l2-0.3l3.3-2.5l2.2-1l0.4-0.3l-1.4-1.4l0.6-0.5l0.3-0.1l-0.1-0.3
	l-0.2-0.8l0.7-0.6l0.5-0.8l0.2,0.2l0.1,0.2l0.1,0.5l-0.2-0.3l-0.2-0.1l-0.5,0.9l0.2,0.5l0.3,0.3h0.3l0.4-0.3l-0.1-0.1l0,0l-0.1-0.4
	l3,0.5l0.9-1.5l1.1-0.2l3.9,0.4l0.7-0.4l0.5-1.2l0.1-1.2l-0.1-1.6l-0.2-1.5l-0.3-0.8l0.6-2l1.2,1.1l0.7,0.3l0.7-0.3l-0.1-0.3v-0.1
	l0,0l-0.1-0.1l0.6-0.2l0.6,0.2l0.7,0.4l0.7,0.2l13.4,1l3.6-1l0.2-0.1l1,0.5v0.5l-0.8-0.3l-0.7,0.3l-0.6,0.4l-0.8,0.1v0.5h2.9
	l-0.7,0.5l-3.5,1.1l-0.9-0.1l-1.6-0.5l-0.3-0.3l-0.2-0.3l-0.3-0.3l-0.5-0.2L229,346l-0.6,0.5l-1.1,1.2l2.1,1.1l0.5,0.4l-1.7,0.9
	h-0.5l-0.7-0.3l-0.4-0.5l-0.5-0.4l-0.8,0.2l-1,1.2l-0.8,2l-1.4,4.3l0.4,1.2l-0.4,1.4l-0.7,1.2l-0.5,0.7l-0.4,0.3l-0.9,0.4l-0.3,0.3
	l-0.3,0.6l-0.6,1.8l-1.4,3.3l-1.1,5.7L215,376l-0.2,0.2l-0.5,0.5l-0.3,0.5l0.4,0.5l0.4,1l0.2,0.2l0.7,0.4l4,5.6l1,0.9l1.4,3l1,0.5
	l0.1,0.1l0.1,0.7l0.3,1l-0.1,0.6l-0.2,0.6l-0.1,0.6l0.2,1.1l0.6,1l1.3,1.6l1.5,2.7l0.9,0.9l0.9-0.4l0.7-0.1l1,0.1l0.6-0.3l-0.4-1.4
	l0.4-1.8l0.4-0.8l0.7-0.4l-0.1,1.5l0.1,2.4l-0.4,2.1l-1.4,0.4v0.5l0.6,0.5v1l-0.2,1.2l-0.1,1.1l0.4,0.5l0.5,0.3l0.6,0.2h0.7l0.4,0.4
	l1.5,2.1v-0.8l-0.1-1l0.1-0.8l1.2-0.6l0.4-0.7l0.7-1.5l1.3-1.6l0.2-0.6l0.1-0.8l0.2-0.9l0.1-1l-0.2-1l0.6-0.3l0.5,0.3l0.4,0.7
	l0.3,0.8l-0.4,0.7l0.3,1.1l0.6,1l0.6,0.5l1.9-0.1l0.8-0.5l0.3-1.1l0.3-0.8l0.8-0.6l1.5-0.8l1.3-1l0.6-0.9l0.2-1.1h0.3v1.4l-0.6,1.3
	l-0.9,0.9l-0.9,0.4l0.1,0.7l1.6,3.2l0.7,1.1l-0.8,1.9l-0.5,0.7l-1.4,0.6L246,409l-0.8,1.5l-0.4,0.4l-0.4,0.4l-0.3,0.4l0.1,0.6
	l0.7,1.5l0.2,0.2l1.3-0.1l0.7-0.3l0.7-0.5l-0.2,1.2l-1.5,1.5l0.5,0.8l-0.3,0.2l-0.4,0.3l-0.3,0.4l-0.1,0.4l-0.1,0.3l-0.3-0.1
	l-0.6-0.4l-0.7,0.1l-3.9,1.5l-1,0.6l-0.7,1.2l0.5,2l-0.5,5.4l0.3,2.4l1.2,1.7l1.5,0.7l3.6,0.1l-0.5,0.7l-1.7,1.2l-0.4,0.7l-0.3,0.3
	l-2.2,2.9l-2.8,4.6l-0.5,1.1l-0.1,1l0.2,1l4.9,10.7l1,1.6l1.3,1.5l1.6,1.2l1.8,0.7l1.8,0.2l0.7-0.4l0.3-1l0.5-0.3l2.1-0.5h0.6
	l-0.4,0.4l-0.4,0.3l-0.4,0.1l-0.4-0.2l-0.4,0.4l-0.3,0.5l-0.1,0.6l0.2,0.9l-1.2,0.7l-0.6,0.2l-0.7,0.1l-0.3-0.1l-0.6-0.3h-0.4
	l-0.3,0.2l0.2-0.4v0.3v0.2l-1.3,0.1l-1.2-0.6l-1-0.9l-0.8-1l-2.5-6.5l-1-1.2l-1-0.1l-1.5,1.2l-0.9,0.3l-1.8,0.3l-0.8,0.4l-0.5,0.7
	v1.1l0.6,1.1l1.5,2l1,2.2l1.1,1.9v2.6l-0.1,0.3l-0.3-0.3l-0.5-0.9l-0.6-0.7L230,463l-0.5-0.6l-0.4-0.7l-0.9-0.7l-1.6-0.8l-1.8,0.1
	l-8,4l-1.7,0.4l-4.8,0.1l-0.7-0.4l-0.7-1l-0.9-0.8l-0.9-0.3l-0.8,0.4l-0.5-0.7l-0.7-0.4l-0.8-0.2l-0.8-0.1l0.3,0.8l1.2,1.3l0.4,1.3
	H204l-4.6,1.9l-1.4,1.2l-1,0.3l-0.9,0.4l-0.5,0.4l-0.3-0.1l-0.3-0.2l-0.4-0.1l-1.3,0.1l-1.2,0.4l-1.1,0.7l-0.9,1.2l-0.9,1.8
	l-0.6,0.8l-0.7,0.3l-0.5,0.3l-1.7,2v0.3l-0.3,0.8l-0.4,0.6l-0.2-0.4l-0.1-0.5l-0.3-0.1l-0.3,0.3l-0.1,0.8l-0.1,2.9l-0.2,1.2
	l-0.3,0.9l-2.8,1.8l-0.8,1.4l-3.4,2.6l-0.8,0.5l-0.8,0.2l-0.8,0.1l-0.6,0.4l-5.8,6.8l-0.6,1.1l-0.3,0.3l0.2,0.4v0.3l-0.4,0.6
	l0.6,0.4l0.6-0.3l0.6-0.7l0.6-0.4l2.4,0.2l0.9-0.2l0.3-0.2l0.2-0.3l0.3-0.3l0.5-0.1l0.5,0.2l0.8,0.6l0.9,0.3l0.6,0.7l0.5,0.1
	l0.3-0.1l0.3-0.3l0.5-0.6l-0.5-0.7v-0.9l0.4-0.8l0.7-0.4l-0.1-0.3l-0.2-0.2l1.5-1.7l0.8-0.7l0.9-0.5h2.9l0.8-0.5l0.7-0.4l3-1
	l2.4,0.4l1.2-0.1l1.1-0.8l0.3,0.8l0.4,0.1l0.5-0.3l0.5-0.5l0.1,0.3l0.1,0.1l0.3,0.1l-2.5,1.8l-0.3,0.3l-0.1,0.5v1l0.2,0.5l0.3,1.1
	l0.1,1.1l-0.5,0.5l-0.7,0.2l-0.1,0.6l0.2,0.6l0.8,1.7l3.2,3.9l0.7-0.2l0.7-0.6l1.1-0.1l-0.5,0.7l-1.7,1.3l-0.4,0.2l-0.2,0.1
	l-0.1,0.3l-0.2,0.9l-0.1,0.2l-0.8,0.5l-0.9,1.3l-0.7,1.7l-0.1,1.7l0.5,1.1l1.9,2.7l0.6,0.5l1.1-0.2l2.2-0.8h1.1v0.5l-2.2,1.6
	l-0.7,0.3l-0.4-0.1l-0.9-0.5l-0.3,0.1l-0.3,0.6l-0.1,0.8l0.1,0.8l0.2,0.6l-0.5,1l-0.5,1.4l-0.4,1.6l-0.4,2.9l-0.6,1.5l-1.2,2.4
	l-2.4,3.5l-5,4.3l-0.8,0.2l-0.9,0.1l-0.7,0.2l-0.6,0.4l-1.3,1.5l-0.8,0.8l-0.8,0.6l-1.2,0.4l-0.3,0.4l-0.2,0.5l-0.3,0.3l-0.5,0.2
	l-5.2-0.2l-1.6,0.8l0.1,2l-1.4-1.1h-0.6l-0.8,0.9l-1,1.7l-0.6,0.7l-0.8,0.6l-1.4,0.2l-0.3,0.3v0.6l0.2,0.8l0.1,0.7l-0.4,0.3
	l-0.9-0.1l-1.6-0.6l-0.8-0.1l0.3,0.9l-1.2,0.5h-0.8l-2.2-1.2l-0.5-0.1l-1.1-0.1l-0.7,0.1l-0.5,0.4l-0.1,0.5l0.5,0.4v0.4h-0.6
	l-0.1,1.8l-1.3,1.2l-1.7,0.6l-1.3,0.2l-0.5,0.3l-1.3,1.3l-0.8,0.3l-1.5,0.1l-0.4,0.4l0.3,0.9v0.4l-0.4,0.3l-0.1,0.2l0.1,0.2l0.1,0.3
	v0.5l-0.3,0.2l-0.3,0.2h0.8l2.3-0.5l0.6-0.5l0.7,0.5l1.7,0.2l0.8,0.6l0.3-0.5l0.6,0.5l0.4,0.8l0.2,1v1.1l0.2,1.7l-0.1,0.7l-0.7,0.7
	l-0.7,0.3L149,570l-0.6,0.6l-0.5,0.7l-0.5,0.3l-0.6,0.1h-0.9l0.8,0.3l2.1,1.6v0.4l-0.1,0.7h0.6l0.5-0.6l-0.4-1.1l0.7-0.3l5.9,0.8
	h0.9l3.3-0.8l0.6-0.7l0.2-0.8l-0.6-0.6l0.2-1l-0.2-0.6l-0.5-0.3h-0.7l0.5-0.3l2.4-0.2l1.2-0.5l0.5-0.3v0.5l-1.6,0.4l-0.7,1.4
	l0.2,1.6l1.2,1.2v0.4l-0.6-0.3l-0.4,0.1l-1,0.7l-2,0.4l-1.4,0.8L157,575l-0.6-0.1l-1.1-0.4h-0.6l0.1,0.2l0.1,0.5l0.1,0.2l-3.2-0.5
	l-0.3,0.5l0.8,0.9l2.1,0.5l0.6,1.3l-0.4,0.7l1,0.7l2.7,0.9l0.4,0.4l0.2,0.1l0.4-0.2l0.4-0.6l0.8-0.4l0.4-0.5l0.3-0.6l0.4-0.5
	l0.6-0.4l0.6-0.2l3.7,0.1l0.7-0.7l0.3-0.2l0.6,0.5l0.4,0.1l0.8-1.9l0.1-0.5v-0.3l0.1-0.1l0.4-0.1l0.1-1.7l1.4-1l1.8-0.5l1.2-0.1
	l3.2,0.4l1.6-0.1l1.4-0.8L180,570l-0.3-0.7l0.2-0.5l0.8-0.1l0.4,0.5l0.4,0.3l0.4,0.1l0.3-0.1l0.3-0.6l0.2-0.2l0.3-0.7l0.3-0.2
	l0.3,0.5v0.6l-0.2,0.6l-0.2,0.5l-0.1,0.1l0.4,0.8l0.6,0.5l0.8,0.2l0.8-0.1l-0.4,0.6l-0.8,0.1l-1.7-0.2l0.5,1.2l1,1.2l1.1,0.9
	l0.9,0.4l3.3-0.5l0.6-0.4l2.3,1.3l1.7,0.2h0.5l0.3-0.3l0.5-0.6l0.2,0.1v0.5v0.4l-0.9,1.5l-2,0.5l-2.1,0.1l-1.3,0.4l-0.3-0.3
	l-0.3-0.2V578h0.3l-0.3-0.5l-0.3,0.4L188,579l-0.2,0.2l-1.4,0.5v1.1l0.4,0.9l0.1,0.7l-0.8,0.6l0.1,0.5l0.1,0.2l0.1,0.2l0.7,0.1
	l2.5,1.1h0.5l0.2-0.7h0.4l0.5,0.3l0.4,0.1l0.4-0.3l0.6-0.7l0.4-0.4l0.4-0.2h0.4l1.1,0.3l0.4,0.3l0.3,0.1l0.2-0.1l0.4-0.6l0.1-0.1
	h0.3l0.3,0.2l0.3,0.2l0.1,0.3l0.1,0.4l0.2-0.1l0.2-0.3v-0.2h1.8l-0.3-0.6l-0.4-0.6l-0.3-0.7v-0.6l0.4-0.4l0.6-0.4l0.6-0.2l4.5-0.6
	l0.6,0.2l0.4,0.4l0.7,1.3l0.4,0.5l0.7,0.5l0.3,0.4l0.5,0.9l0.5,1.1l0.4,1.3l0.3,1.3h-0.1h-0.1l-0.1,0.1l0.1,0.3l0.4,0.7l0.8,0.8
	l0.9,0.5l0.8-0.4l0.6,0.1l2.5,2.1l2,2.7l0.8,0.4l10.5,1l3-1.3l0.6,0.1l0.8,0.3l0.7-0.9l0.3-1.4l-0.5-1.4l0.3-0.2l0.6-0.1l0.3-0.2
	l0.2-0.3l0.2-0.8l0.1-0.3l1.1-1.1l0.7-0.5l0.6-0.2l2.4-1.6l0.2-0.4l1.1-1.4l0.4-0.3l0.2,0.2l0.2,0.5l0.3,0.5l0.5,0.2l3.6-0.3
	l1.8-0.6l2.3-1.6l2-0.5l0.8-0.6l1.2-1.4l2.8-3.3l0.4-0.7l0.4-0.4l2.5-1.7l0.6-0.8l0.5-0.9l0.6-0.7l0.8-0.3l0.8-0.1l1-0.3l0.8-0.7
	l0.2-1.3l0.6,0.6l0.1,0.8l-0.3,0.8l-0.7,0.6l-1.8,0.6l-0.7,0.4l-1.4,2l-2.4,2.5l-0.3,0.4l-0.3,0.6l-0.2,0.6l-0.1,0.6l-0.1,0.6
	l-0.4,0.3l-0.4,0.2l-0.4,0.3l-3.7,6.4l-0.9,0.9l-0.9,0.4l-1,0.1l-0.8,0.3l-0.7,0.4l-0.7,0.6l-2.9,3.8l-1.6,1.5l-1.3-0.3l-0.9,1
	l0.6,0.7l-0.3,0.6l-0.6,0.6l-0.3,0.6v1L241,600l-0.4,0.2l-0.8-0.3l0.5,0.8l0.1,1.3v2.5l0.1,0.6l0.1,0.4l0.1,0.4l-0.1,0.9l-0.1,0.5
	l-0.7,1.4l-0.6-0.5l0.6-1l-0.3-0.5l-1.2,0.8l-1.6,0.2l-2.8-0.1l-1.5,0.2l-3,1l-4.8,0.2l-0.8-0.4l-1.2-1.2l-5.3-1.2l-3.4,0.1
	l-5.4-1.4l-0.8,0.1l-1.3,0.7l-0.9,0.2h-3l-0.8,0.1l-1.6,0.6l-7.7,0.7l-3.2,1.3v0.4l0.5,0.3l0.3,0.6l0.1,0.7l-0.3,0.7l-0.3,0.1
	l-1.4-0.1l0.3,0.6l0.7,1.1l0.1,0.4l0.1,0.5l0.5,1.8l0.3,0.6l-0.4,0.3l-0.3,0.4l-0.2,0.4l-0.2,0.4l-2.8,3.2l-0.6,0.5l-0.9,0.3
	l-2.4-0.3l-0.4-0.2l-0.9-0.7l-0.5-0.1h-3.7l-0.2,0.4v0.9l0.2,1l0.2,0.5l-0.6,1.7l-0.3,0.6l-0.5,2.8l0.2,5.9l-1.2,2.3l-1.8,1.3
	l-0.8,0.9l-0.3,1.2l-0.5,0.8l-3,2.6l-0.6-0.2l-0.4,0.3l-0.1,0.7l0.3,1l-0.7,1.1l-0.5,1.2l-0.7,1l-1.2,0.4l-3.1,0.2l-1-0.2v0.4
	l0.2,0.7l-0.2,0.6l-0.1,0.6l0.7,0.9l1.4,0.5l0.7,0.4l0.5,0.9l-0.7-0.3l-1.7-0.1l-0.8-0.5l-0.2,0.2l-0.1,0.1l-0.3,0.2v-0.7l-0.1-0.9
	l-0.2-0.8l-0.2-0.4l-0.3,0.1l-0.6,0.6l-0.3,0.2H157l-0.8,0.7l-0.4,0.9l-0.1,1.1v1.3l-0.4,2.6l-0.4,0.9l-0.1,0.4l-2.9,1.6h-0.3H151
	l-0.5,0.3l0.3,1.3l0.1,0.8v0.8l-0.1,0.3l-0.6,0.2l-1.5,1.1l-4.8,5.1l-1.6,0.9h-1.5l-0.2,0.2l-0.1,0.6l-0.3,0.6l-0.6,1l-0.9,0.5
	l-0.8-0.4l-1.3-1.3h-0.9l-1.6,1l-1.4,0.5l-2.7,1.6l-1.2,0.5l-0.3,0.2l-0.8,1.4l-0.1,0.2l-0.2,0.3l0.1,0.7l0.2,1.2h0.1l0.1,0.2
	l0.1,0.3v0.4l-0.2,0.3l-0.3,0.1h-0.4l0.4,2l1.6,0.6l2-0.2l1.7-0.6l0.6-0.3l0.8-0.6l0.5-0.9l-0.3-1.1V680l0.8-0.7l1.1-0.4l0.9-0.1
	l0.7,0.3l1.4,0.9l1.7,0.3l2.5,1.2l0.8,0.6l0.7,0.8l1.2,2l0.3,0.6v0.5v0.5l0.2,0.8l0.2,0.5l0.2,0.3l1.3,1.4l0.4,0.4l0.4,0.1l0.1-0.4
	l0.5-1.5l1.2-1.5l0.3-0.2l0.5-0.1l0.9,0.2l0.4-0.1l1.2-1.8l0.5-1.2l-0.2-0.5l-0.2-0.2l-0.1-0.9l-0.1-0.3l-0.2-0.1l-0.5,0.1h-0.2
	l-0.6-0.4l-0.4-0.1h-0.5l1.3-0.6l0.4-0.3l0.2-0.5v-0.5l0.1-0.5l0.4-0.3l0.5-0.4l0.3-0.1h0.4l-0.6-0.7l-0.3-0.2v-0.4l0.5-0.7
	l-0.1-0.8v-0.6l0.8-0.2l0.5,0.5l0.3,2.3l0.5,0.8l1.8-3l0.6-0.6l1.8-0.6l0.7-0.4l0.8-1l0.8-0.3l2.1,0.3l0.4-0.5l0.1-0.4l0.5-1.2v-0.3
	l-0.2-0.4l-0.1-0.4l0.2-0.4l0.3-0.5l0.4-0.4l0.3-0.2V667l-0.3-0.8l0.5-0.5l0.9-0.3l0.9-0.1l0.2-0.1l0.2-0.2l0.2-0.2h0.3l0.6,1.8h0.2
	l0.2-0.1l0.1-0.2v-0.1l6.9-0.4l1.6-0.6l3.1-1.9l1.9-0.2l3.6,0.9l0.7,0.4l0.4,0.9l0.4,0.8l0.9,0.1v-0.4l-0.2-0.5v-0.4l0.3-0.3
	l0.5-0.2V664h-1.2l0.3-0.5l-0.8-0.1l-0.3,0.1v-0.4l1.5-0.4l-0.9-0.7l-2.4,0.4l-0.7-1l2,0.2l0.6-0.2l0.4-0.5l0.2-0.7l-0.2-0.7
	l-0.6-0.4v-0.4h0.5l0.4-0.2l0.3-0.5l0.2-0.7l0.5,0.4h0.4l0.8-0.4l-0.4,0.9l-0.6,0.9l-0.3,0.9l0.3,1.1l0.3,0.7l0.2,0.5l0.3,0.4
	l0.5,0.4l0.5,0.1l1.6-0.1l-0.6,1.2l0.4,1l0.9,0.7l0.9,0.3l-0.2,0.6l-0.1,0.2l0.7,0.6l0.4,0.3l0.5,0.1l0.3-0.2l0.6-0.6l0.2-0.2
	l0.4-0.1l1.1-0.6l0.4-0.1l0.5,0.2l2.8,2.5l2.4,3l1.6,1.4l0.6-0.7l0.7,0.1l0.8,0.4l0.9,0.2l0.7-0.1l1.7-0.5l0.6-0.3l-0.3-1.6l0.2-1.5
	l0.4-1.4l0.2-1.1l0.4-0.6l0.9-0.3l0.9-0.5l0.3-1.5l0.7,0.6l0.7,0.2l0.5-0.4l0.3-1.7l0.2-0.3l0.3-0.2l0.4-0.1v-0.2l0.4-1.1v-0.5
	l-1.9,0.1l-0.7-0.4l-0.3-1.1l0.3-0.9l0.7-0.5l0.9-0.2l1-0.1l-0.8-2.7v-1.3l0.5-1.8l0.6-1.3l0.6-1.1l0.7-0.9l0.7-0.7l-0.4-0.9
	l-0.5-2.3l-0.5-0.6v-0.3V643l0.1-0.1l0.2,0.1l0.1,0.2l0.1,0.1l0.1,0.1l0.2,0.3l0.5,1.6l0.5,1l0.6,0.5l0.7,0.2h0.9l3.1-1.4l0.6-0.9
	l0.4-0.9l0.5-0.7l1.7-0.4l1.4-0.6l0.8-0.1l0.5,0.1l0.8,0.4h0.4l0.4-0.2l0.7-0.6l0.2-0.1l1-0.8l0.5-0.2l1.6,0.5l1-0.1l1.5-1l3.2-0.7
	h0.9l7.2,2.7l8.8,6.8l1,1.6v2.5h0.3l0.6-0.9l0.4-1l-0.1-0.8l-1.1-0.4l-0.4-0.6l0.2-1.4l0.5-1.4l0.5-0.7l1.6-0.5l0.9-0.1l1.4,0.9
	l7.8,0.9l3.2,1.5l0.7,0.2l3.4-0.1l0.8-0.4l-0.1-1l1.5-1.8l-0.2-0.1l-0.6-0.4l0.3-1.1l-0.3-0.5l-0.6-0.1h-0.7l-0.8-0.2l-0.5-0.5
	l-0.9-1.6l-0.5,0.4l-0.5,0.3l-0.5,0.2l-0.6,0.1l1.5-2.4l0.4-0.3l0.2,0.2l0.4,0.9l0.1,0.2l0.3,0.1l1.1-0.1l1.6,0.5l0.1,0.4l0.1,0.7
	l0.2,0.5l0.5-0.3l0.6-0.8l0.7-0.6l0.8-0.4l0.8-0.3l0.9-0.1l2.7,0.5l0.8-0.2l1.6-0.9l0.9-0.3h0.9l2.9,0.5l0.9,0.6l0.8,0.2h0.1
	l0.1-0.3l1.4-2.5l1.4,0.3h0.2l0.5-0.4l1.1-0.4l1.9-0.4v-0.4l-0.3-0.3l-0.3-0.2l0.6-0.2l2.7-0.2l0.9-0.3l0.1-0.8l-0.4-0.9l-3.3-3.7
	l-1-1.3l-0.5-0.1l-0.8-0.5l-0.4-0.2v-0.4l5.4,3l1.6,1.9l0.6,0.3l1.4,0.5l1,0.9l1.4,0.7l0.3,0.6l0.3,0.4l0.7,0.4l0.8,0.3h0.5l0.6-0.5
	l0.2-0.7l-0.1-1.3l-0.2-0.4l-1.5-1.2l0.6-0.2l2.6-0.2l0.8,0.4L322,633l-0.8,1.1l-0.4,1.2l0.9,1l1.1-0.1l0.6-1.3l0.4-1.6l0.5-1.2
	l0.8-0.2h1.3l1.3,0.3l0.9,0.5l-0.4,0.9l0.3,0.1l0.5-0.3l0.2-0.2l0.5,0.3l0.8,0.8l0.4,0.3v0.4l-1.2,0.5l-0.6,0.4l-0.2,0.7l0.3,0.4
	l3.8,2.5l1,0.3l0.8-0.5l0.2-0.7l-0.3-1.2l0.2-0.6l0.4-0.2l0.4,0.2l0.3,0.3l0.4,0.1l6.9-2.3h7.2l5.4-1.9l1.5,0.6l1.1-0.6l1.4,0.1
	l8.7,3.2l1.8,0.1l0.8,0.3l0.7,0.7l0.4,0.2h1.5l0.5,0.1l1.9,0.7l0.8,0.1h1.6l1.6-2.2l1.4-1l0.1-0.3l0.4-0.7l0.5-0.6h0.2l1.6-0.7
	l9.1-2l1.7-0.8l4.1-4l1.7-0.6l6,2l1.5-0.6l-0.4-2.6l-0.1-1.7l0.4-0.8l2.2-3.1l1.6-1.5l0.9-0.6l0.8-0.2l2.8-0.1l0.8-0.3l0.3-0.3
	l0.4-0.5l0.4-0.4l0.5-0.2l0.9,0.1h0.5l1.2-0.9l2.8-1l1.1-1.4l0.9-2.1l0.3-2.6l-0.4-2.6l-0.7-1.8l-0.3-1.1l-0.1-1.4l0.2-0.2h1.5
	l0.3-0.2l0.2-0.3l0.2-0.4l0.1-0.4l0.4-2.2l-1-0.6l-13.6,1.3l-5.2,1.6l-9-1l-0.5-0.5l-0.6-1.1l-0.5-1.2l-0.1-0.9h-0.9l-0.2,0.6
	l0.2,0.9l0.3,0.8l-1.7-0.5h-3.6l-0.4-0.2l-0.3-0.4l-0.3-0.5l-0.3-0.4l0.8-0.5l1.5-0.4l1.3-1.3h0.7l1.5,0.3l0.9-0.1l0.4-0.4l-0.1-0.7
	l-0.5-1l-0.6-0.4l-6.7-1l-2.7,0.7l-0.2,0.2l-0.1,0.5l-0.2,0.5l-0.3,0.2l-2.7,0.5l0.6-0.3l0.6-0.2l0.6-0.3l0.6-0.7l0.3-0.8l0.1-0.7
	l0.2-0.5l2.9-0.8l1.2-0.1l0.7,0.7l0.6-0.5l0.5-0.1h0.6l0.6-0.2l0.8-0.8l0.1-0.1h0.3h0.6l0,0l1.2-0.1l3.3,0.5l1.9-0.6l2.4-1.5l2.1-2
	l1.2-1.9l-0.2-0.3l-0.4-0.3l-1.1,0.1l0.6-0.5l0.3-0.3l0.1-0.4v-1.6l0.2-0.6l0.4-0.4l-0.3-0.8l-0.2-0.5l-0.1-0.5l0.1-0.1l0.2-0.5
	l0.1-0.7l-0.1-0.6l-0.7-0.7l-0.7,0.1l-1.2,1l-1.3,0.5l-2.7,0.6l-1.2,1.2l-0.5-1.1l-0.7-0.4l-0.8-0.1l-0.7-0.3l0.9-0.5l1.9-0.8l1-0.1
	l0.4,0.1l0.9,0.4h0.5l0.4-0.2l0.7-0.6l0.5-0.1l0.2-0.4l0.2-0.8l0.1-0.8v-0.4l0.3-0.2l1.3-1.2l1.5-0.8l0.6-0.7l0.1-1.3l0.4,0.9
	l1.4,1.9l0.7,1.4l0.4,0.3l0.8,0.1l2.9-0.4l1.4-0.6l2.2-1.5l2.4-2.2l0.5-1.1l-0.1-1.4l-0.2,0.1l-0.3,0.7l-0.4,0.4l-1.5-0.2l-0.7-0.3
	l-0.5-0.4l3.3-3.4l0.2-1.3l-0.8,0.5l-7-0.4l-1.1-0.5l1.1-0.2l2-0.7l0.9-0.1l1.2,0.8l0.5,0.1l0.5-0.1l0.9-0.3l0.5-0.1l0.9,0.2
	l0.1-0.3v-1.1l-0.2-0.3l-0.4-0.2l-1.9-0.4l-0.9-0.6l-1.5-1.4V552l1.2,0.2l2.1,1.7l1.2,0.4l2.9,3.7l0.5-0.2l0.5-0.8l2.9-3.3l1-1.6
	l0.3-0.2l0.3-0.5l0.1-0.9l0.2-0.6l0.6,0.5l0.7-0.8l3.3-1.4l0.2-0.4l0.1-0.9l0.6-1.9l0.2-1.2l0.8-2.4l0.2-1.3l-0.1-3.1l0.1-1.8
	l0.4-0.8l0.5-0.5l1.3-2.4l1.9-4.9l0.1-0.6v-0.7l1.1-3.6l0.5-0.7l0.2-0.6L440.4,517.1z M321.2,640.1l-0.4,0.1l-0.1-0.1v-0.2l0.1-0.6
	v-0.2l-0.5-0.4l-0.4-0.1h-1l-6.4-2.6l-1,0.1l-1.1,0.7l-1.4,1.8l-1,0.8l-1,0.1l0.1-0.2l0.1-0.5l0.1-0.2l-3.7,1.7l-1.6,1.4l-1,1.9
	l0.8-0.5l0.7-0.3l1.6-0.2l0.5,0.2l1.4,1l0.3,0.4l5.5,3.9l1.5,0.4l4.7-1.4l0.1-0.3v-0.7v-1.4l0.1-0.3l0.3-0.3l1.2-1l0.7-0.3l1.6-0.5
	l0.1-0.2l0.1-0.2l0.1-0.1h0.2v-0.5l-0.9-1.4L321.2,640.1z M128.4,397l0.1,0.6l0.3,0.1l0.4-0.2l0.3-0.2l0.3-1.5l0.2-0.1l0.5,0.1
	l0.2-0.1l1.4-1.4l1.1-1.7l0.5-2.1l-0.4-2.7l-1.2-1.3l-1.8,0.5l-1.9,1.2l-1.7,0.6l0.5-0.8l1.5-1.3l0.3-0.7l1.2-3.8l-0.3-0.4l0.2-0.5
	l0.1-0.2v-0.3l-0.5-0.2l-0.3-0.6v-0.8l0.2-0.9l-1.3-0.7l0.3-0.3l0.9-0.2l0.7-0.3l-0.5-0.4l-1.6-0.1l-0.3-0.2l-0.4-0.4l-0.5-0.3h-0.6
	l0.4-0.4l0.4-0.6l0.1-0.7l-0.3-0.7v-0.5l1.3,0.1l1.1,0.7l2.9,2.8l0.7,1.2l0.4,1.7l0.2,2.2l-0.2,1.1l-1,1.2l-0.3,0.8l0.1,0.8l0.3,0.8
	l0.4,0.6l0.5,0.3l0.4,1.4l0.4,1l0.5,0.5l0.6-0.1l0.5-1l0.6-0.3l-0.6-0.8l0.2-0.6l0.6-0.5l0.4-0.6l0.2-1.2l-0.3-1.2l0.3-0.9l0.8-1.3
	l0.2-0.4v-0.4l-0.1-0.3v-0.4l0.3-0.7l-0.3-0.2l-1.3-2.1l-0.2-1l-0.2-2.9l-0.3-0.6l-0.7-0.4l-0.5-1.1l-0.7-2.5l-0.1-0.7v-0.6
	l-0.1-0.4l-0.4-0.2l-0.4-0.2l-0.5-1l-0.2-0.2l-5,0.8l-0.9-0.1l-0.7-0.5l-0.7-0.3l-0.9,0.4l-1.4,1.1l-1.5,0.7l-0.4,0.5L120,369
	l-0.5,0.4l-0.2,0.5l-0.3,0.4h-0.5l-0.1-0.4v-0.7l-0.2-0.6l-0.5-0.3l1.5-2.9l0.8-1.1l1.1-1l1.1-0.6l2.5-0.7l1.2-0.6l0.9-1.1l0.6-1.6
	l0.1-2l-0.5-2.3l-0.8-1.2l-1.3-1.2l-1.3-0.3l-0.7,1.2l2.7,2.9l0.8,1.6h-0.3l-1-1.5l-1.2-0.5l-1.1-0.7l-0.4-2l-0.1-1.1l-0.3-0.9
	l-0.4-0.7l-0.4-0.6l-0.3-0.4l-0.7-0.6l-0.3-0.3l-0.3-0.6l-0.3-1.2l-0.2-0.5l-0.9-1.3l-1-0.9l-1.1-0.6l-1.2-0.2l-0.1-0.5l0.8-2.7
	l0.1-1.3l-0.3-0.7l-0.5-0.5l-0.6-0.3l-0.6-0.1l-0.8,0.1l-0.8-0.1l-0.3-0.6l0.6-1.6l0.3-1.2l0.2-4.1l-0.4-0.8l-1.6-1.7l-0.3-0.2
	l-0.4-0.6l-0.8-0.4l-1.6-0.3l-0.8,0.1l-1.6,0.7l-0.9,0.2l-0.7-0.2l-4.1-2.3l-1.1-0.3l-1.6,1.1l-1-0.3l-1.5-0.9l-0.9,0.1l-0.9,0.5
	l-0.8,0.7l-0.6,0.9l-0.7,0.5l-2.9,0.2l-4.8,2.2l-5.4,0.3l-0.8-0.3l-1.8-1.2l-0.7,0.1l-0.3,1l-0.3,3.3l-0.5,0.7l-0.5,0.5l-0.5,1.2
	l-0.3,1.3v0.9l-0.6,0.4l-0.9,1.2l-0.5,0.4l-1.4,0.2l-1.4-0.2l-1.8-1l-0.7-0.1l-1.9,0.6h-0.7l0.4-1.4l-0.3,0.1l-0.5,0.2l-0.4,0.5
	l-0.3,0.5l-0.3,0.4l-2.7,0.4l-0.5,0.4l-0.4,0.5l-1.2,1.9l0.2,0.6l-0.1,0.1l-0.2,0.1l-0.2,0.5l0.2,1.9l-0.1,0.6l-0.4,0.6l-0.8,0.3
	l-0.3,0.5l-0.2,0.9l0.2,1.9v0.8l-0.4,1.6l-0.7,1.3l-3.1,3.8l-0.3,1l-0.1,1.8l0.1,0.5l0.2,0.3v0.2l-0.5,0.2h-0.4l-0.8-0.4l-1.3,0.4
	l-1.4-0.4l-0.8,0.4l-1.5,1.5l-1.4,0.8l-1.4,0.1l-1.4-0.7l-1.2-1.1H37l-1.4,1.5l-2.1,1l0.7,0.6l0.3,0.1l-0.3,1.1l0.3,0.8l0.7,0.5
	l0.7,0.2l0.4,0.2l0.4,0.9l0.3,0.4h0.4l0.7-0.5l0.3-0.1l0.6,0.3l1.3,1.2l0.7,0.3l0.7-0.3l0.7-0.5l0.5,0.1l0.1,1.5l-1.7,0.6l-4.2,4
	l-1.6,0.6l-1.7-0.1l-3.2-0.7l-0.9,1l-0.9,1.3l-0.5,1.1l-0.2,0.3l-0.5,0.5l-1,0.6l-2.2,0.7l-1,0.6l0.5,0.5l0.1,0.6l0.1,0.6l0.4,0.6
	l1,1.1l1.8,2.5l1,1l1.1,0.6h1.2l0.9,2.3l0.5,1l0.7,0.8l0.7,0.3l1.6,0.3l0.6,0.5l0.3,1.1l0.2,3.2l0.6,1.1l0.8,0.5l2.3,0.3l2.5-0.2
	l0.8,0.2l3,2.3l0.3,0.5l0.1,0.6l0.1,0.6l0.5,0.4l4.5,1.1l0.9-0.2l1.7-1.4l1,0.1l-0.5,0.6l0.1,0.1l0.4-0.1l0.3,0.1l0.3,0.6l0.1,0.3
	h0.2l0.6-0.1l2,0.7l0.7-0.1l-1-2v-0.5l0.3-0.4l1.3-0.7l0.1,0.2l-0.1,0.5l-0.1,0.6v0.8v0.7l0.2,0.3l0.6-0.3l0.4-0.4l0.3-0.6l0.1-0.7
	l-0.2-0.7l0.8-0.4l-0.1-0.4l-0.4-0.3l-0.2-0.3l0.2-0.7l0.3-0.5l0.3-0.4l0.5-0.4l2.3-0.6l0.9-0.6l-0.3-1.2l0.6-0.8l-1.5-1.3l0.3-1
	l-1.4-0.7l-0.1-0.8l0.2-0.1l0.3,0.1l0.2-0.3h0.1l0.3-0.7l0,0l-0.1-0.1l-0.2-0.4l-0.1-0.4l0.1-0.3l0.3-0.2l0.7,0.1h0.3l1.4-1.1l2-3.2
	l1.2-1.2l1.3-0.1l1.4,0.7l2.6,2.2l0.3,0.5l0.4,1.2l0.3,0.2l0.5,0.1l0.3,0.3l0.9,2.5l0.1,1L78,394l-0.7,0.4l1.5,0.8l0.4,0.4l0.2,0.6
	l0.1,0.7l0.2,0.7l0.7,1.1l0.8,1l0.9,0.8l0.9,0.6h0.5l0.3-0.4l0.3-0.5l0.5-0.3l0.5,0.1l0.4,0.3l0.9,0.8l1,1.1l0.2,1.3l-0.4,1.3
	l-0.9,1.2l0.4,0.8l-0.1,0.8l-0.7,1.7l0.6,0.5l1.1,1.4l0.6,0.3l0.2-0.1l0.4-0.7l0.2-0.2l0.3-0.1l0.6,0.3h0.3l3.6-1.3l1.2-0.1v0.1
	l0.2,0.3l0.2,0.3l0.3,0.2H96l1.1-0.4l1-0.2l0.3-0.3l0.2-0.6v-0.6l-0.1-0.5l0.1-0.4l0.6-1l0.3,0.1l0.3,0.5l0.5,0.4l0.6-0.1l0.6-0.3
	l0.6-0.1l0.6,0.5l0.3-0.5l0.9,0.4l1.3,0.1l1.1,0.4l0.5,1.3h0.5l3.2,1.2l-0.3,0.1l-0.8,0.4v0.5l0.7,0.5l0.7,0.1l1.6-0.1l0.6-0.3
	l1.8-1.4l1.3-1.4l1.8-0.9l0.8-1l0.4-1.1l0.4-1.4l0.3-1.5l0.1-1.4l-0.1-2.7l0.3-0.9l0.8-0.3l0.8-0.2l1.8-0.7l1.8-0.2l2.4,0.2
	L128.4,397z M143.8,572.2l0.4-0.1l0.1-0.2h0.3l0.4-0.3l-0.4-0.2l-0.5-0.3l-0.7,0.2l-0.2,0.2l0.2,0.4l0.2,0.1L143.8,572.2
	L143.8,572.2L143.8,572.2z M326.7,634.5l-0.2-0.2v-0.4l0.4-0.3l0.1-0.4l-0.1-0.4l-0.4-0.4H326l-1.1,1.9l-0.9,0.4v0.4l3.5,0.5v-0.5
	l-0.3-0.2L326.7,634.5z M164.8,501.8l-0.1,0.6l0.3-0.5h0.2l0.3-0.1l0.2-0.6l-0.1-0.3l-0.5-0.1L164.8,501.8z M174.3,465.7l-0.1-0.9
	l-0.4-0.8l-0.6-0.8l-0.6-0.6l-0.3-0.3l-0.8,0.1H171l-0.5-0.3l-1.1,1v0.5l0.7,1.2l0.3,0.1l1.2-0.1l0.4,0.1l0.4,0.5l0.9,1.6l0.9,0.8
	l0.4,0.2l0.4-0.2l0.2-0.7l-0.2-0.6l-0.4-0.4L174.3,465.7z M133.9,238.1l0.8-0.9l0.6-1.3l-0.4,0.4l-0.6,0.1l-1.3-0.1l-0.7,0.9
	l-0.2,0.5l-0.2,0.7h1.1L133.9,238.1z M168.8,577.9l-0.1,0.3l0.2,0.3l0.1,0.1l0.2-0.1l0.3,0.3l0.4-0.1l0.2-0.4l-0.5-0.4L168.8,577.9z
	 M187.2,458.3l-0.1-0.8l-0.2-0.8l-0.4-0.4l-1.6-0.9h-0.8l-2.9-0.5h-0.5l-5.4,1.8l-0.7,0.6l0.4,1l0.1,1l-0.2,2.3v1.5l-0.1,1.1
	l-0.2,0.7v0.5l0.8,0.9l1.4,2.8l0.9,0.8l0.1,0.5l0.1,0.5v0.2v0.2l-0.1,0.6v0.2h0.1l0.3-0.1l0.1,0.1l1.4,1.2v0.2l0.6-0.3l0.9-1.3
	l0.6-0.3l0.4,0.3l-0.2,0.7l-0.5,0.6l-0.3,0.3l-0.1,0.3l-0.1,0.6v0.6l0.1,0.4l0.3,0.1l0.3-0.1l0.3-0.2V475l1.1,0.5l0.5,0.1l0.4-0.1
	l2.7-1.6l0.7-0.8l1.5-1.1l0.2,0.1l0.1-0.1v-0.6v-0.5v-0.3l0.1-0.2l0.2-0.2l0.8-0.9l1-0.8l1.1-0.5l1-0.2l1-0.6l1.5-2.8l0.9-1
	l-0.5-0.4l-0.6-0.1l-1.2,0.1l-0.2-0.1l-0.5-0.4l-0.3-0.1l-0.2,0.2l-0.4,0.7l-0.2,0.2l-0.5,0.1l-1,0.3l-0.5,0.1l-0.5-0.1l-0.2-0.4
	l-0.1-0.6l-0.2-0.8l-0.7-0.8v-0.1l-0.1-0.2v-0.4v-0.5v-0.4h-0.2l-0.6-0.3l-0.5-0.4v-0.2L187.2,458.3z M142.3,562h-0.2l-0.4,0.3
	l0.1,0.4l-0.1,0.2v0.5l0.3,0.1v0.2h0.1l0.2-0.1l0.2-0.4v-0.6l0.1-0.5L142.3,562z M170.3,610.4l0.3-0.3v-0.8l-0.1-0.4l-0.1-0.3
	l-0.2-0.5l-0.2,0.1l-0.1,0.8l0.1,0.9L170.3,610.4z M155.9,285l0.1-0.4l-0.4-2.3l-0.3-1l-0.4-1l-0.5-1L154,279l-0.4-0.1l-0.3-0.4
	l-0.2-1.7l-0.3-0.2l-0.4-0.1l-0.4-0.2l-1.3-1.4l-1.3-1.1l-1.4,0.7l-0.1,1.2l0.5,1.3l0.3,1.1l0.3,0.6l1.5,1l0.1,1l0.5,2.1l0.4,1.2
	l2.8,2.6l0.5,1.3l0.4,0.6h0.5l0.3-0.5l-0.1-0.6l-0.3-0.6l-0.4-0.3l0.4-1L155.9,285z M67.6,104.2l0.2,0.3l-0.2,1l0.3,0.4l1.2,2.6h0.3
	l1.8-1.3l-0.2,0.6l-0.3,0.5l-0.3,0.4L70,109h1.2v0.5l-0.5-0.1l-0.4,0.1l-0.3,0.4l-0.2,0.7H71l4-1.1l-2.6,1.5l-1.4,0.5l-1.3,0.2
	l0.1,0.2v0.1v0.1l0.1,0.2v0.5h-0.8l-0.6,0.5L68,114l-0.7,0.6l2,1.5h0.4l0.5-0.5l0.3,1.3l1.1,0.4l2.4-0.1l0.6,0.3l1.1,1.1l0.6,0.3
	h2.4v0.5l-0.3,0.1l-0.8,0.5l0.1,0.3l0.1,0.2l0.3,0.4l-1.3-0.3l-1.3,0.3l-2.1,1.3v0.5l2,1.6l-2-0.1l-1,0.3l-0.5,0.9l-3.4,3.2l-0.2-1
	l-0.2-0.7l-0.3-0.4l-0.5-0.1l-0.7,0.2v0.5l0.3,0.6l0.2,0.6l0.5,0.3l2.5,3.2l0.4,0.2l2.1,2.5l0.3,0.1l0.8-0.8l2.6-1.8l0.9-0.9
	l-0.2-0.2l-0.2-0.2l-0.2-0.2l1.1-0.9l0.5-0.5l0.5-0.8l-0.3-0.3l-0.4-0.6l-0.2-0.2l0.3-0.6l2,1.5l0.9,0.2v-0.5h-0.3v-0.5l0.7,0.1
	l0.8-0.2l0.6-0.4l0.2-0.6l-0.2-0.4l-1-1.8l-0.4-0.3l-0.9-0.4L80,123l0.3-0.6l0.2-0.5l0.2-0.4l0.4-0.3l1.5,0.9L86,123l-0.2-1.7
	l-0.1-0.5l-0.2-0.2l-0.3-0.1l-0.4-0.2l-0.3-0.5l0.3-0.1l0.2-0.2l0.2-0.2l0.2-0.2l-0.4-0.6l-0.4-0.7l-0.5-0.6l-0.6-0.3l-0.5-0.5
	l-0.9-2.4l-0.5-0.9l0.8-0.5l1.2-1.1l1-1.3l0.2-0.9v-0.5h4v0.5l-1.6,0.1l-1.5,0.5l-1.2,1.2l-0.6,2.1l0.1,1.1l0.3,1.1l1.1,2.4l0.3,1
	l0.2,0.4l0.4,0.4l1.3,0.7l0.3-0.5l-0.3-0.5l-0.4-1l-0.2-0.9l0.2-0.4l0.4,0.2l0.2,0.4l0.4,1.1l0.5,0.8l0.6,0.6l0.8,0.2l0.9-0.5v-0.6
	l-0.2-0.2l-0.2-0.2l-0.2-0.1v-0.6l0.8,0.2l0.5,0.3h0.5L93,118l0.4-0.5l0.7-1.3l0.4-0.3v-0.5l-0.6-0.8l-1.5-0.5l-0.7-0.7l-0.9-0.4
	l-0.4-0.3l0.2-0.6h0.2l0.9,0.4l3.9,0.7l1-0.3l0.7-0.7l0.6-0.9l0.8-0.9l-0.5,0.1l-0.5-0.1l-0.5-0.2l-0.4-0.3l0.4-0.1l0.4-0.2l0.4-0.3
	l0.3-0.5l-0.4-0.5l-0.2-0.1l0.1-1l-0.2-1l-0.4-0.8l-0.6-0.4l-0.6,0.1l-1.3,0.8l-5.5,1.3h-1.6v-0.5l0.7,0.1l2.2-0.6l1.2-1.1l0.4,0.1
	l0.6,0.5h0.4l0.6-0.4l1.4-1.8l2.1-0.5l0.7-0.6l-0.2-0.6v-0.4l0.1-0.3l0.4-0.4l-0.5-0.9l-1-2.9h0.6l1.3,0.8l0.7,0.2l1.9-0.2l0.7,0.2
	l1.2,0.9l0.6,0.1l0.8-0.4l0.2-0.2l0.4-0.8l0.3-0.4l0.4-0.3l1.1-0.5l-0.2-0.8l-0.1-0.3l0.2-0.3l0.2-0.5l0.2-0.4h-0.3v-0.5l0.4-0.6
	l-0.4-0.1l-0.8,0.3l-0.6,0.4l-2,2.2l-1.2,0.5l-1.7,0.1l-1.5-0.5L99,94.6h1.2l0.5-0.2L101,94l0.1-0.6l-0.1-0.7l0.1-0.6l1.2-0.5
	l0.4-1.1l0.5-0.3l0.5-0.1l0.3-0.3l0.1-0.5l-0.2-0.7l0.7-0.8l1.9-1.4l0.9-0.5v-0.6h-0.6l-0.6-0.2l-0.5-0.4l-0.4-0.5l1-3.3l0.3-0.5
	l0.8-0.4l-0.1-0.8l-0.8-1.3l-0.2-1.3l-0.5-1.5l-0.7-1.4l-0.9-1l-1-0.1l-1.2,1.2l-2.1,2.7l-7.5,5.8l-1.1,1.4L90.9,84l-2.7,1.4
	l-1.1,0.3h-1.4l-0.3,0.2l-0.3,0.4l-0.3,0.2l-0.5-0.3l-0.9,1.3L80,90.7h0.5l0.3,0.2l0.2,0.4l0.2,0.6h-0.3L80.6,92l-0.2,0.2l-0.2,0.2
	l0.2,0.5l0.2,0.4l0.5,0.7l0.1,0.2l0.2,0.7l0.1,0.2l0.3,0.1l0.6-0.2l0.2,0.1l0.2,0.5l0.2,1.2l0.2,0.5l0.4,0.4l1.1,0.7l-1.1,1.7
	l-0.5-1.2l-1-1L81,97.4l-0.7,0.2l-0.4,0.3L78,98.4l-0.1,0.2l-0.1,0.6l-0.2,0.6l-0.4,0.3l0.2,0.8l0.6,1.4l0.3,0.5l-0.1,1.1v0.4
	l0.1,0.7l-0.6-0.8l-0.6-1.5l-0.4-1.7l0.1-1.2l-0.5-0.6l-0.9-1.4L75,96.7l1.3,0.1v-0.5L74,95.2l-0.3,0.3l-0.3-0.1l-1.6-0.9L71,94
	l-0.8,1L70,95.5l-0.1,1l0.2,1l0.4,0.4l1.1,0.5l-0.9,0.4L67.6,99v0.5l0.2,0.1l0.3,0.3l0.3,0.1l-0.2,0.4l-0.1,0.3l-0.2,0.2l-0.4,0.1
	v0.8l-0.5,0.7l-0.1,1l0.2,0.4L67.6,104.2z M69,122.9h0.6l0.4-0.2l0.3-0.5l0.2-0.9l1.5,1l0.5-0.3v-1.7l-0.8-0.5l-0.9,0.4l-1.7,1.7
	L69,122l0,0v0.2V122.9z M52,147.2l0.5,0.3l0.3,0.1l0.3-0.2l0.3-0.4l0.3-0.5l1.3,0.3l2.5,1.7l1.4,0.1l-0.8,0.5h-0.4l0.3,0.4l0.2,0.4
	l0.1,0.4l0.5,0.9l0.2,0.2l0.4,0.3l0.7,0.2l1.5-0.1l0.7,0.5l0.7-0.6l0.9-0.2l1.8,0.1l0.9-1.6l0.1-0.5l-0.2-0.5l-0.3-0.3l-0.7-0.3
	l-0.8-0.1l-2.5,0.7h-3v-0.6l1.8-1.5l0.5-0.2l0.2,0.3l0.4,1l0.3,0.3h0.3l0.6-0.4l0.3-0.1l2.5-0.2l1-0.7l0.8-1.7l-1.4,0.5h-0.7
	l-0.3-0.7l-0.1-1.1l-0.4-0.4l-1.2,0.1V143l0.3-0.5v-0.3l-0.3-0.2h-0.5v-0.6h1.9l1,0.9l0.5,0.2l0.3,0.3l0.3,0.6l0.4,0.5l0.6,0.1
	l0.3-0.3l0.7-1.3l0.4-0.4l-0.4-1l-0.8-0.5h-0.9H67l-0.6-0.4l-1.3,0.7l-0.7-0.4l0.7-0.5l0.3-0.7l-0.2-0.7l-0.5-0.7l-1.2,0.2l-2,1.5
	l-0.9,0.4l0.6,0.5l0.3,0.1v0.5l-0.9-0.1l-2.3-1l0.4-1l0.2-0.3l0.3-0.3V138l-1,1l-1.3,1.9l-1.3,1.3l-0.8-1l0.8-0.5h0.3v-0.5l-2.9,0.5
	l-0.9-0.5l-0.7,1.3l-0.6,1.6l-0.7,1.3l-1,0.7v0.5L51,147L52,147.2z M65.2,135.9L66,135l-0.4-0.8l-0.8,0.2l-1.8,2l1,0.1L65.2,135.9z
	 M105.5,232.3l2.2-0.1l-0.4-0.9l-1.3-1.1l-0.6-0.7h-0.6l-0.5,0.3l-0.5,0.5l-0.4,0.7l1.1,1L105.5,232.3z M78.7,231l0.9-0.2l0.8-0.7
	l0.1-1.3l2.5-0.3l0.6-1l-0.5-1.3l-1.1-0.1l-2,0.9l-0.9,0.2l-1.6,1l-0.9,0.3l-2.8,0.5l-0.9,0.5l0.4,1.3l0.2,1.2l0.4,0.9l2.6,1.2h0.9
	l-0.2-1.4l0.8-1.3L78.7,231z M77.7,95.4l0.5,0.3v0.5h-0.1h-0.4v0.5h3.4L80.9,96l-0.3-0.6L80.3,95L80,94.6l-0.4,0.3l-1.4-1.6
	l-0.8-0.4l-0.3,0.8l0.2,0.9L77.7,95.4z M52.3,196.1L53,196l0.7-0.3l0.4-0.5l-0.2-0.7l0.3-0.2l0.3-0.3l0.3-0.4l0.3-0.5l0.4-0.3h1.2
	l-0.4-0.4l-0.2-0.6l-0.1-0.6l-0.2-0.5l-0.4-0.3l-1.4-0.7l0.3-0.3l0.6-1.3l-0.2-0.2l-0.2-0.2l-0.2-0.1H54l-0.3-0.4l-0.1-0.1h-0.2
	l-0.3,2.1l-0.8,0.7l-1,0.2l-1,0.8l0.4,0.6l0.1,0.9l-0.2,0.8l-0.5,0.4l-0.7,0.3l-0.5,0.7v0.7l0.6,0.3L52.3,196.1z M100.3,689.7
	L100.3,689.7l-0.3-0.3h-0.3v0.5l0.3,0.7l0.4,0.2l0.3-0.5l-0.1-0.5L100.3,689.7z M60.7,173.7l0.8-0.4l0.3-0.6l0.4-1.6l0.2-0.7
	l0.5-0.6l0.5-0.3l0.4-0.4L64,168l-0.7,0.1l-0.5-0.4l-0.4-0.6l-0.5-0.5l-0.7-0.2h-1.3l-0.6-0.3l-0.5-0.9l-0.2-0.2l-1-0.5l-0.3-0.1
	h-0.4l-0.3-0.2l-0.1-0.7l-0.1-0.3l-0.2-0.4l-0.3-0.3l-0.3-0.2l1-0.5l0.8,0.8l0.8,1.2l1.7,1l0.8,0.8l0.9,0.4l1.2-0.6v-0.5l-0.9-0.1
	l-1.3-1.3l-0.9-0.2v-0.5l0.8,0.3h0.3l0.4-0.3l-3.8-2.7H57l-1.9,1l-0.8,0.6l1.1,3.5l0.5,2.4l-0.3,1.1l-0.5,0.2l-0.2,0.5l-0.1,0.7
	l-0.2,0.8l-0.6,1.5l-0.3,0.5l-0.5,0.6l0.6,0.2l0.5,0.4l0.7,1v0.5l-0.2,0.9l0.2,1.3l1.1,4.1l0.4,0.8l1.2,1.5l1.3-0.8l3.5,0.7l1-1
	v-0.5l-0.8-0.1l-0.5-0.6l-0.5-0.8l-0.7-0.6l-0.6-0.1l-1.5,0.2l-0.7-0.1V180l1.6-0.1l0.8,0.2l0.7,0.5l0.5-0.9l0.1-1.5l-0.2-1.6
	l-0.4-1.2l-0.7-0.8l-2.7-0.8v-0.5L60.7,173.7z M99.5,689.8l-0.2-0.2l-0.2,0.1L99,690v0.3l0.1,0.2v0.2v0.1h0.2l0.2-0.4L99.5,689.8z
	 M101.8,691.3l-0.4,0.5l-0.1,0.9l0.5,0.3l0.4-0.3l0.1-0.6l-0.3-0.6L101.8,691.3z M61.1,154.5L61.1,154.5l0.1-0.4l-0.5,0.1h-0.4
	L60,154l-0.3-0.4l-0.5,0.5l-0.5,0.1l-0.5-0.2l-0.5-0.4l-1,0.1l-0.8,0.7l-0.6,1.2l-0.2,1.5l0.5,0.9l3.3,2l1.1,0.3l3.6-1.1l0.1-0.5
	l-0.3-0.5l-0.6-0.3h-1l-0.4-0.3l-0.2-0.8l0.8-0.1l1-0.9l0.6,0.3l0.3-0.5l-1.2-0.9l-0.3-0.1l-0.4,0.1l-0.4,0.2h-0.3l-0.4-0.3
	L61.1,154.5L61.1,154.5z M102.7,689.4h-0.2h-0.2l-0.2-0.2l-0.2-0.3h-0.1l-0.3,0.3l0.1,0.2l0.6,0.5h0.5l0.4-0.4l-0.2-0.2L102.7,689.4
	z M4.8,127.1l-0.7-0.5l0.4,1.6l0.8,0.6l0.9-0.2l0.7-0.9l-0.7-0.4L4.8,127.1z"/>
<circle class="st1" cx="297.5" cy="487.1" r="11.5"/>
</svg>
