<?xml version="1.0" encoding="utf-8"?>
<!-- Generator: Adobe Illustrator 26.5.0, SVG Export Plug-In . SVG Version: 6.00 Build 0)  -->
<!DOCTYPE svg PUBLIC "-//W3C//DTD SVG 1.1//EN" "http://www.w3.org/Graphics/SVG/1.1/DTD/svg11.dtd" [
	<!ENTITY ns_extend "http://ns.adobe.com/Extensibility/1.0/">
	<!ENTITY ns_ai "http://ns.adobe.com/AdobeIllustrator/10.0/">
	<!ENTITY ns_graphs "http://ns.adobe.com/Graphs/1.0/">
	<!ENTITY ns_vars "http://ns.adobe.com/Variables/1.0/">
	<!ENTITY ns_imrep "http://ns.adobe.com/ImageReplacement/1.0/">
	<!ENTITY ns_sfw "http://ns.adobe.com/SaveForWeb/1.0/">
	<!ENTITY ns_custom "http://ns.adobe.com/GenericCustomNamespace/1.0/">
	<!ENTITY ns_adobe_xpath "http://ns.adobe.com/XPath/1.0/">
]>
<svg version="1.1" id="Eskett_Red" xmlns:x="&ns_extend;" xmlns:i="&ns_ai;" xmlns:graph="&ns_graphs;"
	 xmlns="http://www.w3.org/2000/svg" xmlns:xlink="http://www.w3.org/1999/xlink" x="0px" y="0px" viewBox="0 0 445.6 744.1"
	 style="enable-background:new 0 0 445.6 744.1;" xml:space="preserve">
<style type="text/css">
	.st0{opacity:0.25;fill:#B19686;}
	.st1{fill:#B19686;}
</style>
<metadata>
	<sfw  xmlns="&ns_sfw;">
		<slices></slices>
		<sliceSourceBounds  bottomLeftOrigin="true" height="737.3" width="437.3" x="376.6" y="-789.8"></sliceSourceBounds>
	</sfw>
</metadata>
<path class="st0" d="M267.4,723L267.4,723l-0.3,0.3l-0.1,0.3l-0.1,0.2l0,0.3l0.1,0.4l-0.1,0.3l-0.1,0.4l0.2,0.1l0.4-0.4l0.4-0.6
	l-0.1-0.8L267.4,723z M274.8,705.9l0.7-0.8v-0.4l-0.2-0.2l-0.2,0l-0.7,0.4l-0.4,0l-0.6,0.4l-0.3,0.7l0.4,0.3l0.7-0.2L274.8,705.9z
	 M282,737.5l-0.2-0.3l0.1-0.6l-2-1l-0.6-0.6l-0.6,0l-0.3,0.1l-0.3,0.3l-0.5-0.3l-0.9-0.2l-0.3-0.3l-0.5,0.4l-0.4,0.3l-0.4,0.1
	l-0.6,0l-0.8-0.4l-0.6-0.2l-0.5,0.2l0,0.8l0.4,1.3l0.3,1.4l-0.3,1.4l0.4,0l0.9-0.4l0.1-0.1l0.4,0.2l0.5,0.6l0.4,0.1l0.3-0.8l0.3-0.6
	l0.3-0.4h0.3l0.4,0.2l0.4,0.2l1,1l0.7,0.3l1.3,0l0.4,0.2l0.4,0.3h0.3l0.1-0.6l0-0.7l0-0.5l0.2-0.4l0.4-0.3l-0.2-0.2L282,737.5z
	 M260.1,718.9l-0.9,0.7l-0.9,0.4l-1.9,1.8l-0.6,0.1l-0.5,0l-0.3,0.3l0.2,0.9l-0.5,0.1l-0.3,0.3l-0.1,0.3l0.2,0.2h4.1l0.3,0.1
	l0.3,0.1l0.3,0l0.4-0.3l0.3-0.3l0-0.2v-0.3l0.3-1l0.2-1.4l0.7-1.2l0.2-0.6l-0.7-0.6L260.1,718.9z M263.6,720.7l-0.1,0.4l0,0.6l0,0.3
	l0.3-0.8l-0.1-0.6L263.6,720.7z M165.7,408.8l-0.1,0.1l-0.2,0.1v0.5l1,0.3l0.9-0.6l0.8-0.8l0.9-0.4l0.6,0.2l0.8,1l0.6,0.2l0.6-0.2
	l0.5-0.3l0.4,0.1l0.4,0.9l0.6-1.9l0.3-0.5l0.5-0.3l0.7-0.2l0.6-0.3l0.3-0.6l0.6-0.8l2.3-1.5l0-0.9l1.2-1.1l1.4-0.8l0.9-1.1l-0.4-2
	l1.2-0.7l0.3-0.3l0.2-0.5l0.2-0.7l0.3-0.6l0.3-0.2l0.6-1.3l0.2-0.2l0.4-0.3l-0.1-0.6l-0.3-0.6l-0.2-0.4l-0.3-0.2l-0.8-0.1l-0.3-0.2
	l-0.2-0.5l-0.3-1.2l-0.2-0.5l-0.1-1l0.9-2.7l0.2-1l-0.7-0.4l-0.8,0.2l-0.8,0.4l-1.6,0.4l-2.2,1.4l-1.5,1.4l-1,1.9l-1.8,4.5l-0.6,0.8
	l-1.3,1.2l-0.9,1.1l-1,0.7l-0.9,0.2l-0.1,0.3l0,0.5l-0.1,0.7l-0.4,1.1l-0.2,0.9l0,2.2l-0.4,1.3l-1.4,2l0,1.4l-0.3,0.1L165.7,408.8z
	 M163.7,410.2l-0.1,0.4l0.3,0.5l0.3-0.1l0.2,0.2l0.2-0.4l0.3-0.8l-0.4-0.1L163.7,410.2z M111.7,164.7l-0.1,0.3l-0.1,0.2l-0.1,0.6
	l0.7,0.5l0.7-0.3l0.7-0.5l0.7-0.3l0.7-0.6l-0.2-1.3l-0.6-1.3l-0.3-0.6l0-2.4l0.6-2.7l0.7-2.3l0.2-1.2l-0.2-0.4l-0.3-0.3l-0.3-0.2
	l-0.4-0.1l0.6,1.1v0.6l-0.9-0.5l-0.4,0l-0.5,0.5l0.3,0.8l0.2,0.4l0.3,0.4v0.5l-1.2,0.2l-0.7,0.6l-0.3,1.3l-0.3,5l0.1,1.3
	L111.7,164.7z M107.7,145.1l-0.4-0.8l-0.8-1l-1.9-1.6l-0.1-0.4l-1-1.8L103,139l-1-0.8l-0.4-0.5l-0.4-0.8l-0.1,0.3l-0.1,0.1l-0.3,0.1
	l-0.5-0.2l-0.3,0.5l-0.2,1l-0.4,0.9l-0.3,0.3l-1.7,1.1l-0.3,0.1l-0.1,0.3l0,0.9l0.2,0.5l0.4,0.5l0.2,0.6l-0.2,1.1l0.3,0.3l0.4,0.2
	l0.5,0.1l0.5-0.1l-0.5,1.6l-0.6,0.8l-0.2,0.8l0.7,1.6l1.4,1.7l0.6,1l0,1.1l0.2,0.3l0.2,0.5l0.2,0.3v0.5l-3.2-4.3l-0.6-0.3l-0.5,1.5
	l-0.9,1.2l-0.4-0.1l1-2.3l-0.7,0l-0.6,0.3l-0.6,0.1l-0.6-0.7l-0.5-0.7l-0.5-0.4l-2-1.1l-0.3-0.2l-0.4-0.5l-0.1-0.5l-0.1-0.7
	l-0.2-0.6l-0.9-0.6l-0.5-0.7l-0.6-0.6l-0.9,0v0.6l0.5,0.7l-0.1,1.1l-0.4,1.2l-0.6,0.8l1,0.3l1.3,0.8l1.1,1.2l0.4,1.4l-1.2-0.6
	l-0.7-0.1l-0.3,0.4l-0.1,0.3l-0.4,0.2l-0.1,0.3l0.1,0.3l0.4,0.6l0.1,0.3l0.1,0.2l0.7,0.9l-0.2,0.1l-0.2,0.2l-0.2,0.2v0.5l0.2,1
	l-0.6-0.1l-0.8-0.6l-0.4-0.5l-0.3-0.7l-2.2-3.3l-0.4-0.3l-0.4,0.2l-0.6,0.9l-0.3,1l0.1,0.9l0.4,0.8l0.6,0.7h-2.6l0.5,1.8l1.7,1.3
	l0.4,2l0.3,1.1l0.8,0.9l1,0.7l3.9,1.3l0.7-0.6l0.1-0.9l-0.5-1.4l0.1-0.9l0.4-0.6l0.5-0.2l0.5-0.3l0.3-1l0.4,0.6l0.2,0.7l0,0.7
	l-0.2,0.7l0.6-0.4l0.8-1.1l0.6-0.2l-0.2,0.9l0.1,0.6l0.3,0.4l0.4,0.2l-0.1,0.3l-0.1,0.1l-0.3,0.1l0.8,0.5l0.3,0.1v0.6l-0.6,0.5
	l0.5,0l0.9-0.4l0.5-0.1l0.5,0.1l0.3,0.2l0.5,0.7l2.6,2.2l0.6,1l-1.1-0.3l-0.9-0.8l-0.8-0.9l-0.7-0.7l-0.9-0.2l-0.8,0.4l-1.9,1.4
	l0.1,0.5l0.2,0.3l0.2,0.2l0.2,0.3l0.1,0.3l0.2,0.7l0.1,0.3l2,2.7l0.7,0.2l1.9-0.2l-0.3,0.6l-0.3,0.4l-0.4,0.3l-0.5,0.2l0.6,1.4
	l0.8,1.3l0.7-0.5l0.7-0.4l0.7-0.2l0.8,0v0.5l-1.3,1.7l-0.5,0.4v0.6l5.9-1.6l0.7-0.5l-0.6-0.6V176l0.4,0.1l0.4,0.2l0.3,0.3l0.3,0.5
	l0.3-0.4l0.2-0.2l0.2,0.1l0.3,0.4l0.1,1.2l0.2,1.6l0.2,1.4l0.5,0.6l0.6-0.3l0.4-0.8l0.4-0.9l0.5-0.6l-0.3-0.6l0.4-0.4l0.3-0.5
	l0.4-1.1l-0.5-1.2l-0.2-0.6l-0.2-0.8l0.5,0.3l0.5,0.7l1,1.7l0.1,0.4l0,0.5l0.1,0.5l0.2,0.2l3.6-0.1l1.2-0.4l1.2-0.6v0.5l-4,2.1
	l-0.5,0.5l-0.4,0.5l-0.8,1.5l-0.3,0.4l-0.1,0.3l-0.2,0.7l-0.1,0.2l-0.3,0.2v0.5l0.1,0.7l-1.1,1.7l-0.1,1.3l0.4,1l0.6,0.3l2.2-0.4
	l0.8-0.5l0.7-0.7l2.5-3.5l0.3-0.6l0.4-0.4l0.9-0.5l0.9-0.7l0.4-1.1l0.1-1.7l0.3-0.5l1.7-0.2l0.6-0.3l1.5-1.3l0.9-1.2l0.3-0.6
	l0.2-0.8l-0.2-0.8l0-0.5l0.7-1.9h-3.1l-0.7-1l-1.2,0l-1.2,0.4l-1.2,1.2l-1.7-0.1l-0.2,0.3l-0.3,0.5l-0.4,0.4l-0.6-0.1l-0.3-0.4
	l-0.3-0.7l-0.4-0.7l-0.6-0.3l-1.1,0.1l-0.6-0.1l-0.4-0.3l-0.9-1l-0.9,0.1l-0.9,0.5l-1.1,0.1v-0.5l1.1-0.5l0.5-0.7l-0.2-0.6l-1-0.3
	l-3.6,0.5l0.6-0.5l1.4-0.9l0.3-0.7l-0.3-0.6l-0.6-0.6l-0.6-0.8l-0.2-1.3l0.3-0.5l0.4-0.6l0.2-0.7l-0.4-0.8l-0.6-0.2l-0.7,0.3
	l-0.7,0.5l-0.5,0.5l0.4-0.7l1.1-1.1l0.2-0.6l0.1-1.1l0.4-1.8l0.1-1.2l-0.1-1.1l-0.4-2.3l-0.4-5.4L107.7,145.1z M115.7,151.4l0-1.3
	l0.5-3l-0.3-0.4l-0.3,0.1l-0.3,0.3l-0.3,0.5l0.1,0.3l0,0.1l0.2,0.2l-0.5,1l-0.1,1l0.3,0.8L115.7,151.4z M121.6,23.3l0.5-0.3
	l-0.1-0.1v-0.4l0-0.3l-0.2-0.1l-0.2,0l0,0.1l0,0.4l-0.3,0.2l-0.1,0.2l-0.1,0.2l-0.1,0.2l0,0L121.6,23.3z M114.8,166.4l-1,0.6
	l0.3,1.1l1,1l1.1,0.5l1.4-0.6l-0.2-1.2l-1.1-1.1L114.8,166.4z M111.9,219.6l0.1-0.3l-2-0.6l-0.6-0.4l-1.4,0.2l-1.7,0.5l-1.2,1
	l-0.1,1.5l-0.3,0.3h-0.4l-0.4-0.3l-0.4-0.6l-0.7,0.6l-0.7,0.3l-1.5,0.1l0.3,0.9l0.9,1l0.3,0.7l-2,1.5l0.6,0.6l0.7,0.5l0.8,0.4
	l3.9,0.7l0.9,0.5l0.5,0.6l0.4,0.7l0.7,1.6l0.4,0.4l0.4-0.1l0.4-0.3l0.3-0.2l0.9-0.1l2.7-1.4l0.4,0.5l0.2,0.6l0,0.7l-0.2,0.8
	l-0.5,0.4l-2.5,1.2l-1.5-0.2l-0.4,0.2l-0.4,0.5l-0.2,0.5l-0.1,0.5l-0.6,1.6l-0.3,0.4l-0.6,0.1l-0.5,0.2l-0.4,0.6l-0.2,0.8l0.2,0.8
	l0.8,0.7l1,0.1l2-0.5l2.5-1.4l0.8-0.2l0.3,0.4l-0.8,0.8l-1.9,1.4l-2.9,0.6l-0.7,0.7l-0.7,0.3l-1.9-0.4l-0.8,0.3l0.2,0.2l0.1,0.2
	l0.2,0.1l0.3,0.1v0.5l-0.8,0.5l-0.6-0.7l-0.6-1.1l-0.7-0.8l-0.8-0.1l-1.1,0.2l-0.9,0.6l-0.4,1.1l0.3,1.4l0.6,1.2l0.8,0.8l1.2,0.7
	l0.9,0.3l0.5,0l0.4-0.2l0.3-0.5l0.2-0.5l0.2-0.2h3.9l0.4-0.2l1-0.7l0.4-0.2l0.5,0.2l0.5,0.3l0.5,0.2l0.5-0.4l0.7-0.8l3.3-1.7
	l1.4-0.3l0.4-0.2l0.3-0.5l0.2-0.5l0.2-0.2l1-0.4l0.5,0l0.3,0.4l-0.1,0.7l-0.4,0.6l-0.5,0.5l-0.3,0.2l1.3,0.9l1.7-0.4l3.7-2.6
	l0.7-0.9l0.3-0.8l-0.7-0.4l-1.6,0.2l-0.8,0.3l-0.7,0.5v-0.6l1.4-1.2l0.5-0.9l-0.1-1l0.3,0l0.3,0l0.3,0.1l0.3,0.3l-0.1,0.8l0.6,0.3
	l1.4,0l0.5-0.5l-0.3-1.1l-0.6-1.1l-0.4-0.5l0.8,0.1l0.3,0.1l0.4,0.3l0.2-1.5l-0.4-0.3l-0.6,0.2l-0.3-0.2l-0.2-0.9l-0.5-0.9l-0.6-0.7
	l-0.5-0.4l-0.3,0l-0.8,0.1l-0.4-0.1l-0.4-0.3l-0.9-1.5l-0.3-0.2l-0.4-0.1l-0.4,0.1l-0.6,0.4l-0.3-0.3l-0.3-0.5l-0.3-0.3h-4.2
	l-0.4-0.2l-0.1-0.4l0-0.5l-0.1-0.5l-1.7-4.1l-1-1.5l-1.3-0.1l0.1-0.3L111.9,219.6z M91.3,187.9l1.4-0.2l1.1-0.6l-0.5-0.4l-1-0.3
	l-0.5-0.4l-0.8,0.2l-1.5,0.9l-0.6,0.6l1.1,0.3L91.3,187.9z M86,223.2l-1.1,0.2l0.2,0.7l0.4,0.9l0.4,0.4l0.2-0.8l0.2-0.7l0.5,0l1,0.5
	l0.7-0.2l2.2-1.8l1.6-2.1l0.5-0.1l0.4-0.2l0.3-0.3l0.3-0.4l0.3-0.6l0.6-1.5l0.4-0.8l0.3-0.8l-0.4-0.2l-1.1,0.2l-0.7,0.3l-1.3,1.1
	l-1,0.4l-1.4,1l-0.5,0.6l-1.9,3.1L86,223.2z M108.9,295.2l1.1-0.6l1-0.9l0.8-1.2l0.3,0.6l0.2-0.6l0.3-0.4l0.4-0.3l0.5-0.3V291
	l-0.2-0.6l-0.1-0.7l0-0.9l0.1-0.9l-0.7-0.3l-0.3-0.3l-0.2-0.4l0.1-0.5l0.2-0.7l0.1-0.6l-0.2-0.3l-0.4-0.3l-0.6-0.6l-0.6-0.8
	l-0.3-0.7l-0.1-2.3l-0.6-4.2l-0.2-3.2l-0.1-0.5l-0.3-0.3l-0.4-0.1l-0.4,0.5l-0.6,0.5l-0.6,0.4l-0.6,0.2l-0.5,0.3l-1,1.4l-1.5,0.9
	l-1.4,1.4l-0.9,1.7l0.3,1.5v0.5l-0.5-0.2l-0.3-0.5l-0.3-1.3v-0.5l0.5-2.1l0.3-0.5l-0.6-0.2l-0.5,0.4l-0.5,0.6l-2.3,1l-1.5,1.1
	l-0.3,0.6l-0.1,0.9l-0.1,1.2l-0.2,0.7l-0.3,0.5l-0.6,0.5l1.4,1l-1.9,2.8l-0.5,1.2l0.2,0.1l0.2,0.3l0.2,0.1l-0.5,1.3l0,1.2l0.5,0.7
	l1.2-0.2l0.5-0.6l1.3-2l1.3-0.9l0.6-1.2l1-2.6l0.9-0.7l1.2-0.2l1.2,0.2l0.9,0.5l-1.9,1.9l-1.1,1.4l-0.2,1.3l0.4,0l1.7,0.8l0.5,0.6
	l0.9,2.6l-2.3,1.3l-0.9,1.1l-0.2,1.7l0.6,1.7l1,0.4l1.1-0.4l1.1-0.9l0.4-0.5l0.2-0.3l0.3-1.6l0.5-0.3l1.8,0.3L108.9,295.2z
	 M222.9,43.3l0.4-0.1l0.4,0.3l0.2,0.1l0.5-0.5l0.3,0.1l0.2,0.5l-0.1,0.4l-0.2,0.4l0,0.5l0.9,1.7l0.4,0.4l0.5,0.4l0.4,0.5l0.2,0.7
	l0.8,2.1L228,51l3.9,0l2.1-0.6l1-1.6l-1.2-0.1l-2.5,1.2l-1.3,0.1l0.5-1.1l0.9-0.7l1-0.4l0.8-0.1v-0.5l-0.6-0.8l-0.4-0.2l-0.5,0v-0.6
	l0.6-0.5l-2.2-3.5l-0.8-0.5l-0.9-0.3l-1.4-1.4l-0.6-0.4l-0.5,0l-1.8,0.7l-1,1l-0.1,0.3l-0.6,1.6l0.1,0.8L222.9,43.3z M106.1,259.7
	l-0.3,0.3l-0.3,0.4l-0.9,1.2l-0.4,0.9l-0.2,1l-0.3,0.9l-0.7,0.5l0.9,0.5l1.2,0l1.1-0.3l0.8-0.6l-0.1-1.3l0.5-1.5l1.4-2.3l-0.2-0.9
	l-0.5,0l-0.7,0.3l-0.7,0.1l0.1,0.5l0.1,0.2l0.1,0.3l-0.3,0.3L106.1,259.7z M131.6,244l0.2-0.9l-0.6,0.3l-1-0.2l-0.5,0.4l-0.6,1.5
	l0.3,1.2l0.8,0.5l1-0.6l-0.3-1l0.2-0.6L131.6,244z M106.3,321.6l0,0.4l-0.1,0.6l0.3-0.5l0.4-0.8l0.3-0.9l-0.1-0.8l-0.4-0.2l-2.2-0.3
	l-0.6,0.1l-0.5,0.2l-0.5,0.3l-0.5,0.4l1,0.2l1-0.1l1,0.1l1,0.8l-0.2,0.3L106.3,321.6z M128.4,250.9l0.8,2.1l0.4,0.5l0.4-2.4l0.4-1.1
	l0.3-1.1l-0.1-1.1l-0.2,0.4l-0.2,0l-0.2-0.2l-0.2-0.3l-0.5,0.6l-0.5,1.8L128.4,250.9z M103.8,189.5l-0.9-1.1l-2.2-1.4l-1.6,0.2
	l-1.3,1.1l-2.5,2.9l0.8,0.4l1.3,1.4l0.6,0.3l0.6,0.4l0.7,1.8l0.8,0.4l1.6-0.2l1.2-0.7l0.8-1.6l0.6-2.8H103v-0.6L103.8,189.5z
	 M253.8,17.5L254,17l0.1-1.1l0.7,0.2l0.9-0.9l1.6-2.2l0.3,0.4l0.3,0l0.8-0.5v0.6l-0.1,0.3l-0.2,0.9l1.8-2.2l0.7-0.1l0.1,1.8l0.4-0.3
	l0.3-0.5l0.8-1.9l0.4-0.4l0.3-0.9l0.8-0.4l2-0.1l-0.1-0.8l-0.4-1.8l-0.3-0.2l-0.6,0.7L263.9,9l-0.6,0.2l-0.7,0L262,9.3l-1.1,1.2
	l-1.4,0.3l-0.5,0.5l-0.1-0.3l-0.1-0.1l-0.3-0.1l1.1-1.3l0.6-0.6l0.6-0.4V7.9L259.7,8L258,9l-1,0l0.6,0.9l0.2,0.2l-0.2,1.1l-0.3,0.3
	l-0.4,0l-0.5,0.3l-0.4,0.5l-0.7,1.3l-0.4,0.5l-0.5,0.4l-0.4,0.2l-0.3,0.4l-0.2,1.2l0,0.9L253.8,17.5z M247.8,18.7l0.6,0.2l0.5,0.5
	l0.4,0.8l0.2,1.1l0.3,0.3l0.7-0.1l1.2-0.5v-0.6l-0.7-0.1l-0.3-0.7l-0.1-1.1v-1.3l0.2-0.4l0.9-1.4l0.3-0.7l-0.3-0.8l-0.4-0.4
	l-0.5-0.1l-0.6,0.1V13h0.3v-0.6l-0.7-0.1l-0.4,0.5l-0.2,0.8l0.1,1l-0.1,0.5l0.2,1.4l0,0.3l-0.5,0.2l-0.4,0.3l-0.4,0.1l-0.5-0.5V18.7
	z M256.9,24.3l0.6,0.9l0.1,1.9l0.9-0.6l1.8-0.3l0.7-0.8l-1.2-0.8l-0.3-0.5l0.3-0.9l0.1-0.1l0.1,0l0.1-0.1l0-0.4l-1,0.6l-0.6,0.2
	l-0.5-0.1l-0.5-0.7l0.1-0.7l0.4-0.5l0.5,0.2l-0.4-0.4l-0.5-0.1l-1.2,0l0.1-0.3l0.1-0.3v-0.5l-0.6-0.1l-1.7,0.6l0.4,0.3l1.3,1.4
	l0.3,0.5l-0.2,0.9l-0.5,0.3l-0.7,0.1l-0.6,0.3l-0.9,1.6l0.7,0.6l0.9-0.3l-0.1-1.3l0.7-0.6L256.9,24.3z M244.3,48.4l1.2-0.8l0.1-1
	l-1-0.5l-1.9-0.2l-1.9,0.4l-1.6,0.7v0.5h2.9v0.6l-0.5,0.4l-0.5,0.1l-0.5-0.1l-0.5-0.4l1.3,2.1l0.4,1.2l-0.6,0.6v0.6l2,2.2l0.9-0.6
	l0.3-0.8l-0.2-1.1l-0.5-1.4l0.5-0.5l-0.1-0.5l-0.2-0.5l0.1-0.7L244.3,48.4z M237.8,6.6l0.4,0l0.4,0.3l0.4,0.6l0.1,0.4l0.1,0.5
	l0.6,1.7l0.2,0.4l0.3,0.3l0.4,0.3l0.3,0.1l0.3-0.2l0.3-0.7l0.6,0.6l-0.4-0.9l-0.2-0.3V9l1.2,0.2l1.1,0.7l2.1,2l-0.3,0.5l-0.2,0.5
	l-0.1,0.6l-0.1,0.7l1-1.4l0.5-0.4l0.8,0v-0.5l-0.4-0.6l-0.4-0.1l-0.4-0.1l-0.5-0.3l-0.2-0.5L245,8.2l-0.6-0.3l-3.3-1V6.3l0.3,0.1
	l0.9-0.1l-0.2-0.7l0-0.4l0.5-0.6l0.1-0.1l0.1,0l0.1-0.1l0-0.4l-0.8-0.6l-0.6,0.5l-1.2,1.7L239.6,6l-1.3-0.3l-0.9,0l0.2,0.8
	L237.8,6.6z M116,282.3l0.3-1.1l0.4-2.9l0.3-0.6l0.7-0.4l1-1.3l0.4,0.2l0.9-3l3.5-7l1.7-4.2l0.8-0.9l0.6-1.1l0.7-0.7l0.1-0.9l-0.1-1
	l-0.2-0.7l-0.9-0.4l-1.3,0.9l-2.2,2.2l-3.2,3.2l-1.3,0.4l-0.9,0.7l-1.3,1.6l-1.2,1.9l-0.5,1.7l0.6,1.2l1.4,0l1.5-0.4l1,0l-1.4,1.2
	l-3.3,0.6l-1.2,1l-0.7,0.7l-0.7,0.4l-0.6,0.5l-0.4,1.2l-0.1,1.3l0.4,3.6l0.7,1.9l1.5,1l1.6,0.1L116,282.3z M227,36.5l1.4,0.5v-0.5
	l1-1l0.4-0.7l-0.2-1.1l-0.1-0.1l0-0.6l-0.1-0.5l-0.4-0.3l0.4-0.3l0.4-0.1l0.4,0.1l0.4,0.3v-0.6l-0.3-0.5l0.1-0.5l0.3-0.4l0.5-0.3
	l0.1,0.6l0.2,0.6l0.2,0.5l0.3,0.5v0.5l-0.7,1.1l-0.5,1.5l-0.1,1.8l0.4,1.8l1.1,1l2.5-0.4l1,0.4l0.2-0.9l0.5-0.3l1.3,0.1l-0.6-1.2
	l0.5,0.1L238,38l0.4,0.1l0.4-0.3l0.8,0.2l0.7-0.7l0.6-0.8l0.5-0.1l0.3,0.5l1.5,3.3l0.4,0.7l0.5,0.5l3.2,1.3l0.7,0.1l0.7-0.5l1-1.8
	l0.6-0.4l1.6-0.4l0.8-0.4l0.3-0.6l0-1.2l-0.1-0.9l-0.3-0.6l-0.6-0.3l-0.7,0.1l-1.4,1l-0.8,0.1l0.3,0.6l0.6,1.7l-0.8,0.2l-0.7-0.2
	l-0.6-0.7l-0.5-1.1l0.6-0.7l1.7-1.3l0.3-0.8l-0.2-0.5l-0.4-0.2l-1,0.1l-0.8,0.3l-0.7,0.6l-0.7,0.4l-0.9-0.2l0.1-0.4l0.1-1l0.1-0.4
	l-0.7,0.6l-0.5-0.5l-0.5-0.8l-0.7-0.4l-0.6,0.3l-0.6,0.5l-0.6,0.2l-1.6-1.5l-0.7,0.6l-0.7,1l-0.6,0.5l-1.6-0.2l-0.8-0.3l-0.6-0.6
	l0.7-0.3l1-0.9l0.8-1.2L238,29l0.4,0.2l2.5-1l-0.2-0.1l-0.2-0.2l-0.2-0.2l0.1-0.3l0.1-0.1l0.3-0.1l-2.4-1.4l-0.8-0.9l0.3-0.1
	l0.6-0.5l-0.4-0.3l-0.7-1l-0.4-0.3l-0.5,0l-0.5,0.2l-0.6,0l-1.5-1.5L233,21l-2-0.1l-2,0.4l-1.9,1.3l-1.1,2.4l0.3,3.7l-0.3,0.6
	l-0.7,2.4l0.6,2.7L227,36.5z M236.8,21.4l1.1,0.8l1.2,0.4l1.3,0.1l1.2-0.5l0.1-1.1l-0.1-1.3l0.7-1l0.2-0.1l0.1,0l0.1-0.1l0-0.4
	l-0.6-0.4h-0.5l-1.7,0.4h-0.3l-0.3-0.1l-0.3-0.3l-0.2-0.4l-0.1-0.3l-0.1-0.2l-1-0.1l-1.2,0.6l-0.8,1.1l0.2,1.5L236.8,21.4z
	 M99.7,693.8l-0.2,0.1l0,0.3l0.3,0.4l0.2,0l0.1-0.4l-0.1-0.3L99.7,693.8z M141.5,290.9l-1,1.6l-0.6,1.6l-0.2,2.4l0.4,1.8l0.8,1.5
	l1,1.5l-0.2,0.4l-0.1,0.2l-0.1,0.2l-0.2,0.2v0.5l0.2,0.6l0.4,2l0,0.5v0.5l1.7,1.5l1.7,1.1l1.9,0.7l2.3,0.2l1.9-0.4l1.1-0.5l0.6-0.7
	l-0.1-1.2l-0.4-1.1l-0.1-1l0.9-0.7l-1.7-0.8l-0.3-0.3l-0.2-1l0.4-0.3l0.6,0l0.4-0.2l-0.1-1.7l-1.8-1.9l0.5-1l-0.8-3.7l-0.6-1.6
	l-0.9-1.4l-0.7-0.7l-2.7-1.4l-0.4-0.1l-1.1,0.1l0.1,0.3l0.1,0.6l0.1,0.3l-1.4,0.3L141.5,290.9z M127.8,253l-0.3-0.6l-1.4,1.1
	l-0.7,0.7l-0.5,1.2l1-0.1l1.3-0.4l0.9-0.8L127.8,253z M404.8,593.1l-0.4-0.2l-5.2-1.8l-0.6,0.2l-0.3,0.4l-0.5,1.8l0.4,0.8l0.6,0.9
	l0.7,0.7l0.8,0.3l4.9,0.4l1-0.4l0.2-0.8l-0.4-1l-0.9-1L404.8,593.1z M440.4,517.1l0.1-2.5l-0.1-1.4l-0.3-1.1l0.3-1.5l-0.5-2l-0.8-2
	l-0.8-3.3l-1-1.7l-1.2-1.4l-10.4-8l-5.1-2.6l-13-3.1v0.5l0.5-0.1l0.5,0.1l0.5,0.2l0.4,0.3l-1.9,0.9l-2-0.5l-1.9-0.9l-1.7-0.4h-3.6
	l-0.9-0.2l-0.9-0.4l-0.9-0.2l-0.9,0.3l0.3,0.5l-2-0.1l-2.3,0.4l-2.1,1l-1.5,1.5l-0.6,1.2l-0.7,1.7l-0.5,1.9l-0.2,1.7l-0.5,0.9
	l-1.1,1.2l-0.8,1.3l0.2,1.1v0.5l-0.6-0.3l-1.2-1.7l-0.7-0.4l-1.7-0.2l-0.9,0.1l-0.7,0.6l-1-1.3l-2.2-3.4l-1-0.7l-0.6-0.2l-1.2-1
	l-0.5-0.2l-2.2,0.5l-1.3-0.1l-0.1-0.9l0.6-1l0.7-0.5l1-0.4l0.9-1l3.3-4.9l0.6-0.4l0.8-0.3l3.8-3.8l0.7-0.4l0.8-0.2l0.5-0.2l0.3-0.5
	l0.9-3.7l0-3l-0.6-2.6l-3.4-9.5l-0.2-1l-0.5-1.1l-0.7-1l-0.7-0.5l0.3-0.5l-1.2-0.9l-0.4-0.1l-0.2-0.3l-0.1-0.6l-0.1-0.7l-0.1-0.5
	l-0.7-0.8l-0.7-0.3l-0.8-0.2l-0.8-0.4l-4-3.3l-2-2.5l-0.6-0.3l-1.5-0.2l-0.7-0.5l-1.3-1.6l-1.9-1l-3-4.7l-0.8-1.4l-1.2-0.5l-7.5,1.4
	l-1.2,0.9l-0.7,0.3l-0.6-0.4l-0.5-0.5l-1.7-1.2l-1-0.3l-1.3,0.1l-1.2,0.6l-0.6,1.1l-0.3-0.3l-0.4-0.3l-0.4-0.2l-0.4-0.1l2.9-1.9
	l0.9-0.3l2.4,0.3l0.1,0.2l1,1l0.3,0.1l1.4-0.3h3.3l5.3-1.8l1.9,0.3l1.5,1.1l4,5.2l0.7,0.6l0.9,0.5l1,0.3l1,0.1l0.9-0.2l1.6-1
	l0.8-0.2l0.9,0.3l1.8,1.3l0.9,0.3l0.7,0.5l-0.2,1.2l-0.9,2.2l0.9-0.7l0.2-0.3l0.5-2.3l-0.7-2.3l-7.5-11.2l-4.5-7l-0.7-2.1l-1.2-4.7
	l-0.9-2l1-2.8l1.3-1.5l3.7-2.1l-1.5-1.4l-5.1-2.1l-1.1-1.2l-0.1-0.3l-0.3-1.9l-0.3-0.7l-1-0.5l-0.5-0.5l-0.4-0.3l-1.7-0.5l-0.3-0.4
	l-0.8-1.2l-0.4-0.4l0.1-0.3l0.2-0.7l-0.4-0.2l-0.3-0.4l-0.2-0.5l-0.2-0.5l0-1.4l-0.5-1.8l-0.7-1.7l-0.6-1.1l-0.6-0.6l-1.4-1L345,384
	l-0.1-0.7l0.1-0.6l0-0.6l-0.5-1l-1.2-1.2l-9.5-6l-8.6-2.7l-2-1.4l-1.8-0.3l-0.8-0.3l-0.7-0.6l-0.7-1l-0.4,2l-0.3,0.4l-0.5,0.1
	l0.1-0.2l-0.1-0.4l-0.2-0.3l-0.1-0.2l-0.2,0l-0.1,0.2l0,0.2l-0.1,0.1l-0.4,0l-0.3-0.1l-0.2-0.3l-0.1-0.5l1-0.5l0.4-0.4l0.3-0.6
	l-0.3-0.4l-0.2-0.5l-0.2-0.5l-0.1-0.6l-0.2-0.4l-0.1-0.2l0-0.3h0.9v-0.5l-2.2-1l-0.6-0.5l-1.5-1.9l-0.9-2.3l-2.5-9.1l0.1-0.7
	l-0.3-0.3l-0.1-0.6l0-1.6l0-0.4l0.1-0.3l0-0.4l-0.3-0.8l-1.2-1.2l-0.1-0.2l-0.5-0.3l-0.3-0.8L307,340l-0.2-0.7l-0.4-0.7l-0.7-1.9
	l-0.1-0.6l-0.1-0.2l-0.2-0.1l-0.5-0.2l-0.2-0.1l-0.1-0.5l-0.4-1.6l-0.1-1.6l-0.2-0.5l-0.7-1.1l-0.2-0.8l0.2-0.6l0.3-0.6l0.1-0.7
	l-0.3-0.8l-0.4-0.4l-0.2-0.5l0.3-1l-1-1.1l-0.5-0.8l-0.2-0.9l-0.1-0.5l-0.2-0.5l-0.1-0.5l0.2-0.5l0.2-0.3l0.1-0.3l0.1-0.3l0.1-0.3
	l-0.1-1.3l-1-1.9l-0.3-1.6l0-0.7l0-0.4l0.2-1.2l0.1-0.7l-0.1-5l-0.2-0.9l-0.3-0.3l-0.4-0.3l-0.2-0.4l0.3-0.6v-0.5l-0.8-0.8l-0.4-0.2
	v-0.5l0.6-0.5l-0.4-0.5l-0.3-0.5l-0.1-0.5l0.2-0.5v-0.5l-2.9-2.1l-0.9-0.1l-1.5,0.4l-0.5-0.3v-0.5h0.9l-0.4-1.1l-0.5-0.6l-0.5-0.3
	l-0.5-0.1l-0.2,0.2l-0.2,0.4l-0.3,0.4l-0.4,0.1l-0.2-0.3l-0.2-0.5l-0.2-0.5l-0.9-0.6l-0.4-0.9l-0.6-1.7l-5.6-7.2l-0.6-1.1l-2.4-4.7
	l-0.8-0.9l-0.9-0.4l-0.3-0.2l-0.1-0.6l-0.1-0.7l-0.2-0.6l-0.4-0.2l-6.8-1.3l-1.8-1l-2.7-2.3l-1.6-0.5l-1.7-1.2l-0.6-0.7l-0.3,0.3
	l-0.4,0.4l-0.2,0.3l-0.6-0.5l-1.1,0.2l-0.6-0.2l0.2-0.4l0.4-1.2l-0.8-0.5l-1.2-1.7l-0.8-0.4l-7.1-0.5l-0.9,0.4l-1.2,1.5l-0.8,0.7
	l0.2,0.3l0.1,0.3l0.2,0.9l-1,0.1l-0.7,0.9l-0.7,1.2l-1,0.9l-3.2,1.4l-2.6,0.3l-0.5-0.1l-0.3-0.3l-0.8-1.1l-0.3-0.2l-7.6-0.6
	l-0.7-0.6l-0.4-0.6l-0.4,0l-0.7,0.4h-2l-7.2-2.1l-0.9,0l-2.4,0.5l-0.5-0.2l-0.3-0.4l-0.2-0.5l-0.3-0.4l-0.3,0l-0.8,0.2l-0.4-0.1
	l-0.2-0.6l-1.4-2.6l-0.4-0.2l-0.4-0.6l-2.5-1.8v-0.5l0.9,0l0.6,0.4l0.9,1.1l1.5,1.5l1.5,1.1l1.6,0.6l3.7-0.1l6.8,2l1.7,0.1l1.6-0.3
	l1.7-0.8l1.5-1l0.8-0.4l2.9-0.2l0.6-0.4l0.5-1.1l0.6-2.5l0.5-0.8l0.8-0.3l0.7-0.4l2.3-2.7l2.2-1.6l0.3-0.7l0.4-0.6l1-0.3l2,0
	l2.6,1.4l1,0.2l0.9-0.3l2.7-1.8l2-0.5l1-0.5l0.8-1.5l2.2-2.2v-0.5l-1.5-1.4l-0.3-0.2l-1.4-1.3l-0.9-0.5l-3.8-0.3l-0.3-0.5l-0.3-0.2
	l-0.4-0.1l-0.5-0.2l-0.1-0.3l-0.2-1l-0.2-0.2h-1l0.7-0.8l0.6-1.1l0.3-1.4l-0.1-1.5l-0.5-0.9l-1.5-0.1l-0.7-0.7l-0.7-0.5l-1,0.2
	l-0.9,0.6l-0.4,0.7l-0.4,0.5l-8.4,4.3l-1.6,0.4l-1.8,1.1l-0.9,0.2h-1.8l-0.7-0.3l-0.5-0.7l1.8,0.6l1.8-0.7l4.4-4.5l1.5-1.1l1.6-0.8
	l12.4-1.8l0.5,0.2l0.3,0.3l0.3,0.2l0.4-0.2l0.8-2l0.4-0.6l1.6-0.8l0.9-0.6l0.7-1.6l3.9-2.8l0.7-0.8l0.4-1.3l0.8-0.8l0.2-0.5l0-0.4
	l-0.3-1v-0.6l0.4-1.1l0.6-0.8l0.5-0.9l0.5-3.4l0.6-1.3l0.8-0.9l0.7-0.6l2.3-1.5l0.7-0.8l1-1.8l1.1-1.6l1.4-1.2l0.6-0.9l0.3-1.4
	l0.2-0.4l0.8-1l0.2-0.4l0-0.9l-0.2-0.6l-0.3-0.5l-0.1-0.7l0.5-2.8l1.3-2.8l3.8-6.1l0.7-1.5l-0.1-0.7l-0.8-0.6l-0.1-1.4l0.2-1.6l1-4
	l2.7-7.2l1.1-1.7l4.4-4.1l0.1-1.1l0.7-1.4l1.7-2.4l1-0.8l0.3-0.5l-0.5-0.2l-0.4-0.3l0-0.7l0.3-0.6l0.6-0.1l-1.2-1.4l-0.4-0.9l0.2-1
	v-0.5l-0.7-1.3l-0.2-1.4l-0.1-1.4l-0.4-1.3l-3.6-4l-0.5-1l-0.3-0.3l-0.5,0l-0.7,0.6l-0.5-0.1l-0.4-0.4l-0.4-0.7l-0.2-0.7l0-0.3
	l-4.7-0.2l-0.7,0.2l-2.5,1.9l-1.1,0.2l-0.9-0.3l-1.9-1.2l-0.9-0.2l-0.4,0.2l-0.4,0.3l-0.3,0.4l-0.1,0.4l-0.2,0.4l-0.5-0.1l-0.8-0.5
	l-0.4,0.1l-0.7,0.7l-0.5,0.3l-0.5-0.1l-0.4-0.4l-0.3-0.1l-0.3,0.6l-2-1l-0.8-0.1l-0.5,0.4l-0.3,0.6l-0.3,0.1l-0.7-1.1l-1.3,0.1
	l-3.6-1.3l-1.4,0.7l-0.4-0.5l-0.3,0.1l-0.3,0.3L252,138l-0.4-0.2l-0.4-0.8l-0.3-0.2h-6.6l-0.7,0.3l-2.6,1.9l-1.7,0.5l-1.8-0.1
	l-5.5-1.9l-3.1-2.1l-5.2-0.2l-0.5,0.1l-1.1,0.7l-0.5,0.2l-0.5-0.1l-0.4-0.2l-0.4,0.1l-0.4,0.8l0.2,0.9l-0.4,1l-0.7,0.9l-0.6,0.5
	l-0.8,0.2l-0.8-0.1l-1.5-0.5l0.9,2.1l-0.6,0.2l-0.6,0.3l-0.5,0.1l-0.6-0.5l0.3-0.4l0.2-0.4l0.3-0.9l-2.5,0.6l-6.4,4.8l-1.3,0.4
	l-4-0.4l-3.9,0.6L195,146l1.6,1.4l0.5,0.9l-0.8,0.4l-0.6,0.2l-0.7,0.4l-0.6,0.6l-0.8,1.2l-0.4,0.2l-1,0.1l0,0.2l-0.3,0.5l-0.7,0.9
	l-0.9,0.5l-0.8,0l-1.5-0.4l0.5-0.6l0.5-0.8l0.8-1.8l-0.5-0.4l-0.6-0.1l-1.2,0v-0.6h2.3l1,0.3l0.3-0.1l-0.4-0.7l0.7-0.9l0.8-0.5
	l2-0.2l-0.2-0.2l-0.1-0.2l-0.1-0.3l-0.1-0.4l1.5-2.4l1.2-1l1.2-1.5l0.9-1.6l-0.2-1l-0.6,0.1l-1.8,1.2l-0.5,0.6l-0.7,0.5l-0.9,0
	l-2.1-0.5l-0.6-0.7l-0.5-0.2l-0.3,0l-1.8,0.9l-1.6,1.7l-1.9,1.2l-0.5,0.7l-0.4,0.8l-0.6,0.8l-0.6,0.6l-1.3,0.5l-0.6,0.4l-0.2-0.1
	l0.3-1.2l0.3-0.8l0.4-0.5l2.7-2.8l0.6-0.2l0.6-0.5l0.3-1.1l0.3-0.9l0.7,0l0.8,0.1l2.7-0.8l1.1-0.1l0.6-0.2l3.3-3l1.5-0.5l1.1,1.1
	l-0.5,1.2l0.2,0.8l0.7,0.3l0.8-0.2l0.5-0.6l1.1-1.7l1-0.8l5.7-7.5l0.3-0.7l0.1-1.3l-0.3-0.8L207,124l-0.6,0.7l-1.2,1.8l-1.5,1.4
	l-1.6,0.7l-1.4-0.4l0.6-1l-0.7-1l-1.4-0.3l-2.4,1.9l-1.5-0.4l-2.7-1.9l0.2,1.3l-0.7,0l-1-0.7l-0.7-0.9l-0.7-0.7l-0.9,0.2l-1.7,0.8
	l-1.6-0.4l-1.3-1.1l-2.2-3.4l0.8,0.3l0.8,0.7l1.4,1.9l0.9,0.7l3.4-0.9l1.2,0.3l2.4,1.3l1.2,0l0.3-0.3l0.7-1l0.4-0.3l0.6,0l1.3,0.5
	l0.7,0L198,123l0.2-0.8l0.9-1.5l-0.9-1.5l-0.3-0.4l-0.6-0.3l-1.3-0.1l-0.6-0.5l-0.4-0.7l-0.1-0.6l0.2-0.3l1.2,0.7l1.1,0.1l0.6,0.3
	l-0.3,0.5l0.2,0.2l0.7,0.4l0-0.8l0.1-0.7l0.3-0.5l0.4-0.2l2.7-1.9l1.3-0.3l1.1-0.6l0.4-0.4l0.2-0.6l0.4-1.6l0.4-0.8l0.8-0.8l3.1-1.6
	l9.2-7.7l1.8-2l0.8-1.3l0.3-1.3l0.4-0.7l2.2-2.3l1.5-0.9l3.7-1.3l1.8-1l1.6-1.8l2.2-3.3l1.8-3.6l0.4-2.8l0.4-0.1l0.4-0.5l0.2-0.7
	l-0.1-0.9l-0.3-0.4l-0.4,0.1l-0.5,0.3l-0.5,0.1l-0.9-0.5l-0.4-1v-1.3l0.5-1.6l0.3-0.5l1.1-1.1l0.4-0.7l0.6-1.5l0.5-0.7l0.2-1.2
	l0.8-1.7l0.3-1.5l-1.4-0.6l-2.8,0.6l-1.4,0l-2.2-1.6l-1.7,0.2l-2.8,0.9h-1.3l-0.3-0.3l-0.2-0.7l-0.1-0.7l-0.2-0.4l-0.7-0.1l-0.6,0.4
	l-1,1.3l0.4,1.1l0.7,0.8l0.8,0.6l0.7,0.3l-0.6,1.6l-1.2,0l-2.3-1.1l-2.4,0.9l-1.2,0.1l-1-1l0.2-0.1l0.4-0.4l-1-0.5l-1.4,0l-2.6,0.5
	l-1.6,0.8l-2.9,2.2l-1.8,0.9l-3.6,0.6l-3.6-0.6l-0.9,0.2l-0.2-0.2l-0.8-1.6l-0.1-0.2l-0.1,0.1l-0.4,0.1l-0.4,0.3l-0.5,1.4l-0.4,0.6
	l-0.5,0.3l-0.4,0l-0.9-0.3h-1.6l-0.5,0.2l-0.3,1.1l-0.4,0.2l-0.6-0.1l-0.8-0.4l-0.5,0.1l-0.3,0.3l-0.2,0.5l-0.2,0.5l-0.5,0.3
	l0.6,0.6l-1-0.3l-1.3-1.2l-0.8-0.3l-0.4,0.1l-1.1,0.6l-1.6,1.1l-0.1,0.2l-1.7,1.9l-0.2,0.1l-0.2,0.1l0,0.3l0.1,0.4l-0.1,0.3
	l-1.1,1.7l-0.7,0.7l-0.7,0.3l0.8-1.8l0.5-1.7l0.6-1.5l1-1.2l-0.1-0.8l0,0l0.1-0.3v-0.6l-2.1-1.6l-1.8-0.8l-1.8-0.4l-1,0.5l-0.4,1.1
	l-0.2,1.5l-0.5,1.4l-0.8,0.8l-0.9,0.4l-0.7,0.6l-0.3,1.2l-0.4,0.2l-2.5,2.8l-0.8,0.1l0.4-1.1l0.8-1.5l0.8-2l1.5-1.5l0.5-0.7l0.2-0.5
	l0.2-0.7l0-0.7l-0.4-0.3l-0.5-0.2l-1.2-0.9l-0.7-0.4l-1.3-1.7l-0.7-0.6l0.2,1.4l-0.2,0.6l-0.4,0.5l-0.2,1.2l0,0.9l-0.1,0.8l-0.3,0.7
	l-0.8,0.6l0.3-0.6l0.2-0.6l0.1-0.7l0-0.9l-0.1,0.1l-0.3-1.1l-0.2-1.3l0-0.4l-0.8-1l-1-0.7l-5.4-1.2l-0.7,0.9l-0.3,1.4l-0.1,1.6
	l-0.3,1.7h0.3l-0.5,1.2l-0.6,0.7l-2.2,1.3l-0.3,0.4l-0.1,0.7l0,1.5l4.6,4.1l-1.3-0.9l-1-0.5l-2.3,1.4l0.4,0.4l0.2,0.1l0.3,0.1v0.5
	l-0.1,0l-0.4,0v0.6l0.5,0.1l0.4,0l0.4-0.2l0.4-0.4l0.3,0.6l-0.1,0.6l0.4,0.5l1.2,1l-1.8,0.1l-2.4-1.7l-0.3-0.1l-0.6-0.3l-0.3-0.1
	l-0.2,0.2l0,0.5l0.1,0.5l0,0.4l-0.4,0.8l-0.3,0.8l0,0.8l0.4,0.8h-0.8l0.1,0.6l0.1,0.6l0.3,1l0.2,0.2l0.8,1.2l0.1,0.3l0.4,0.4
	l1.2,1.9l0.6,0.4l0.5,0.2l0.9,0.7l0.4,0.2l0.4-0.2l0.5-0.7l0.3-0.2l0.8,0l2.7,0.6l-0.6,0.4l-1.2,0.2l-0.6,0.5l1.1,0.9l0.5,0.5
	l0.4,0.8l-2.9-2.2l-0.6-0.2l-2.1,0.2l-0.6-0.3l-1.3-1.1l-0.8-0.2l-0.4,0.1l-0.6,0.4l-0.6,0.5l-0.3,0.6l-0.9-0.7l-0.9-0.1l-0.9,0.3
	l-1.7,1.1l-0.7,0.2l-0.7-0.2l-1.8-1.2l-1-0.4l-0.7,0.2l0,1.3l1.9,3l0.4,0.3h0.5l-0.1,0.4l-0.1,0.9l-0.1,0.4l0.4,0.1l0.4,0.2l0.3,0.3
	l0.3,0.4l-0.3,0.5l0.6,0.5l0.7,0.1l1.4-0.1v0.6l-0.6,0.3l-1.2,0.3l-0.6,0.4l0.9,0.6v0.5h-0.6l0.3,0.6l0.2,0.7l0,0.7l-0.2,0.8h0.3
	l-1,1.3l-0.9-0.1l-0.9-0.3l-0.9,0.8l-1-2.1l-1.6-0.5l-0.8,1.1l1.4,2.5v0.5l-0.2,0.3l-0.1,0.2l-0.1,0.3l-0.1,0.3l1.7-0.1l0.8,0.3
	l0.6,0.9l-0.2,0.2l0,0.1l-0.1,0.2l1.1,0.2l1.7,2.2l1.2,0.3l0.6,0.6l1.4,0.3l0.5,0.5l0.4,1l0.1,0.9l-0.3,0.6l-0.8,0v0.6l1,0.3
	l4.2,3.7l0.2,0.5l0.1,0.6l0.2,0.8l0.3,0.7l0.2,0.4l-0.9-0.6l-1.2-2.2l-1.8-0.8l-1.5-1.5l-0.5-0.3l-0.4-0.2l-1-0.7l-0.5-0.2l-0.4,0.1
	l-0.8,0.4l-0.5,0l-0.9-0.5l-1.2-1.7l-0.8-0.5l-0.2,1l-0.3-0.1l-0.3-0.4l-0.3,0.1l-0.2,0.5l0,0.2l0.1,0.2l0.1,0.4l0.3,0.3l2.7,1.2
	l1.8,1.9l1.2,0.6l0.5,0.5l0.6,1.1l-3-1.2l-1.4-0.9l-1.2-1.4l-0.6-0.5l-1.9-0.8l-0.5,0l-0.4,0.8l-0.5,2.3l-0.5,0.7l0.3,0.5l-1.4-0.2
	l-1.7-0.9l-1.2-1.6l0.2-2.2h-1.5l-0.5-0.3l-0.6-0.8l-0.3,0.6l-1,1.3l-0.4,0.8l0.1,0.3l0.1,0.1l0.3,0.1l-0.4,0.8l0.5,0.9l1.6,1.5
	l0.6,1.2l-0.1,1l-0.2,1.1l0.3,1.6l-0.8-0.5l-0.4-0.1l-0.5,0l0.3,1l0.2,0.4l0.3,0.4l-0.7,0l-0.6-0.3l-0.5-0.6l-0.4-0.8l-0.3-1.2
	l-0.3-1.6l-0.1-1.6l0.2-1.1l-1-0.7l-1.1-0.4l-1.1,0l-1.1,0.4l-0.5,0.5l-0.4,0.7l-0.3,0.8l-0.2,0.8l0.1,1l0.4,1.6l-0.1,0.6l0.1,0.9
	l-0.2,2l0.1,0.8l3.5,0.8l0.5,0.3l0.4,0.5l0.3,0.5l0.3,0.4l0.5,0.1l-0.3,0.9l-0.4,0.6l-0.5,0.1l-1.2-1.4l-0.8,0l-1.6,0.9v0.6l0.2,0.7
	l-0.9,1l-0.2,1l0.2,1l0.5,0.3l0.7,0.1l0.6,0.3l0.8,1.3l0.5,1.5l0.7,1.2l1.4,0.3l-0.4,0.8l-0.2,0.2l1.4,1.7l1.2-1l1.9-0.3l1.9,0.4
	l1.3,1.1l-0.2,0.5l-1,0l-1.7-0.3l-3,0.5l0.1,0.4l0.1,0.4l0.1,0.4l0.2,0.4l-0.5-0.1l-1.3-0.9l-0.4-0.3l-0.7-1.1l-0.4,0.3l-0.7-0.5
	l-2.3-2.3l-0.7-0.5l-0.7-0.1l-0.7,0.3l0.1,0.4l0.1,0.9l0.1,0.4l-0.7,0l-0.2,0.6l0,1l0,1.1l-0.2,0.5l-0.6,1.3l-0.1,0.6l0.1,1l0.4,1.4
	l0.1,0.8l0.3,0.2l1.3,0.4l0.4,0.3l-0.4,0.5l-0.1,0.5l0,1l0.1,0.2l0.4,0.6l0.1,0.3l-0.1,0.2l-0.2,0.2l-0.2,0.1l-0.1-0.1l0.7,3.1
	l1,0.5l2.2-0.3l1.1-0.5l2.8-3.8l0.7-0.6l0.2,0l0.1,0.5l0.4,1l0.1,0.7l-0.4,0.5l-1,0.7l1.2,0.2l1,0.5l1,0.1l1.1-0.8l1.9-2.7l1.1-1.2
	l0.7,0.2l-0.4,2.2l-1.9,1.8l-4.7,2.3l-1,0.2l-0.2-0.3l-0.2-0.5l-0.3-0.3l-0.4,0.3l-0.4,0.4l-0.9,0.6l-0.4,0.4l-1,2.4l-0.2,0.3
	l0.4,1.1l0.9,0.1l1.8-0.6l0.8,0.2l1.6,0.8l0.9,0.1l0.8-0.3l1.5-1.1l0.7-0.2l0.5-0.5l0.5-1l0.7-0.6l1,0.4v0.6l-1,0.4l-1,1.1l-0.5,1.1
	l0.4,0.5l0.4,0.2l0.4,0.5l0.6,1.1l0.4,0.4l1.8,0.4v0.5l-1.6,0.5l-1.4-1.1l-1.3-1.6l-1.4-1l-1.5,0.3l-1.8,1.1l-1,1.5l0.8,1.3
	l-0.6,1.1l-1.5,2.1l-0.3,1.3l0.5,0.8l3.5,1.1l0.5,0.5l1.1,1.4l0.3,0.3l0.6-0.1l1-0.4l3.5-0.6l0.8,0.5v0.6h-0.3l-0.3-0.1l-0.7-0.2
	l-0.7,0l-0.3,0.6l-0.2,0.2l-4.1-0.1l-0.8-0.5l-1.8-1.4l-1.1-0.4l-0.7,0.4l-0.4,0.4l-1.2-0.1l-0.5,0l-0.3,0.3l-0.5,0.9l-1.8,2.3
	l-0.6,1.3l0.5,0.6l0.4,0.2l0.7,0.7l0.4,0.2l0.5-0.1l0.9-0.4l0.4-0.1l0.9,0.7l-0.1,1.1l-0.2,1l0.6,0.4l0.9,0.3l0.9,0.6l0.9,0.3
	l0.9-0.7l0.6,0.3l0.6-0.2l0.7-0.4l0.7-0.2v0.5l-2,1l-2.3,0.6l-1.4-0.2l-0.7-0.3l-0.6-0.5l-0.5-0.6l-0.8-1.5l-0.4-0.5l-1.1-0.2
	l-1.3,0.5l-1.2,0.8l-0.7,1l-0.5,1.5l-0.4,1.8l-0.5,1.6l-0.7,0.9l0.8,0.9l0.3,0.2v0.6l-1.5,0.1l-1.4,0.4l1.9,0.5l4-0.9l1.9,0.4
	l-1.7,1.9l-0.4,0.8l1.7,0.4l0.8,0l0.7-1.3l0.7-0.4l0.8-0.1l0.6,0.3l-1.4,1.4l-1.7,0.8l-4.4,0.6l-0.6,0.6l0,0.9l0.8,1l3.2,1.6
	l-0.8-0.2l-1.1-0.3l-0.9,0.3l-0.6,0.8l-0.5-0.4l-0.5-0.2l-0.5,0l-0.5,0.1v0.6l0.8,0.1l0.4,0.6l0.2,0.8l0,0.8l-0.4-0.3l-2.2-1
	l-0.6-0.5l-0.4-0.5l-0.4-0.4l-0.7-0.2l-0.6,0.2l-1.5,1.1l-0.5,0.3l-6.5,0.7l-0.5,0.5l-0.9,1.5l-0.3,0.2l-0.3-0.1l-0.2,0l-0.1,0.7
	l0,0.5l0.1,0.5l0.2,0.4l0.2,0.4l0.5,0.5l1,0.6l1,0.2l0.8-0.5l0.8-0.8l1.1-0.1l3.1,0.9l2.9-0.2l0.5,0.1l0.9,0.7l0.5,0.2l0.4,0
	l1.6-0.5l4.6-2.6l1.7,0.5l2.1,1.4l0.9,0.2l3.9-0.5l-0.9,0.6l-1.2,0.3l-2.2,0.2l-1.1-0.2l-2.6-1.4l-1,0.1l-4.5,3l0,0.8l0.4,0.5l1,0.8
	l-0.3,0.6l-1.2-1.2l-1.4-0.7l-1.5-0.3l-2.1,0.1l-0.6,0.2l-0.4,0.6l-0.1,1.2l0.3,0.6l6.3,5.2l2.5,0.6l1.6-2.2h0.3l-0.1,0.8l-0.2,0.6
	l-0.6,1.2l0.5,0.6l0.7,0.5l0.8,0.4l0.7,0.1l0.5,0.2l0.5,1l0.4,0.3l0.3-0.1l2.8-2.3l2.8-3.3l1.7-2.6l0.5-0.5l0.5-0.4l0.5-0.2l0.4-0.3
	l0.6-1.4l0.4-0.3l0.9-0.2l0.7-0.5l1.2-1.5l0.5-0.9l0.3-0.4l0.9-0.3l0.4-0.7l0.4-0.2l0.7-0.1l0.6-0.3l0.6-0.7l0.6-1.1l0.1-0.6
	l0.1-0.7l0.1-0.6l0.4-0.2l0.4-0.1l0.5-0.3l0.4-0.4l0.2-0.5l0.4-0.6l2.5-2.2l-0.7,1.5l-0.8,1.3l-2.8,3.1l-0.3,0.4l-0.4,1.1l0,0.5
	l3.3,1.6l6.9-1.5l-0.7,0.5l-3.4,0.8l-1.6,1.1l-0.9,0.3l-1.8-0.6h-0.9l-1.2,1.1l-0.6,0.1l-1.1-0.1l-0.9,0.8l-0.4,0.2v0.6l0.8,0.6
	l-0.5,1l-1.7,1.6l-0.4,0.5l-1.1,2.1l-0.1,0.3l-0.1,0.6l-0.2,0.4l-0.3,0.3l-0.2,0.2l-0.2,0.2l-0.1,0.6l0.6,0.1l0.7,0.8l0.5,0.2
	l0.5-0.1l0.9-0.8l0.5-0.2l0.7-0.6l0.2-0.1l0.8,0.1l0.5-0.1l1.4-0.9l-0.4,0.7l-0.5,0.4l-1.1,0.5l-2,1.6l-0.8,0.3l-0.9,0l-1-0.4l-1-1
	l-0.2,1.1l-1.5,3.6l0.6,0.5l0.8-1.7l0.5-0.7l0.6-0.3l0.7,2.9l0.7,0.5l1.2-1.1l4.5,1l1.8-0.2l0.5-0.5l1-1.6l1.7-1.6l0.6-1.2l0.5-1.4
	l0.6-1.1l0.9-0.5l-0.9,1.3l-1.4,3.1l-2.7,3.7l-1.1,1l-1.4,0.3l-3.4-1l-4.2,0.4l-1.4,0.7l-1.1,1.5l0.2,0.6l-0.3,0.4l-0.5,0.3
	l-0.4,0.3l-0.3,0.6l-0.9,2.5l0.9,0.2l1.8-0.6l1-0.1v0.5l-2.1,0.9l-1.1,0.1l-0.8-0.5l-0.8,0.9l-0.4,1l-0.5,2.8l-0.5,1.6l-0.1,0.9
	l0.3,0.7l0.4,0.1l0.4-0.4l0.4-0.5l0.4-0.2l1.8-0.6l0.6,0.3l0.3,0.5l-0.1,0.6l-0.5,0.2l-0.8,0.2l-0.9,0.5l-0.5,0.8l0.4,1l-0.8,1.2
	l-0.7,1.4l-0.5,1.5l-0.3,1.6l1-0.8l0.8-1.3l1-1.2l1.3-0.4l-0.3,1l-0.3,0.7l-1.4,2.1l-0.2,0.5l0.1,0.6l0.3,1.2l0.1,0.1l0.3,0.2
	l0.3,0.3l0.2,0.5l-0.1,0.4l-0.3,0l-0.4-0.2l-0.1-0.2l0-0.1l-0.3-0.2l-0.3-0.2l-0.3-0.1l-0.3,0.2l-0.1,0.3l-0.1,0.3l-0.1,0.3
	l-3.2,4.6l-1.5,3.1l-0.2,2l-0.2,0.4l-0.1,0.5l0.1,0.4l0.4,0.2l0.2-0.2l0.7-1.3l0-1.7l1.8-2.1l0.3-1.4l0.7-0.4l0.6-0.5l0.5-0.3
	l0.5,0.2l-0.2,0.4l-0.3,0.3l0.2,0.3l-0.4,0.9l-4.6,7.2l0.1,0.8l0.3,0.9l0.3,0.5l0.4,0l0.8-0.8l1.1-0.6l1.4-1.7l0.9-0.5l-0.6,0.8
	l-0.8,0.7l-0.6,0.8l-0.3,1l-0.3,0.6l-1.8,2.7l0.2,0.6l0,2l0.3,1l0.6,0.7l0.6,0.4l1.2,0.4l-0.3,1l0.6,0l0.5-0.2l1.5-1.2l4.1-4.6
	l-0.8,2.2l-1.3,2l-1.5,1.4l-1.2,0.5l-0.6,0.5l-0.7,1.1l-0.6,1.3l-0.3,1l-0.3,0.8l-2.3,1.9l0.5,1l-0.2,1.5l-0.9,2.6l-1,2.2l-0.2,0.8
	l0.1,0.5l0.3,0.5l0.2,0.5l-0.6,2.2l0.1,1.7l0.2,1.7l0,1.5l-0.4,0.8l-1.6,1.9l-1.2,1l-0.2,1.4l0.1,1.7l0.5,3.2l0.5,0.9l0.7,0.3l1.2,0
	l0.5-0.1l0.9-0.7l0.4-0.2l0.5,0l0.8,0.4l0.4,0.1l1-0.2l0.9-0.5l0.8-0.7l0.7-0.7l1.4-2l0.4-1.1l-0.5-0.5l0-0.3l-0.7-1.7l-0.4-0.6
	l-0.4-0.4l-0.4-0.2l-0.5,0.1v-0.5l1-0.6l0.7-1l0.9-2.5l0.2-0.2l0.2,0.1l0.1,0l0.1-0.6l0-1.4l0-0.4l0.3-0.7l0.9-1.8l-0.3-1.4l0.5-0.4
	l0.7-0.3l0.3-1l-0.3-0.8l-0.5-0.1l-0.4-0.4l0.1-1.7l-0.1-0.2l-0.2-0.3l-0.1-0.3l0.9-0.7l0.1-0.6l0.1-1.3l0.1-0.6l0.3-0.9l0.4-0.8
	l0.5-0.7l1.9-2.2l0.6-0.5l1.4-0.5l0.6-0.5l0.3-1l-0.4-1.9l-1.1-1.8l-2.3-2.5l0.2-0.2l0.2-0.2l0.2-0.2l-0.4-0.4l-0.2-0.1v-0.5h0.3
	v-0.5l-0.5-0.5l-0.1-0.6l0-0.7l-0.2-0.9l-0.4-1.5l-0.2-0.1l-0.6-0.3l-0.1-0.2l0.3-4l0-0.5l0-0.5l0.1-0.4l0.3-0.2l0.1,0.5l0,0.7
	l0,0.3l0.8,0.3l1,0.1l0.9-0.3l0.4-0.8l0.1,0.1l0.3-0.9l0.2-1.1l0-0.4l0.3-0.2l0.8-0.1l0.4-0.2l3.5-5.4l5-3.4l0.4-0.5l1-2.6l0.5-0.9
	l0.6-0.6l0.7-0.3l1.7-0.1l0.7-0.4l1.6-1.7l0.7-0.5l-0.8,2l-1.5,1.1l-1.6,0.7l-1.3,0.9l-0.7,1l-1.5,3.5l-0.4,0.4l-1.8,1.4l-2.4,1
	l-4.6,8.1l-1,1.2l0.5,2.2l0.1,0.6l-0.1,0.6l-0.4,0.8l-0.1,0.6l0,1.4l0,0.7l0.1,0.5l0.3,0.4l0.3,0.2l0.3,0.3l0.3,1.9l0.4,0.6l1.4,0.5
	l1.8,1.1h0.8l-0.3-1.3l-0.4-1.2l-1-2.1l1.2-1.8l0.2-0.6l0.1-0.7l0.3-1l0.4-1l0.4-0.6l0,1.6l0.4,1l2.8,2.3l0.8,0.3l0.4-0.7l-0.3-1.6
	l-1.6-4.1l-0.7-1.2l0.7-0.5l0.3,0.6l0.2,1l1.7,2.3l0.2,1.5l0.4,2.1l0.6,1.9l0.7,0.8l1.3,0.3l0.5-0.1l0.6-0.7l0.4-0.8l0.2-0.7
	l0.1-0.7l0.2-0.9l0.4-0.7l0.5-0.6l0.4-0.7l0.2-1.1l-0.2-0.9l-0.4-0.6l-0.6-0.4l-0.5-0.3v-0.5l0.7,0.2l0.7,0.4l0.6,0.2l0.6-0.3
	l-0.2-0.9l-0.1-1l0-1.5l-0.2-1.5l0.1-0.6l0.5-0.2l0.1-1.2l-0.4-2.6l-0.6-2.6l-0.5-1.3l0.6-0.7l0.6,0.2l0.4,0.8l0.2,1l-0.1,2.3
	l0.3,0.6l0.9,0l0.6-0.9l2.4-5.1l0.6-0.8l0.4-0.3l0.2,0.3l-0.2,1.1l-3,4.8l-1.6,4.3l-0.1,0.6l0.1,2.9l0.1,1.4l0.5,1.1l1,0.4l1,0
	l0.8-0.1l0.3-0.6l-0.5-1.4l-2-3l-0.3-0.9l0-0.8l0.2-0.6l0.6,0.2l0,0.4l0.5,2.3l0.5,1l0.7,1l0.8,0.8l1.7,0.7l2.1,2.7l1.8,1.2l6.2,1.3
	l-1,0.7l-7-1.1l-0.9-0.6l-0.5,0.2l-0.7-0.1l-2.7-1.3l-0.6-0.1l-0.8,0.2l-1.3,0.6l-1,0.8l-0.6,1.3l-0.3,2l0.4,5.4l0.2,0.8l0.3,0.6
	l0.3,0.9l0.2,2.5l-0.6,1.6l-1.9,2l0.8,1.2l1.4,1.2l2.4,1.6v0.6l-0.3,0.7l0.4,0.3l1.4,0l2.3,1l1.2,1l0.9,1.5l0.2,1.6l-0.9,1.4
	l1.5,0.5l1,1.3l0.4,1.8l-0.4,2l-1,1.5l-2.8,1.3l-1.4,1.2l-0.4,0.8l-0.3,1.7l-0.3,0.7l-0.3,0.4l-0.8,0.6l-1.4,1.7l-0.2,0.4l-0.1,0.7
	l0.1,1.6l0,0.7l-0.2,0.7l-1,2.5l0,0.4l0,0.8l-0.1,0.2l-0.4,0.1l-0.2,0.2l-2.7,3.7l-1.7,1.1l-0.8,0.8l-0.4,1.4l-0.1,1.5l-0.3,1
	l-0.7,1.8l-0.2,0.6l-0.1,0.5l0,1.6l0.1,0.9l0.6,1.4l0.1,0.7l0.2,0.7l1.5,3.1v0.5l-0.2,0.3l-0.1,0.3l-0.7,0.8l-0.8-0.1l-0.7-0.7
	l-0.6-0.8l-0.2-0.7l0.1-1.8l0-0.8l-0.2-0.8l-0.3-0.7l-0.6-1l-0.2-0.4l-0.4-0.8l-0.4-0.4l-0.2,0.9l-0.2,0.2l-0.5,0.1l-0.9-0.1
	l-0.6,0.6l-0.3,1.3l-0.1,2.6l0.2,2.9l0.8,2.6l1.2,2.2l4,4.8l0.8,0.4l0.4,0.4l0.3,0.9l0.2,1l0.2,0.7l0.3,0.3l0.3,0.1l0.8,0.1
	l-0.2,0.5l0,0.5l0.2,0.5l0.3,0.5l-0.5,0.7l0,1.2l0.3,1.1l0.4,0.5l0.9,0.2l1.8,1l0.9,0.2l-0.5-1.2l0-0.4l0-0.7l0.2-1.3l0-0.6
	l-1.2-1.1l-0.7-1.7l-0.5-1.7l-0.3-0.8l-0.4-0.3l-0.3-0.8l-0.2-0.8l-0.1-0.6l0-0.5l0-0.4l0.2-0.4l0.4-0.6l0.6-0.9l0.8-0.9l1-0.7
	l1-0.5l1.6,0l0.9,0.4l0.8,2.1l0.9,0.6l1.9,0.5l5,3.1l1.4,1.4l2.4,3.8l0.4,0.3l1.5,0l0.4,0.2l1.1,0.8l0.9,0.4l1,0.1l0.4-0.2l0.3-0.3
	l0.2-0.3l0.2-0.2l0.3-0.6l-0.2-1.4l-0.1-1.5l0.5-1.1l-0.6-1l0.2-0.9l0.4-0.8l-0.1-0.9l-0.5-0.7l-0.5-0.4l-0.6-0.2l-0.7,0l-0.3-0.5
	l-0.3-1.1l-0.4-1.7l0.1-0.8l0.3-0.9l0.3-0.8l0.3-0.3l0.7,0.2l0.3,0.5l0.2,0.8l0.4,1l0.4,0.5l0.5,0.4l3.1,1.5l0.6,0.1l0.7-0.3l1-1.3
	l0.6-0.4l-0.4,2.9l1.5,2.5l2.2,1.4l1.6-0.3l-0.4-1.1l0.1-1.2l0.5-1l0.6-0.5l0,0.3l0.6,0.3l0.1,0.8l-0.2,0.9l0.1,0.7l0,0.1l-0.1,0.3
	l-0.1,0.2l0.1,0.2l0.1,0.1l0.1,0l0.2,0.1v0.5l1.3,0.1l2-0.3l3.3-2.5l2.2-1l0.4-0.3l-1.4-1.4l0.6-0.5l0.3-0.1l-0.1-0.3l-0.2-0.8
	l0.7-0.6l0.5-0.8l0.2,0.2l0.1,0.2l0.1,0.5l-0.2-0.3l-0.2-0.1l-0.5,0.9l0.2,0.5l0.3,0.3l0.3,0l0.4-0.3l-0.1-0.1l0,0l-0.1-0.4l3,0.5
	l0.9-1.5l1.1-0.2l3.9,0.4l0.7-0.4l0.5-1.2l0.1-1.2l-0.1-1.6l-0.2-1.5l-0.3-0.8l0.6-2l1.2,1.1l0.7,0.3l0.7-0.3l-0.1-0.3l0-0.1l0,0
	l-0.1-0.1l0.6-0.2l0.6,0.2l0.7,0.4l0.7,0.2l13.4,1l3.6-1l0.2-0.1l1,0.5v0.5l-0.8-0.3l-0.7,0.3l-0.6,0.4l-0.8,0.1v0.5h2.9l-0.7,0.5
	l-3.5,1.1l-0.9-0.1l-1.6-0.5l-0.3-0.3l-0.2-0.3l-0.3-0.3l-0.5-0.2L229,346l-0.6,0.5l-1.1,1.2l2.1,1.1l0.5,0.4l-1.7,0.9l-0.5,0
	l-0.7-0.3l-0.4-0.5l-0.5-0.4l-0.8,0.2l-1,1.2l-0.8,2l-1.4,4.3l0.4,1.2l-0.4,1.4l-0.7,1.2l-0.5,0.7l-0.4,0.3l-0.9,0.4l-0.3,0.3
	l-0.3,0.6l-0.6,1.8l-1.4,3.3l-1.1,5.7l-0.9,2.5l-0.2,0.2l-0.5,0.5l-0.3,0.5l0.4,0.5l0.4,1l0.2,0.2l0.7,0.4l4,5.6l1,0.9l1.4,3l1,0.5
	l0.1,0.1l0.1,0.7l0.3,1l-0.1,0.6l-0.2,0.6l-0.1,0.6l0.2,1.1l0.6,1l1.3,1.6l1.5,2.7l0.9,0.9l0.9-0.4l0.7-0.1l1,0.1l0.6-0.3l-0.4-1.4
	l0.4-1.8l0.4-0.8l0.7-0.4l-0.1,1.5l0.1,2.4l-0.4,2.1l-1.4,0.4v0.5l0.6,0.5l0,1l-0.2,1.2l-0.1,1.1l0.4,0.5l0.5,0.3l0.6,0.2l0.7,0
	l0.4,0.4l1.5,2.1l0-0.8l-0.1-1l0.1-0.8l1.2-0.6l0.4-0.7l0.7-1.5l1.3-1.6l0.2-0.6l0.1-0.8l0.2-0.9l0.1-1l-0.2-1l0.6-0.3l0.5,0.3
	l0.4,0.7l0.3,0.8l-0.4,0.7l0.3,1.1l0.6,1l0.6,0.5l1.9-0.1l0.8-0.5l0.3-1.1l0.3-0.8l0.8-0.6l1.5-0.8l1.3-1l0.6-0.9l0.2-1.1h0.3l0,1.4
	l-0.6,1.3l-0.9,0.9l-0.9,0.4l0.1,0.7l1.6,3.2l0.7,1.1l-0.8,1.9l-0.5,0.7l-1.4,0.6L246,409l-0.8,1.5l-0.4,0.4l-0.4,0.4l-0.3,0.4
	l0.1,0.6l0.7,1.5l0.2,0.2l1.3-0.1l0.7-0.3l0.7-0.5l-0.2,1.2l-1.5,1.5l0.5,0.8l-0.3,0.2l-0.4,0.3l-0.3,0.4l-0.1,0.4l-0.1,0.3
	l-0.3-0.1l-0.6-0.4l-0.7,0.1l-3.9,1.5l-1,0.6l-0.7,1.2l0.5,2l-0.5,5.4l0.3,2.4l1.2,1.7l1.5,0.7l3.6,0.1l-0.5,0.7l-1.7,1.2l-0.4,0.7
	l-0.3,0.3l-2.2,2.9l-2.8,4.6l-0.5,1.1l-0.1,1l0.2,1l4.9,10.7l1,1.6l1.3,1.5l1.6,1.2l1.8,0.7l1.8,0.2l0.7-0.4l0.3-1l0.5-0.3l2.1-0.5
	l0.6,0l-0.4,0.4l-0.4,0.3l-0.4,0.1l-0.4-0.2l-0.4,0.4l-0.3,0.5l-0.1,0.6l0.2,0.9l-1.2,0.7l-0.6,0.2l-0.7,0.1l-0.3-0.1l-0.6-0.3
	l-0.4,0l-0.3,0.2L247,464l0,0.3l0,0.2l-1.3,0.1l-1.2-0.6l-1-0.9l-0.8-1l-2.5-6.5l-1-1.2l-1-0.1l-1.5,1.2l-0.9,0.3l-1.8,0.3l-0.8,0.4
	l-0.5,0.7l0,1.1l0.6,1.1l1.5,2l1,2.2l1.1,1.9v2.6l-0.1,0.3l-0.3-0.3l-0.5-0.9l-0.6-0.7l-5.4-3.5l-0.5-0.6l-0.4-0.7l-0.9-0.7
	l-1.6-0.8l-1.8,0.1l-8,4l-1.7,0.4l-4.8,0.1l-0.7-0.4l-0.7-1l-0.9-0.8l-0.9-0.3l-0.8,0.4l-0.5-0.7l-0.7-0.4l-0.8-0.2l-0.8-0.1
	l0.3,0.8l1.2,1.3l0.4,1.3h-1.4l-4.6,1.9l-1.4,1.2l-1,0.3l-0.9,0.4l-0.5,0.4l-0.3-0.1l-0.3-0.2l-0.4-0.1l-1.3,0.1l-1.2,0.4l-1.1,0.7
	l-0.9,1.2l-0.9,1.8l-0.6,0.8l-0.7,0.3l-0.5,0.3l-1.7,2l0,0.3l-0.3,0.8l-0.4,0.6l-0.2-0.4l-0.1-0.5l-0.3-0.1l-0.3,0.3l-0.1,0.8
	l-0.1,2.9l-0.2,1.2l-0.3,0.9l-2.8,1.8l-0.8,1.4l-3.4,2.6l-0.8,0.5l-0.8,0.2l-0.8,0.1l-0.6,0.4l-5.8,6.8l-0.6,1.1l-0.3,0.3l0.2,0.4
	l0,0.3l-0.4,0.6l0.6,0.4l0.6-0.3l0.6-0.7l0.6-0.4l2.4,0.2l0.9-0.2l0.3-0.2l0.2-0.3l0.3-0.3l0.5-0.1l0.5,0.2l0.8,0.6l0.9,0.3l0.6,0.7
	l0.5,0.1l0.3-0.1l0.3-0.3l0.5-0.6l-0.5-0.7l0-0.9l0.4-0.8l0.7-0.4l-0.1-0.3l-0.2-0.2l1.5-1.7l0.8-0.7l0.9-0.5l2.9,0l0.8-0.5l0.7-0.4
	l3-1l2.4,0.4l1.2-0.1l1.1-0.8l0.3,0.8l0.4,0.1l0.5-0.3l0.5-0.5l0.1,0.3l0.1,0.1l0.3,0.1l-2.5,1.8l-0.3,0.3l-0.1,0.5l0,1l0.2,0.5
	l0.3,1.1l0.1,1.1l-0.5,0.5l-0.7,0.2l-0.1,0.6l0.2,0.6l0.8,1.7l3.2,3.9l0.7-0.2l0.7-0.6l1.1-0.1l-0.5,0.7l-1.7,1.3l-0.4,0.2l-0.2,0.1
	l-0.1,0.3l-0.2,0.9l-0.1,0.2l-0.8,0.5l-0.9,1.3l-0.7,1.7l-0.1,1.7l0.5,1.1l1.9,2.7l0.6,0.5l1.1-0.2l2.2-0.8l1.1,0v0.5l-2.2,1.6
	l-0.7,0.3l-0.4-0.1l-0.9-0.5l-0.3,0.1l-0.3,0.6l-0.1,0.8l0.1,0.8l0.2,0.6l-0.5,1l-0.5,1.4l-0.4,1.6l-0.4,2.9l-0.6,1.5l-1.2,2.4
	l-2.4,3.5l-5,4.3l-0.8,0.2l-0.9,0.1l-0.7,0.2l-0.6,0.4l-1.3,1.5l-0.8,0.8l-0.8,0.6l-1.2,0.4l-0.3,0.4l-0.2,0.5l-0.3,0.3l-0.5,0.2
	l-5.2-0.2l-1.6,0.8l0.1,2l-1.4-1.1l-0.6,0l-0.8,0.9l-1,1.7l-0.6,0.7l-0.8,0.6l-1.4,0.2l-0.3,0.3l0,0.6l0.2,0.8l0.1,0.7l-0.4,0.3
	l-0.9-0.1l-1.6-0.6l-0.8-0.1l0.3,0.9l-1.2,0.5l-0.8,0l-2.2-1.2l-0.5-0.1l-1.1-0.1l-0.7,0.1l-0.5,0.4l-0.1,0.5l0.5,0.4v0.4h-0.6
	l-0.1,1.8l-1.3,1.2l-1.7,0.6l-1.3,0.2l-0.5,0.3l-1.3,1.3l-0.8,0.3l-1.5,0.1l-0.4,0.4l0.3,0.9v0.4l-0.4,0.3l-0.1,0.2l0.1,0.2l0.1,0.3
	v0.5l-0.3,0.2l-0.3,0.2h0.8l2.3-0.5l0.6-0.5l0.7,0.5l1.7,0.2l0.8,0.6l0.3-0.5l0.6,0.5l0.4,0.8l0.2,1l0,1.1l0.2,1.7l-0.1,0.7
	l-0.7,0.7l-0.7,0.3L149,570l-0.6,0.6l-0.5,0.7l-0.5,0.3l-0.6,0.1l-0.9,0l0.8,0.3l2.1,1.6v0.4l-0.1,0.7l0.6,0l0.5-0.6l-0.4-1.1
	l0.7-0.3l5.9,0.8l0.9,0l3.3-0.8l0.6-0.7l0.2-0.8l-0.6-0.6l0.2-1l-0.2-0.6l-0.5-0.3l-0.7,0l0.5-0.3l2.4-0.2l1.2-0.5l0.5-0.3v0.5
	l-1.6,0.4l-0.7,1.4l0.2,1.6l1.2,1.2v0.4l-0.6-0.3l-0.4,0.1l-1,0.7l-2,0.4l-1.4,0.8L157,575l-0.6-0.1l-1.1-0.4l-0.6,0l0.1,0.2
	l0.1,0.5l0.1,0.2l-3.2-0.5l-0.3,0.5l0.8,0.9l2.1,0.5l0.6,1.3l-0.4,0.7l1,0.7l2.7,0.9l0.4,0.4l0.2,0.1l0.4-0.2l0.4-0.6l0.8-0.4
	l0.4-0.5l0.3-0.6l0.4-0.5l0.6-0.4l0.6-0.2l3.7,0.1l0.7-0.7l0.3-0.2l0.6,0.5l0.4,0.1l0.8-1.9l0.1-0.5v-0.3l0.1-0.1l0.4-0.1l0.1-1.7
	l1.4-1l1.8-0.5l1.2-0.1l3.2,0.4l1.6-0.1l1.4-0.8l-0.6-0.6l-0.3-0.7l0.2-0.5l0.8-0.1l0.4,0.5l0.4,0.3l0.4,0.1l0.3-0.1l0.3-0.6
	l0.2-0.2l0.3-0.7l0.3-0.2l0.3,0.5l0,0.6l-0.2,0.6l-0.2,0.5l-0.1,0.1l0.4,0.8l0.6,0.5l0.8,0.2l0.8-0.1l-0.4,0.6l-0.8,0.1l-1.7-0.2
	l0.5,1.2l1,1.2l1.1,0.9l0.9,0.4l3.3-0.5l0.6-0.4l2.3,1.3l1.7,0.2l0.5,0l0.3-0.3l0.5-0.6l0.2,0.1l0,0.5l0,0.4l-0.9,1.5l-2,0.5
	l-2.1,0.1l-1.3,0.4l-0.3-0.3l-0.3-0.2v-0.4h0.3l-0.3-0.5l-0.3,0.4L188,579l-0.2,0.2l-1.4,0.5l0,1.1l0.4,0.9l0.1,0.7l-0.8,0.6
	l0.1,0.5l0.1,0.2l0.1,0.2l0.7,0.1l2.5,1.1l0.5,0l0.2-0.7l0.4,0l0.5,0.3l0.4,0.1l0.4-0.3l0.6-0.7l0.4-0.4l0.4-0.2l0.4,0l1.1,0.3
	l0.4,0.3l0.3,0.1l0.2-0.1l0.4-0.6l0.1-0.1l0.3,0l0.3,0.2l0.3,0.2l0.1,0.3l0.1,0.4l0.2-0.1l0.2-0.3l0-0.2h1.8l-0.3-0.6l-0.4-0.6
	l-0.3-0.7l0-0.6l0.4-0.4l0.6-0.4l0.6-0.2l4.5-0.6l0.6,0.2l0.4,0.4l0.7,1.3l0.4,0.5l0.7,0.5l0.3,0.4l0.5,0.9l0.5,1.1l0.4,1.3l0.3,1.3
	l-0.1,0l-0.1,0l-0.1,0.1l0.1,0.3l0.4,0.7l0.8,0.8l0.9,0.5l0.8-0.4l0.6,0.1l2.5,2.1l2,2.7l0.8,0.4l10.5,1l3-1.3l0.6,0.1l0.8,0.3
	l0.7-0.9l0.3-1.4l-0.5-1.4l0.3-0.2l0.6-0.1l0.3-0.2l0.2-0.3l0.2-0.8l0.1-0.3l1.1-1.1l0.7-0.5l0.6-0.2l2.4-1.6l0.2-0.4l1.1-1.4
	l0.4-0.3l0.2,0.2l0.2,0.5l0.3,0.5l0.5,0.2l3.6-0.3l1.8-0.6l2.3-1.6l2-0.5l0.8-0.6l1.2-1.4l2.8-3.3l0.4-0.7l0.4-0.4l2.5-1.7l0.6-0.8
	l0.5-0.9l0.6-0.7l0.8-0.3l0.8-0.1l1-0.3l0.8-0.7l0.2-1.3l0.6,0.6l0.1,0.8l-0.3,0.8l-0.7,0.6l-1.8,0.6l-0.7,0.4l-1.4,2l-2.4,2.5
	l-0.3,0.4l-0.3,0.6l-0.2,0.6l-0.1,0.6l-0.1,0.6l-0.4,0.3l-0.4,0.2l-0.4,0.3l-3.7,6.4l-0.9,0.9l-0.9,0.4l-1,0.1l-0.8,0.3l-0.7,0.4
	l-0.7,0.6l-2.9,3.8l-1.6,1.5l-1.3-0.3l-0.9,1l0.6,0.7l-0.3,0.6l-0.6,0.6l-0.3,0.6l0,1l-0.2,0.6l-0.4,0.2l-0.8-0.3l0.5,0.8l0.1,1.3
	l0,2.5l0.1,0.6l0.1,0.4l0.1,0.4l-0.1,0.9l-0.1,0.5l-0.7,1.4l-0.6-0.5l0.6-1l-0.3-0.5l-1.2,0.8l-1.6,0.2l-2.8-0.1l-1.5,0.2l-3,1
	l-4.8,0.2l-0.8-0.4l-1.2-1.2l-5.3-1.2l-3.4,0.1l-5.4-1.4l-0.8,0.1l-1.3,0.7l-0.9,0.2h-3l-0.8,0.1l-1.6,0.6l-7.7,0.7l-3.2,1.3v0.4
	l0.5,0.3l0.3,0.6l0.1,0.7l-0.3,0.7l-0.3,0.1l-1.4-0.1l0.3,0.6l0.7,1.1l0.1,0.4l0.1,0.5l0.5,1.8l0.3,0.6l-0.4,0.3l-0.3,0.4l-0.2,0.4
	l-0.2,0.4l-2.8,3.2l-0.6,0.5l-0.9,0.3l-2.4-0.3l-0.4-0.2l-0.9-0.7l-0.5-0.1h-3.7l-0.2,0.4l0,0.9l0.2,1l0.2,0.5l-0.6,1.7l-0.3,0.6
	l-0.5,2.8l0.2,5.9l-1.2,2.3l-1.8,1.3l-0.8,0.9l-0.3,1.2l-0.5,0.8l-3,2.6l-0.6-0.2l-0.4,0.3l-0.1,0.7l0.3,1l-0.7,1.1l-0.5,1.2l-0.7,1
	l-1.2,0.4l-3.1,0.2l-1-0.2v0.4l0.2,0.7l-0.2,0.6l-0.1,0.6l0.7,0.9l1.4,0.5l0.7,0.4l0.5,0.9l-0.7-0.3l-1.7-0.1l-0.8-0.5l-0.2,0.2
	l-0.1,0.1l-0.3,0.2l0-0.7l-0.1-0.9l-0.2-0.8l-0.2-0.4l-0.3,0.1l-0.6,0.6l-0.3,0.2h-0.9l-0.8,0.7l-0.4,0.9l-0.1,1.1l0,1.3l-0.4,2.6
	l-0.4,0.9l-0.1,0.4l-2.9,1.6l-0.3,0l-0.6,0l-0.5,0.3l0.3,1.3l0.1,0.8l0,0.8l-0.1,0.3l-0.6,0.2l-1.5,1.1l-4.8,5.1l-1.6,0.9h-1.5
	l-0.2,0.2l-0.1,0.6l-0.3,0.6l-0.6,1l-0.9,0.5l-0.8-0.4l-1.3-1.3l-0.9,0l-1.6,1l-1.4,0.5l-2.7,1.6l-1.2,0.5l-0.3,0.2l-0.8,1.4
	l-0.1,0.2l-0.2,0.3l0.1,0.7l0.2,1.2l0.1,0l0.1,0.2l0.1,0.3l0,0.4l-0.2,0.3l-0.3,0.1l-0.4,0l0.4,2l1.6,0.6l2-0.2l1.7-0.6l0.6-0.3
	l0.8-0.6l0.5-0.9l-0.3-1.1l0-0.9l0.8-0.7l1.1-0.4l0.9-0.1l0.7,0.3l1.4,0.9l1.7,0.3l2.5,1.2l0.8,0.6l0.7,0.8l1.2,2l0.3,0.6l0,0.5
	l0,0.5l0.2,0.8l0.2,0.5l0.2,0.3l1.3,1.4l0.4,0.4l0.4,0.1l0.1-0.4l0.5-1.5l1.2-1.5l0.3-0.2l0.5-0.1l0.9,0.2l0.4-0.1l1.2-1.8l0.5-1.2
	l-0.2-0.5l-0.2-0.2l-0.1-0.9l-0.1-0.3l-0.2-0.1l-0.5,0.1l-0.2,0l-0.6-0.4l-0.4-0.1l-0.5,0l1.3-0.6l0.4-0.3l0.2-0.5l0-0.5l0.1-0.5
	l0.4-0.3l0.5-0.4l0.3-0.1l0.4,0l-0.6-0.7l-0.3-0.2v-0.4l0.5-0.7l-0.1-0.8l0-0.6l0.8-0.2l0.5,0.5l0.3,2.3l0.5,0.8l1.8-3l0.6-0.6
	l1.8-0.6l0.7-0.4l0.8-1l0.8-0.3l2.1,0.3l0.4-0.5l0.1-0.4l0.5-1.2v-0.3l-0.2-0.4l-0.1-0.4l0.2-0.4l0.3-0.5l0.4-0.4l0.3-0.2v-0.5
	l-0.3-0.8l0.5-0.5l0.9-0.3l0.9-0.1l0.2-0.1l0.2-0.2l0.2-0.2l0.3,0l0.6,1.8h0.2l0.2-0.1l0.1-0.2l0-0.1l6.9-0.4l1.6-0.6l3.1-1.9
	l1.9-0.2l3.6,0.9l0.7,0.4l0.4,0.9l0.4,0.8l0.9,0.1v-0.4l-0.2-0.5l0-0.4l0.3-0.3l0.5-0.2v-0.4h-1.2l0.3-0.5l-0.8-0.1l-0.3,0.1v-0.4
	l1.5-0.4l-0.9-0.7l-2.4,0.4l-0.7-1l2,0.2l0.6-0.2l0.4-0.5l0.2-0.7l-0.2-0.7l-0.6-0.4v-0.4l0.5,0l0.4-0.2l0.3-0.5l0.2-0.7l0.5,0.4
	l0.4,0l0.8-0.4l-0.4,0.9l-0.6,0.9l-0.3,0.9l0.3,1.1l0.3,0.7l0.2,0.5l0.3,0.4l0.5,0.4l0.5,0.1l1.6-0.1l-0.6,1.2l0.4,1l0.9,0.7
	l0.9,0.3l-0.2,0.6l-0.1,0.2l0.7,0.6l0.4,0.3l0.5,0.1l0.3-0.2l0.6-0.6l0.2-0.2l0.4-0.1l1.1-0.6l0.4-0.1l0.5,0.2l2.8,2.5l2.4,3
	l1.6,1.4l0.6-0.7l0.7,0.1l0.8,0.4l0.9,0.2l0.7-0.1l1.7-0.5l0.6-0.3l-0.3-1.6l0.2-1.5l0.4-1.4l0.2-1.1l0.4-0.6l0.9-0.3l0.9-0.5
	l0.3-1.5l0.7,0.6l0.7,0.2l0.5-0.4l0.3-1.7l0.2-0.3l0.3-0.2l0.4-0.1l0-0.2l0.4-1.1v-0.5l-1.9,0.1l-0.7-0.4l-0.3-1.1l0.3-0.9l0.7-0.5
	l0.9-0.2l1-0.1l-0.8-2.7l0-1.3l0.5-1.8l0.6-1.3l0.6-1.1l0.7-0.9l0.7-0.7l-0.4-0.9l-0.5-2.3l-0.5-0.6l0-0.3l0-0.3l0.1-0.1l0.2,0.1
	l0.1,0.2l0.1,0.1l0.1,0.1l0.2,0.3l0.5,1.6l0.5,1l0.6,0.5l0.7,0.2l0.9,0l3.1-1.4l0.6-0.9l0.4-0.9l0.5-0.7l1.7-0.4l1.4-0.6l0.8-0.1
	l0.5,0.1l0.8,0.4l0.4,0l0.4-0.2l0.7-0.6l0.2-0.1l1-0.8l0.5-0.2l1.6,0.5l1-0.1l1.5-1l3.2-0.7l0.9,0l7.2,2.7l8.8,6.8l1,1.6l0,2.5h0.3
	l0.6-0.9l0.4-1l-0.1-0.8l-1.1-0.4l-0.4-0.6l0.2-1.4l0.5-1.4l0.5-0.7l1.6-0.5l0.9-0.1l1.4,0.9l7.8,0.9l3.2,1.5l0.7,0.2l3.4-0.1
	l0.8-0.4l-0.1-1l1.5-1.8l-0.2-0.1l-0.6-0.4l0.3-1.1l-0.3-0.5l-0.6-0.1h-0.7l-0.8-0.2l-0.5-0.5l-0.9-1.6l-0.5,0.4l-0.5,0.3l-0.5,0.2
	l-0.6,0.1l1.5-2.4l0.4-0.3l0.2,0.2l0.4,0.9l0.1,0.2l0.3,0.1l1.1-0.1l1.6,0.5l0.1,0.4l0.1,0.7l0.2,0.5l0.5-0.3l0.6-0.8l0.7-0.6
	l0.8-0.4l0.8-0.3l0.9-0.1l2.7,0.5l0.8-0.2l1.6-0.9l0.9-0.3l0.9,0l2.9,0.5l0.9,0.6l0.8,0.2l0.1,0l0.1-0.3l1.4-2.5l1.4,0.3l0.2,0
	l0.5-0.4l1.1-0.4l1.9-0.4v-0.4l-0.3-0.3l-0.3-0.2l0.6-0.2l2.7-0.2l0.9-0.3l0.1-0.8l-0.4-0.9l-3.3-3.7l-1-1.3l-0.5-0.1l-0.8-0.5
	l-0.4-0.2v-0.4l5.4,3l1.6,1.9l0.6,0.3l1.4,0.5l1,0.9l1.4,0.7l0.3,0.6l0.3,0.4l0.7,0.4l0.8,0.3l0.5,0l0.6-0.5l0.2-0.7l-0.1-1.3
	l-0.2-0.4l-1.5-1.2l0.6-0.2l2.6-0.2l0.8,0.4l-0.3,0.9l-0.8,1.1l-0.4,1.2l0.9,1l1.1-0.1l0.6-1.3l0.4-1.6l0.5-1.2l0.8-0.2l1.3,0
	l1.3,0.3l0.9,0.5l-0.4,0.9l0.3,0.1l0.5-0.3l0.2-0.2l0.5,0.3l0.8,0.8l0.4,0.3v0.4l-1.2,0.5l-0.6,0.4l-0.2,0.7l0.3,0.4l3.8,2.5l1,0.3
	l0.8-0.5l0.2-0.7l-0.3-1.2l0.2-0.6l0.4-0.2l0.4,0.2l0.3,0.3l0.4,0.1l6.9-2.3h7.2l5.4-1.9l1.5,0.6l1.1-0.6l1.4,0.1l8.7,3.2l1.8,0.1
	l0.8,0.3l0.7,0.7l0.4,0.2l1.5,0l0.5,0.1l1.9,0.7l0.8,0.1l1.6,0l1.6-2.2l1.4-1l0.1-0.3l0.4-0.7l0.5-0.6h0.2l1.6-0.7l9.1-2l1.7-0.8
	l4.1-4l1.7-0.6l6,2l1.5-0.6l-0.4-2.6l-0.1-1.7l0.4-0.8l2.2-3.1l1.6-1.5l0.9-0.6l0.8-0.2l2.8-0.1l0.8-0.3l0.3-0.3l0.4-0.5l0.4-0.4
	l0.5-0.2l0.9,0.1l0.5,0l1.2-0.9l2.8-1l1.1-1.4l0.9-2.1l0.3-2.6l-0.4-2.6l-0.7-1.8l-0.3-1.1l-0.1-1.4l0.2-0.2l1.5,0l0.3-0.2l0.2-0.3
	l0.2-0.4l0.1-0.4l0.4-2.2l-1-0.6l-13.6,1.3l-5.2,1.6l-9-1l-0.5-0.5l-0.6-1.1l-0.5-1.2l-0.1-0.9l-0.9,0l-0.2,0.6l0.2,0.9l0.3,0.8
	l-1.7-0.5h-3.6l-0.4-0.2l-0.3-0.4l-0.3-0.5l-0.3-0.4l0.8-0.5l1.5-0.4l1.3-1.3l0.7,0l1.5,0.3l0.9-0.1l0.4-0.4l-0.1-0.7l-0.5-1
	l-0.6-0.4l-6.7-1l-2.7,0.7l-0.2,0.2l-0.1,0.5l-0.2,0.5l-0.3,0.2l-2.7,0.5l0.6-0.3l0.6-0.2l0.6-0.3l0.6-0.7l0.3-0.8l0.1-0.7l0.2-0.5
	l2.9-0.8l1.2-0.1l0.7,0.7l0.6-0.5l0.5-0.1l0.6,0l0.6-0.2l0.8-0.8l0.1-0.1l0.3,0l0.6,0l0,0l1.2-0.1l3.3,0.5l1.9-0.6l2.4-1.5l2.1-2
	l1.2-1.9l-0.2-0.3l-0.4-0.3l-1.1,0.1l0.6-0.5l0.3-0.3l0.1-0.4v-1.6l0.2-0.6l0.4-0.4l-0.3-0.8l-0.2-0.5l-0.1-0.5l0.1-0.1l0.2-0.5
	l0.1-0.7l-0.1-0.6l-0.7-0.7l-0.7,0.1l-1.2,1l-1.3,0.5l-2.7,0.6l-1.2,1.2l-0.5-1.1l-0.7-0.4l-0.8-0.1l-0.7-0.3l0.9-0.5l1.9-0.8l1-0.1
	l0.4,0.1l0.9,0.4l0.5,0l0.4-0.2l0.7-0.6l0.5-0.1l0.2-0.4l0.2-0.8l0.1-0.8l0-0.4l0.3-0.2l1.3-1.2l1.5-0.8l0.6-0.7l0.1-1.3l0.4,0.9
	l1.4,1.9l0.7,1.4l0.4,0.3l0.8,0.1l2.9-0.4l1.4-0.6l2.2-1.5l2.4-2.2l0.5-1.1l-0.1-1.4l-0.2,0.1l-0.3,0.7l-0.4,0.4l-1.5-0.2l-0.7-0.3
	l-0.5-0.4l3.3-3.4l0.2-1.3l-0.8,0.5l-7-0.4l-1.1-0.5l1.1-0.2l2-0.7l0.9-0.1l1.2,0.8l0.5,0.1l0.5-0.1l0.9-0.3l0.5-0.1l0.9,0.2
	l0.1-0.3l0-1.1l-0.2-0.3l-0.4-0.2l-1.9-0.4l-0.9-0.6l-1.5-1.4v-0.5l1.2,0.2l2.1,1.7l1.2,0.4l2.9,3.7l0.5-0.2l0.5-0.8l2.9-3.3l1-1.6
	l0.3-0.2l0.3-0.5l0.1-0.9l0.2-0.6l0.6,0.5l0.7-0.8l3.3-1.4l0.2-0.4l0.1-0.9l0.6-1.9l0.2-1.2l0.8-2.4l0.2-1.3l-0.1-3.1l0.1-1.8
	l0.4-0.8l0.5-0.5l1.3-2.4l1.9-4.9l0.1-0.6l0-0.7l1.1-3.6l0.5-0.7l0.2-0.6L440.4,517.1z M321.2,640.1l-0.4,0.1l-0.1-0.1l0-0.2
	l0.1-0.6l0-0.2l-0.5-0.4l-0.4-0.1l-1,0l-6.4-2.6l-1,0.1l-1.1,0.7l-1.4,1.8l-1,0.8l-1,0.1l0.1-0.2l0.1-0.5l0.1-0.2l-3.7,1.7l-1.6,1.4
	l-1,1.9l0.8-0.5l0.7-0.3l1.6-0.2l0.5,0.2l1.4,1l0.3,0.4l5.5,3.9l1.5,0.4l4.7-1.4l0.1-0.3l0-0.7l0-1.4l0.1-0.3l0.3-0.3l1.2-1l0.7-0.3
	l1.6-0.5l0.1-0.2l0.1-0.2l0.1-0.1l0.2,0v-0.5l-0.9-1.4L321.2,640.1z M128.4,397l0.1,0.6l0.3,0.1l0.4-0.2l0.3-0.2l0.3-1.5l0.2-0.1
	l0.5,0.1l0.2-0.1l1.4-1.4l1.1-1.7l0.5-2.1l-0.4-2.7l-1.2-1.3l-1.8,0.5l-1.9,1.2l-1.7,0.6l0.5-0.8l1.5-1.3l0.3-0.7l1.2-3.8l-0.3-0.4
	l0.2-0.5l0.1-0.2l0-0.3l-0.5-0.2l-0.3-0.6l0-0.8l0.2-0.9l-1.3-0.7l0.3-0.3l0.9-0.2l0.7-0.3l-0.5-0.4l-1.6-0.1l-0.3-0.2l-0.4-0.4
	l-0.5-0.3l-0.6,0l0.4-0.4l0.4-0.6l0.1-0.7l-0.3-0.7v-0.5l1.3,0.1l1.1,0.7l2.9,2.8l0.7,1.2l0.4,1.7l0.2,2.2l-0.2,1.1l-1,1.2l-0.3,0.8
	l0.1,0.8l0.3,0.8l0.4,0.6l0.5,0.3l0.4,1.4l0.4,1l0.5,0.5l0.6-0.1l0.5-1l0.6-0.3l-0.6-0.8l0.2-0.6l0.6-0.5l0.4-0.6l0.2-1.2l-0.3-1.2
	l0.3-0.9l0.8-1.3l0.2-0.4l0-0.4l-0.1-0.3l0-0.4l0.3-0.7l-0.3-0.2l-1.3-2.1l-0.2-1l-0.2-2.9l-0.3-0.6l-0.7-0.4l-0.5-1.1l-0.7-2.5
	l-0.1-0.7l0-0.6l-0.1-0.4l-0.4-0.2l-0.4-0.2l-0.5-1l-0.2-0.2l-5,0.8l-0.9-0.1l-0.7-0.5l-0.7-0.3l-0.9,0.4l-1.4,1.1l-1.5,0.7
	l-0.4,0.5l-0.9,1.5l-0.5,0.4l-0.2,0.5l-0.3,0.4l-0.5,0l-0.1-0.4l0-0.7l-0.2-0.6l-0.5-0.3l1.5-2.9l0.8-1.1l1.1-1l1.1-0.6l2.5-0.7
	l1.2-0.6l0.9-1.1l0.6-1.6l0.1-2l-0.5-2.3l-0.8-1.2l-1.3-1.2l-1.3-0.3l-0.7,1.2l2.7,2.9l0.8,1.6h-0.3l-1-1.5l-1.2-0.5l-1.1-0.7
	l-0.4-2l-0.1-1.1l-0.3-0.9l-0.4-0.7l-0.4-0.6l-0.3-0.4l-0.7-0.6l-0.3-0.3l-0.3-0.6l-0.3-1.2l-0.2-0.5l-0.9-1.3l-1-0.9l-1.1-0.6
	l-1.2-0.2l-0.1-0.5l0.8-2.7l0.1-1.3l-0.3-0.7l-0.5-0.5l-0.6-0.3l-0.6-0.1l-0.8,0.1l-0.8-0.1l-0.3-0.6l0.6-1.6l0.3-1.2l0.2-4.1
	l-0.4-0.8l-1.6-1.7l-0.3-0.2l-0.4-0.6l-0.8-0.4l-1.6-0.3l-0.8,0.1l-1.6,0.7l-0.9,0.2l-0.7-0.2l-4.1-2.3l-1.1-0.3l-1.6,1.1l-1-0.3
	l-1.5-0.9l-0.9,0.1l-0.9,0.5l-0.8,0.7l-0.6,0.9l-0.7,0.5l-2.9,0.2l-4.8,2.2l-5.4,0.3l-0.8-0.3l-1.8-1.2l-0.7,0.1l-0.3,1l-0.3,3.3
	l-0.5,0.7l-0.5,0.5l-0.5,1.2l-0.3,1.3l0,0.9l-0.6,0.4l-0.9,1.2l-0.5,0.4l-1.4,0.2l-1.4-0.2l-1.8-1l-0.7-0.1l-1.9,0.6l-0.7,0l0.4-1.4
	l-0.3,0.1l-0.5,0.2l-0.4,0.5l-0.3,0.5l-0.3,0.4l-2.7,0.4l-0.5,0.4l-0.4,0.5l-1.2,1.9l0.2,0.6l-0.1,0.1l-0.2,0.1l-0.2,0.5l0.2,1.9
	l-0.1,0.6l-0.4,0.6l-0.8,0.3l-0.3,0.5l-0.2,0.9l0.2,1.9v0.8l-0.4,1.6l-0.7,1.3l-3.1,3.8l-0.3,1l-0.1,1.8l0.1,0.5l0.2,0.3l0,0.2
	l-0.5,0.2l-0.4,0l-0.8-0.4l-1.3,0.4l-1.4-0.4l-0.8,0.4l-1.5,1.5l-1.4,0.8l-1.4,0.1l-1.4-0.7l-1.2-1.1l-0.6,0l-1.4,1.5l-2.1,1
	l0.7,0.6l0.3,0.1l-0.3,1.1l0.3,0.8l0.7,0.5l0.7,0.2l0.4,0.2l0.4,0.9l0.3,0.4l0.4,0l0.7-0.5l0.3-0.1l0.6,0.3l1.3,1.2l0.7,0.3l0.7-0.3
	l0.7-0.5l0.5,0.1l0.1,1.5l-1.7,0.6l-4.2,4l-1.6,0.6l-1.7-0.1l-3.2-0.7l-0.9,1l-0.9,1.3l-0.5,1.1l-0.2,0.3l-0.5,0.5l-1,0.6l-2.2,0.7
	l-1,0.6l0.5,0.5l0.1,0.6l0.1,0.6l0.4,0.6l1,1.1l1.8,2.5l1,1l1.1,0.6l1.2,0l0.9,2.3l0.5,1l0.7,0.8l0.7,0.3l1.6,0.3l0.6,0.5l0.3,1.1
	l0.2,3.2l0.6,1.1l0.8,0.5l2.3,0.3l2.5-0.2l0.8,0.2l3,2.3l0.3,0.5l0.1,0.6l0.1,0.6l0.5,0.4l4.5,1.1l0.9-0.2l1.7-1.4l1,0.1l-0.5,0.6
	l0.1,0.1l0.4-0.1l0.3,0.1l0.3,0.6l0.1,0.3l0.2,0l0.6-0.1l2,0.7l0.7-0.1l-1-2v-0.5l0.3-0.4l1.3-0.7l0.1,0.2l-0.1,0.5l-0.1,0.6l0,0.8
	l0,0.7l0.2,0.3l0.6-0.3l0.4-0.4l0.3-0.6l0.1-0.7l-0.2-0.7l0.8-0.4l-0.1-0.4l-0.4-0.3l-0.2-0.3l0.2-0.7l0.3-0.5l0.3-0.4l0.5-0.4
	l2.3-0.6l0.9-0.6l-0.3-1.2l0.6-0.8l-1.5-1.3l0.3-1l-1.4-0.7l-0.1-0.8l0.2-0.1l0.3,0.1l0.2-0.3l0.1,0l0.3-0.7l0,0l-0.1-0.1l-0.2-0.4
	l-0.1-0.4l0.1-0.3l0.3-0.2l0.7,0.1l0.3,0l1.4-1.1l2-3.2l1.2-1.2l1.3-0.1l1.4,0.7l2.6,2.2l0.3,0.5l0.4,1.2l0.3,0.2l0.5,0.1l0.3,0.3
	l0.9,2.5l0.1,1l-0.3,0.7l-0.7,0.4l1.5,0.8l0.4,0.4l0.2,0.6l0.1,0.7l0.2,0.7l0.7,1.1l0.8,1l0.9,0.8l0.9,0.6l0.5,0l0.3-0.4l0.3-0.5
	l0.5-0.3l0.5,0.1l0.4,0.3l0.9,0.8l1,1.1l0.2,1.3l-0.4,1.3l-0.9,1.2l0.4,0.8l-0.1,0.8l-0.7,1.7l0.6,0.5l1.1,1.4l0.6,0.3l0.2-0.1
	l0.4-0.7l0.2-0.2l0.3-0.1l0.6,0.3l0.3,0l3.6-1.3l1.2-0.1l0,0.1l0.2,0.3l0.2,0.3l0.3,0.2h0.3l1.1-0.4l1-0.2l0.3-0.3l0.2-0.6l0-0.6
	l-0.1-0.5l0.1-0.4l0.6-1l0.3,0.1l0.3,0.5l0.5,0.4l0.6-0.1l0.6-0.3l0.6-0.1l0.6,0.5l0.3-0.5l0.9,0.4l1.3,0.1l1.1,0.4l0.5,1.3l0.5,0
	l3.2,1.2l-0.3,0.1l-0.8,0.4v0.5l0.7,0.5l0.7,0.1l1.6-0.1l0.6-0.3l1.8-1.4l1.3-1.4l1.8-0.9l0.8-1l0.4-1.1l0.4-1.4l0.3-1.5l0.1-1.4
	l-0.1-2.7l0.3-0.9l0.8-0.3l0.8-0.2l1.8-0.7l1.8-0.2l2.4,0.2L128.4,397z M143.8,572.2l0.4-0.1l0.1-0.2l0.3,0l0.4-0.3l-0.4-0.2
	l-0.5-0.3l-0.7,0.2l-0.2,0.2l0.2,0.4l0.2,0.1l0.2,0.1V572.2L143.8,572.2z M326.7,634.5l-0.2-0.2v-0.4l0.4-0.3l0.1-0.4l-0.1-0.4
	l-0.4-0.4l-0.5,0l-1.1,1.9l-0.9,0.4v0.4l3.5,0.5v-0.5l-0.3-0.2L326.7,634.5z M164.8,501.8l-0.1,0.6l0.3-0.5l0.2,0l0.3-0.1l0.2-0.6
	l-0.1-0.3l-0.5-0.1L164.8,501.8z M174.3,465.7l-0.1-0.9l-0.4-0.8l-0.6-0.8l-0.6-0.6l-0.3-0.3l-0.8,0.1l-0.5,0l-0.5-0.3l-1.1,1v0.5
	l0.7,1.2l0.3,0.1l1.2-0.1l0.4,0.1l0.4,0.5l0.9,1.6l0.9,0.8l0.4,0.2l0.4-0.2l0.2-0.7l-0.2-0.6l-0.4-0.4L174.3,465.7z M133.9,238.1
	l0.8-0.9l0.6-1.3l-0.4,0.4l-0.6,0.1l-1.3-0.1l-0.7,0.9l-0.2,0.5l-0.2,0.7l1.1,0L133.9,238.1z M168.8,577.9l-0.1,0.3l0.2,0.3l0.1,0.1
	l0.2-0.1l0.3,0.3l0.4-0.1l0.2-0.4l-0.5-0.4L168.8,577.9z M187.2,458.3l-0.1-0.8l-0.2-0.8l-0.4-0.4l-1.6-0.9l-0.8,0l-2.9-0.5l-0.5,0
	l-5.4,1.8l-0.7,0.6l0.4,1l0.1,1l-0.2,2.3l0,1.5l-0.1,1.1l-0.2,0.7v0.5l0.8,0.9l1.4,2.8l0.9,0.8l0.1,0.5l0.1,0.5l0,0.2l0,0.2
	l-0.1,0.6l0,0.2l0.1,0l0.3-0.1l0.1,0.1l1.4,1.2l0,0.2l0.6-0.3l0.9-1.3l0.6-0.3l0.4,0.3l-0.2,0.7l-0.5,0.6l-0.3,0.3l-0.1,0.3
	l-0.1,0.6l0,0.6l0.1,0.4l0.3,0.1l0.3-0.1l0.3-0.2l0-0.2l1.1,0.5l0.5,0.1l0.4-0.1l2.7-1.6l0.7-0.8l1.5-1.1l0.2,0.1l0.1-0.1l0-0.6
	l0-0.5l0-0.3l0.1-0.2l0.2-0.2l0.8-0.9l1-0.8l1.1-0.5l1-0.2l1-0.6l1.5-2.8l0.9-1l-0.5-0.4l-0.6-0.1l-1.2,0.1l-0.2-0.1l-0.5-0.4
	l-0.3-0.1l-0.2,0.2l-0.4,0.7l-0.2,0.2l-0.5,0.1l-1,0.3l-0.5,0.1l-0.5-0.1l-0.2-0.4l-0.1-0.6l-0.2-0.8l-0.7-0.8l0-0.1l-0.1-0.2l0-0.4
	l0-0.5l0-0.4l-0.2,0l-0.6-0.3l-0.5-0.4l0-0.2L187.2,458.3z M142.3,562l-0.2,0l-0.4,0.3l0.1,0.4l-0.1,0.2l0,0.5l0.3,0.1l0,0.2l0.1,0
	l0.2-0.1l0.2-0.4l0-0.6l0.1-0.5L142.3,562z M170.3,610.4l0.3-0.3l0-0.8l-0.1-0.4l-0.1-0.3l-0.2-0.5l-0.2,0.1l-0.1,0.8l0.1,0.9
	L170.3,610.4z M155.9,285l0.1-0.4l-0.4-2.3l-0.3-1l-0.4-1l-0.5-1l-0.4-0.3l-0.4-0.1l-0.3-0.4l-0.2-1.7l-0.3-0.2l-0.4-0.1l-0.4-0.2
	l-1.3-1.4l-1.3-1.1l-1.4,0.7l-0.1,1.2l0.5,1.3l0.3,1.1l0.3,0.6l1.5,1l0.1,1l0.5,2.1l0.4,1.2l2.8,2.6l0.5,1.3l0.4,0.6l0.5,0l0.3-0.5
	l-0.1-0.6l-0.3-0.6l-0.4-0.3l0.4-1L155.9,285z M67.6,104.2l0.2,0.3l-0.2,1l0.3,0.4l1.2,2.6l0.3,0l1.8-1.3l-0.2,0.6l-0.3,0.5
	l-0.3,0.4l-0.4,0.3h1.2v0.5l-0.5-0.1l-0.4,0.1l-0.3,0.4l-0.2,0.7l1.2,0l4-1.1l-2.6,1.5l-1.4,0.5l-1.3,0.2l0.1,0.2l0,0.1l0,0.1
	l0.1,0.2v0.5l-0.8,0l-0.6,0.5l-0.5,0.7l-0.7,0.6l2,1.5l0.4,0l0.5-0.5l0.3,1.3l1.1,0.4l2.4-0.1l0.6,0.3l1.1,1.1l0.6,0.3h2.4v0.5
	l-0.3,0.1l-0.8,0.5l0.1,0.3l0.1,0.2l0.3,0.4l-1.3-0.3l-1.3,0.3l-2.1,1.3v0.5l2,1.6l-2-0.1l-1,0.3l-0.5,0.9l-3.4,3.2l-0.2-1l-0.2-0.7
	l-0.3-0.4l-0.5-0.1l-0.7,0.2l0,0.5l0.3,0.6l0.2,0.6l0.5,0.3l2.5,3.2l0.4,0.2l2.1,2.5l0.3,0.1l0.8-0.8l2.6-1.8l0.9-0.9l-0.2-0.2
	l-0.2-0.2l-0.2-0.2l1.1-0.9l0.5-0.5l0.5-0.8l-0.3-0.3l-0.4-0.6l-0.2-0.2l0.3-0.6l2,1.5l0.9,0.2v-0.5h-0.3v-0.5l0.7,0.1l0.8-0.2
	l0.6-0.4l0.2-0.6l-0.2-0.4l-1-1.8l-0.4-0.3l-0.9-0.4l-0.5-0.3l0.3-0.6l0.2-0.5l0.2-0.4l0.4-0.3l1.5,0.9l3.4,0.9l-0.2-1.7l-0.1-0.5
	l-0.2-0.2l-0.3-0.1l-0.4-0.2l-0.3-0.5l0.3-0.1l0.2-0.2l0.2-0.2l0.2-0.2l-0.4-0.6l-0.4-0.7l-0.5-0.6l-0.6-0.3l-0.5-0.5l-0.9-2.4
	l-0.5-0.9l0.8-0.5l1.2-1.1l1-1.3l0.2-0.9v-0.5h4v0.5l-1.6,0.1l-1.5,0.5l-1.2,1.2l-0.6,2.1l0.1,1.1l0.3,1.1l1.1,2.4l0.3,1l0.2,0.4
	l0.4,0.4l1.3,0.7l0.3-0.5l-0.3-0.5l-0.4-1l-0.2-0.9l0.2-0.4l0.4,0.2l0.2,0.4l0.4,1.1l0.5,0.8l0.6,0.6l0.8,0.2l0.9-0.5v-0.6l-0.2-0.2
	l-0.2-0.2l-0.2-0.1v-0.6l0.8,0.2l0.5,0.3l0.5,0l0.8-0.6l0.4-0.5l0.7-1.3l0.4-0.3v-0.5l-0.6-0.8l-1.5-0.5l-0.7-0.7l-0.9-0.4l-0.4-0.3
	l0.2-0.6l0.2,0l0.9,0.4l3.9,0.7l1-0.3l0.7-0.7l0.6-0.9l0.8-0.9l-0.5,0.1l-0.5-0.1l-0.5-0.2l-0.4-0.3l0.4-0.1l0.4-0.2l0.4-0.3
	l0.3-0.5l-0.4-0.5l-0.2-0.1l0.1-1l-0.2-1l-0.4-0.8l-0.6-0.4l-0.6,0.1l-1.3,0.8l-5.5,1.3l-1.6,0v-0.5l0.7,0.1l2.2-0.6l1.2-1.1
	l0.4,0.1l0.6,0.5l0.4,0l0.6-0.4l1.4-1.8l2.1-0.5l0.7-0.6l-0.2-0.6l0-0.4l0.1-0.3l0.4-0.4l-0.5-0.9l-1-2.9l0.6,0l1.3,0.8l0.7,0.2
	l1.9-0.2l0.7,0.2l1.2,0.9l0.6,0.1l0.8-0.4l0.2-0.2l0.4-0.8l0.3-0.4l0.4-0.3l1.1-0.5l-0.2-0.8l-0.1-0.3l0.2-0.3l0.2-0.5l0.2-0.4h-0.3
	v-0.5l0.4-0.6l-0.4-0.1l-0.8,0.3l-0.6,0.4l-2,2.2l-1.2,0.5l-1.7,0.1l-1.5-0.5L99,94.6l1.2,0l0.5-0.2L101,94l0.1-0.6l-0.1-0.7
	l0.1-0.6l1.2-0.5l0.4-1.1l0.5-0.3l0.5-0.1l0.3-0.3l0.1-0.5l-0.2-0.7l0.7-0.8l1.9-1.4l0.9-0.5v-0.6l-0.6,0l-0.6-0.2l-0.5-0.4
	l-0.4-0.5l1-3.3l0.3-0.5l0.8-0.4l-0.1-0.8l-0.8-1.3l-0.2-1.3l-0.5-1.5l-0.7-1.4l-0.9-1l-1-0.1l-1.2,1.2l-2.1,2.7l-7.5,5.8l-1.1,1.4
	l-0.4,0.3l-2.7,1.4l-1.1,0.3h-1.4l-0.3,0.2l-0.3,0.4l-0.3,0.2l-0.5-0.3l-0.9,1.3L80,90.7l0.5,0l0.3,0.2l0.2,0.4l0.2,0.6l-0.3,0
	L80.6,92l-0.2,0.2l-0.2,0.2l0.2,0.5l0.2,0.4l0.5,0.7l0.1,0.2l0.2,0.7l0.1,0.2l0.3,0.1l0.6-0.2l0.2,0.1l0.2,0.5l0.2,1.2l0.2,0.5
	l0.4,0.4l1.1,0.7l-1.1,1.7l-0.5-1.2l-1-1l-1.1-0.5l-0.7,0.2l-0.4,0.3l-1.9,0.5l-0.1,0.2l-0.1,0.6l-0.2,0.6l-0.4,0.3l0.2,0.8l0.6,1.4
	l0.3,0.5l-0.1,1.1l0,0.4l0.1,0.7l-0.6-0.8l-0.6-1.5l-0.4-1.7l0.1-1.2l-0.5-0.6l-0.9-1.4L75,96.7l1.3,0.1v-0.5l-2.3-1.1l-0.3,0.3
	l-0.3-0.1l-1.6-0.9L71,94l-0.8,1L70,95.5l-0.1,1l0.2,1l0.4,0.4l1.1,0.5l-0.9,0.4L67.6,99v0.5l0.2,0.1l0.3,0.3l0.3,0.1l-0.2,0.4
	l-0.1,0.3l-0.2,0.2l-0.4,0.1l0,0.8l-0.5,0.7l-0.1,1l0.2,0.4L67.6,104.2z M69,122.9l0.6,0l0.4-0.2l0.3-0.5l0.2-0.9l1.5,1l0.5-0.3
	l0-1.7l-0.8-0.5l-0.9,0.4l-1.7,1.7L69,122l0,0l0,0.2L69,122.9z M52,147.2l0.5,0.3l0.3,0.1l0.3-0.2l0.3-0.4l0.3-0.5l1.3,0.3l2.5,1.7
	l1.4,0.1l-0.8,0.5l-0.4,0l0.3,0.4l0.2,0.4l0.1,0.4l0.5,0.9l0.2,0.2l0.4,0.3l0.7,0.2l1.5-0.1l0.7,0.5l0.7-0.6l0.9-0.2l1.8,0.1
	l0.9-1.6l0.1-0.5l-0.2-0.5l-0.3-0.3l-0.7-0.3l-0.8-0.1l-2.5,0.7h-3v-0.6l1.8-1.5l0.5-0.2l0.2,0.3l0.4,1l0.3,0.3l0.3,0l0.6-0.4
	l0.3-0.1l2.5-0.2l1-0.7l0.8-1.7l-1.4,0.5l-0.7,0l-0.3-0.7l-0.1-1.1l-0.4-0.4l-1.2,0.1v-0.6l0.3-0.5l0-0.3l-0.3-0.2l-0.5,0v-0.6h1.9
	l1,0.9l0.5,0.2l0.3,0.3l0.3,0.6l0.4,0.5l0.6,0.1l0.3-0.3l0.7-1.3l0.4-0.4l-0.4-1l-0.8-0.5l-0.9,0l-0.6,0l-0.6-0.4l-1.3,0.7l-0.7-0.4
	l0.7-0.5l0.3-0.7l-0.2-0.7l-0.5-0.7l-1.2,0.2l-2,1.5l-0.9,0.4l0.6,0.5l0.3,0.1v0.5l-0.9-0.1l-2.3-1l0.4-1l0.2-0.3l0.3-0.3V138l-1,1
	l-1.3,1.9l-1.3,1.3l-0.8-1l0.8-0.5l0.3,0v-0.5l-2.9,0.5l-0.9-0.5l-0.7,1.3l-0.6,1.6l-0.7,1.3l-1,0.7v0.5l1.9,1.4L52,147.2z
	 M65.2,135.9l0.8-0.9l-0.4-0.8l-0.8,0.2l-1.8,2l1,0.1L65.2,135.9z M105.5,232.3l2.2-0.1l-0.4-0.9l-1.3-1.1l-0.6-0.7l-0.6,0l-0.5,0.3
	l-0.5,0.5l-0.4,0.7l1.1,1L105.5,232.3z M78.7,231l0.9-0.2l0.8-0.7l0.1-1.3l2.5-0.3l0.6-1l-0.5-1.3l-1.1-0.1L80,227l-0.9,0.2l-1.6,1
	l-0.9,0.3l-2.8,0.5l-0.9,0.5l0.4,1.3l0.2,1.2l0.4,0.9l2.6,1.2l0.9,0l-0.2-1.4l0.8-1.3L78.7,231z M77.7,95.4l0.5,0.3v0.5l-0.1,0
	l-0.4,0v0.5h3.4L80.9,96l-0.3-0.6L80.3,95L80,94.6l-0.4,0.3l-1.4-1.6l-0.8-0.4l-0.3,0.8l0.2,0.9L77.7,95.4z M52.3,196.1l0.7-0.1
	l0.7-0.3l0.4-0.5l-0.2-0.7l0.3-0.2l0.3-0.3l0.3-0.4l0.3-0.5l0.4-0.3l1.2,0l-0.4-0.4l-0.2-0.6l-0.1-0.6l-0.2-0.5l-0.4-0.3l-1.4-0.7
	l0.3-0.3l0.6-1.3l-0.2-0.2l-0.2-0.2l-0.2-0.1l-0.3,0l-0.3-0.4l-0.1-0.1l-0.2,0l-0.3,2.1l-0.8,0.7l-1,0.2l-1,0.8l0.4,0.6l0.1,0.9
	l-0.2,0.8l-0.5,0.4l-0.7,0.3l-0.5,0.7l0,0.7l0.6,0.3L52.3,196.1z M100.3,689.7l-0.1-0.1l-0.2-0.2l-0.3,0l0,0.5l0.3,0.7l0.4,0.2
	l0.3-0.5l-0.1-0.5L100.3,689.7z M60.7,173.7l0.8-0.4l0.3-0.6l0.4-1.6l0.2-0.7l0.5-0.6l0.5-0.3l0.4-0.4l0.2-1.1l-0.7,0.1l-0.5-0.4
	l-0.4-0.6l-0.5-0.5l-0.7-0.2l-1.3,0l-0.6-0.3l-0.5-0.9l-0.2-0.2l-1-0.5l-0.3-0.1l-0.4,0l-0.3-0.2l-0.1-0.7l-0.1-0.3l-0.2-0.4
	l-0.3-0.3l-0.3-0.2l1-0.5l0.8,0.8l0.8,1.2l1.7,1l0.8,0.8l0.9,0.4l1.2-0.6v-0.5l-0.9-0.1l-1.3-1.3l-0.9-0.2v-0.5l0.8,0.3l0.3,0
	l0.4-0.3l-3.8-2.7l-0.4,0l-1.9,1l-0.8,0.6l1.1,3.5l0.5,2.4l-0.3,1.1l-0.5,0.2l-0.2,0.5l-0.1,0.7l-0.2,0.8l-0.6,1.5l-0.3,0.5
	l-0.5,0.6l0.6,0.2l0.5,0.4l0.7,1v0.5l-0.2,0.9l0.2,1.3l1.1,4.1l0.4,0.8l1.2,1.5l1.3-0.8l3.5,0.7l1-1v-0.5l-0.8-0.1l-0.5-0.6
	l-0.5-0.8l-0.7-0.6l-0.6-0.1l-1.5,0.2l-0.7-0.1v-0.5l1.6-0.1l0.8,0.2l0.7,0.5l0.5-0.9l0.1-1.5l-0.2-1.6l-0.4-1.2l-0.7-0.8l-2.7-0.8
	v-0.5L60.7,173.7z M99.5,689.8l-0.2-0.2l-0.2,0.1L99,690l0,0.3l0.1,0.2l0,0.2l0,0.1l0.2,0l0.2-0.4L99.5,689.8z M101.8,691.3
	l-0.4,0.5l-0.1,0.9l0.5,0.3l0.4-0.3l0.1-0.6l-0.3-0.6L101.8,691.3z M61.1,154.5L61.1,154.5l0.1-0.4l-0.5,0.1l-0.4,0l-0.3-0.2
	l-0.3-0.4l-0.5,0.5l-0.5,0.1l-0.5-0.2l-0.5-0.4l-1,0.1l-0.8,0.7l-0.6,1.2l-0.2,1.5l0.5,0.9l3.3,2l1.1,0.3l3.6-1.1l0.1-0.5l-0.3-0.5
	l-0.6-0.3l-1,0l-0.4-0.3l-0.2-0.8l0.8-0.1l1-0.9l0.6,0.3l0.3-0.5l-1.2-0.9l-0.3-0.1l-0.4,0.1l-0.4,0.2l-0.3,0l-0.4-0.3L61.1,154.5
	L61.1,154.5z M102.7,689.4l-0.2,0h-0.2l-0.2-0.2l-0.2-0.3l-0.1,0l-0.3,0.3l0.1,0.2l0.6,0.5h0.5l0.4-0.4l-0.2-0.2L102.7,689.4z
	 M4.8,127.1l-0.7-0.5l0.4,1.6l0.8,0.6l0.9-0.2l0.7-0.9l-0.7-0.4L4.8,127.1z"/>
<circle class="st1" cx="235.1" cy="374.5" r="11.5"/>
</svg>
