<svg xmlns="http://www.w3.org/2000/svg" xmlns:xlink="http://www.w3.org/1999/xlink" x="0px" y="0px" viewBox="0 0 238.9 76">
<g>
	<g>
		<path d="M14.5,1.7c4.5,0,9.4,2.2,9.4,8.3c0,4.2-2.9,5.7-4.3,6.5c1.8,0.6,5.5,2.6,5.5,7.7c0,4.7-3.7,8.9-10.8,8.9h-14
			V1.8L14.5,1.7L14.5,1.7z M13.9,14.5c2.5,0,4.1-1.3,4.1-3.8s-1.8-3.8-4.2-3.8H6.5v7.6C6.5,14.5,13.9,14.5,13.9,14.5z M13.9,27.9
			c3.2,0,5-1.5,5-4.2c0-2.5-1.7-4.2-4.8-4.2H6.5v8.4H13.9z"/>
		<path d="M41.3,14.6c-3.9,0-6.2,1.5-6.2,5.4v13.1h-6V8.6h5.8v3.6c1.1-2.3,3.4-3.6,6.4-3.6h1.8v6.1L41.3,14.6L41.3,14.6
			z"/>
		<path d="M46.6,6.3V0.7h6v5.6H46.6z M46.6,33.1V8.6h6v24.5H46.6z"/>
		<path d="M71.1,33c-0.7,0.1-1.1,0.2-1.6,0.2c-0.9,0.1-2,0.1-3.2,0.1c-4.8,0-6.5-1.7-6.5-5.7v-14h-3.7V8.5h3.7V1.7h6
			v6.8h5.4v5.1h-5.4v12.2c0,1.8,0.5,2.1,2.5,2.1c0.6,0,1.2,0,1.7,0c0.3,0,0.6,0,1.1-0.1V33z"/>
		<path d="M89.7,17.2v-0.9c0-1.9-0.8-3.2-4.4-3.2c-4.5,0-4.7,2.5-4.7,3.4h-5.8c0-3.6,1.5-8.3,10.7-8.3
			c8.7,0,10.3,4.3,10.3,7.9v13.5c0,1,0,1.8,0.1,2.4l0.2,1h-6.2v-2.5c-1.7,1.7-4.2,2.8-7.6,2.8c-4.8,0-8.5-2.8-8.5-7.7
			c0-5.6,5.3-6.8,7.5-7.2L89.7,17.2z M89.7,21.8l-2.4,0.4c-1.3,0.2-2.9,0.4-3.8,0.6c-1,0.2-1.9,0.4-2.6,0.9c-0.6,0.5-0.9,1.2-0.9,2
			c0,0.7,0.3,3,3.6,3c2,0,3.7-0.7,4.7-1.7c1.2-1.2,1.4-2.7,1.4-3.9C89.7,23.1,89.7,21.8,89.7,21.8z"/>
		<path d="M116.7,33.1V17.9c0-2.9-1.6-4.5-4.3-4.5c-3,0-5.3,1.9-5.3,5.9v13.8h-6V8.6h6v2.6c1.4-1.7,3.8-2.9,7-2.9
			c5.5,0,8.7,3,8.7,8.1v16.8L116.7,33.1L116.7,33.1z"/>
		<path d="M143.5,33.1V17.9c0-2.9-1.6-4.5-4.3-4.5c-3,0-5.3,1.9-5.3,5.9v13.8h-6V8.6h6v2.6c1.4-1.7,3.8-2.9,7-2.9
			c5.5,0,8.7,3,8.7,8.1v16.8L143.5,33.1L143.5,33.1z"/>
		<path d="M154.7,6.3V0.7h6v5.6H154.7z M154.7,33.1V8.6h6v24.5H154.7z"/>
		<path d="M187.6,24.2c-0.5,5.3-4.1,9.2-10.9,9.2c-6.8,0-11.8-4.3-11.8-12.4c0-8.6,5-12.8,11.7-12.8
			c6.1,0,10.3,3.2,11,9.4h-6.2c-0.3-2.7-2-4.3-4.7-4.3c-3.2,0-5.6,2.2-5.6,7.6c0,5.4,2.2,7.6,5.4,7.6c2.6,0,4.5-1.5,4.8-4.2h6.3
			V24.2z"/>
		<path d="M206.9,33.1v-2.3c-0.9,0.9-3.1,2.6-7,2.6c-5.5,0-8.3-3.8-8.3-8.4V8.5h6v15.3c0,3.2,1.6,4.6,4.2,4.6
			c3.4,0,5-2.4,5-5.5V8.4h6v24.5h-5.9V33.1z"/>
		<path d="M231.8,15.8c0-2-1.7-2.9-4.3-2.9c-1.7,0-4,0.5-4,2.5c0,1,0.6,1.7,1.7,2c2.4,0.7,6.7,0.7,9.8,2.2
			c1.9,1,3.4,2.6,3.4,5.7c0,4.3-2.3,8.1-11,8.1c-9.2,0-10.5-5-10.5-8.1h6c0,2.5,2.2,3.3,4.8,3.3c3.4,0,4.5-1.2,4.5-2.7
			c0-1.9-2.4-2.2-5.1-2.6c-1.4-0.2-2.9-0.4-4.3-0.8c-2.9-0.9-5.4-2.6-5.4-6.7c0-4.9,4.6-7.5,10.2-7.5c9.2,0,10.1,5.7,10.1,7.5H231.8
			z"/>
	</g>
	<g>
		<path d="M74.2,52.8c-0.2-1.7-0.5-4.7-5.8-4.7c-3.6,0-5.4,1.4-5.4,3.7c0,4.7,8,3.4,13.4,6.1c2.6,1.2,4.7,3.2,4.7,7.2
			c0,6.9-5,10.2-12.8,10.2c-6.9,0-12-3.4-12.2-10.4h6.4c0,3.4,2.1,5.1,6,5.1c2.7,0,6.3-0.7,6.3-4.3c0-5.2-10.6-2.7-15.6-7.1
			c-1.5-1.3-2.6-3.4-2.6-6.4c0-6.2,5.5-9.3,11.5-9.3c6.3,0,11.9,2.3,12.4,9.8L74.2,52.8L74.2,52.8z"/>
		<path d="M100.1,62.5c0-8.3,4.9-12.6,11.8-12.6c6.8,0,11.8,4.3,11.8,12.6c0,8.4-4.9,12.6-11.8,12.6
			S100.1,70.9,100.1,62.5z M106.3,62.5c0,5.4,2.4,7.6,5.6,7.6s5.6-2.2,5.6-7.6c0-5.4-2.4-7.6-5.6-7.6
			C108.7,54.9,106.3,57.1,106.3,62.5z"/>
		<path d="M143.4,74.8V59.6c0-2.9-1.6-4.5-4.3-4.5c-3,0-5.3,1.9-5.3,5.9v13.8h-6V50.3h6v2.6c1.4-1.7,3.8-2.9,7-2.9
			c5.5,0,8.7,3,8.7,8.1v16.7H143.4z"/>
		<path d="M176.4,66.7c-0.7,4.9-4.5,8.4-10.9,8.4c-6.8,0-11.9-4.1-11.9-12.4c0-8.4,5.2-12.7,11.9-12.7
			c7.4,0,11.3,5.4,11.3,12.7V64h-16.9c0,2.7,1.1,6.2,5.5,6.2c2.5,0,4.4-1.2,4.9-3.5H176.4z M170.3,59.6c-0.2-3.4-2.4-4.7-4.9-4.7
			c-2.9,0-5.1,1.7-5.4,4.7H170.3z"/>
		<path d="M98.2,74.7c-0.7,0.1-1.1,0.2-1.6,0.2c-0.9,0.1-2,0.1-3.2,0.1c-4.8,0-6.5-1.7-6.5-5.7v-14h-3.7v-5.1h3.7v-6.8
			h6v6.8h5.4v5.1h-5.4v12.2c0,1.8,0.5,2.1,2.5,2.1c0.6,0,1.2,0,1.7,0c0.3,0,0.6,0,1.1-0.1V74.7z"/>
	</g>
</g>
</svg>
