<svg xmlns="http://www.w3.org/2000/svg" xmlns:xlink="http://www.w3.org/1999/xlink" x="0px" y="0px" viewBox="0 0 237.7 183.5">
<g>
	<g>
		<g>
			<path d="M13.8,109.9c4.5,0,9.4,2.2,9.4,8.3c0,4.2-2.9,5.7-4.3,6.5c1.8,0.6,5.5,2.6,5.5,7.7c0,4.7-3.7,8.9-10.8,8.9
				h-14V110L13.8,109.9L13.8,109.9z M13.2,122.7c2.5,0,4.1-1.3,4.1-3.8s-1.8-3.8-4.2-3.8H5.8v7.6C5.8,122.7,13.2,122.7,13.2,122.7z
				 M13.2,136.1c3.2,0,5-1.5,5-4.2c0-2.5-1.7-4.2-4.8-4.2H5.8v8.4H13.2z"/>
			<path d="M40.6,122.8c-3.9,0-6.2,1.5-6.2,5.4v13.1h-6v-24.5h5.8v3.6c1.1-2.3,3.4-3.6,6.4-3.6h1.8v6.1L40.6,122.8
				L40.6,122.8z"/>
			<path d="M45.9,114.5v-5.6h6v5.6H45.9z M45.9,141.3v-24.5h6v24.5H45.9z"/>
			<path d="M70.4,141.2c-0.7,0.1-1.1,0.2-1.6,0.2c-0.9,0.1-2,0.1-3.2,0.1c-4.8,0-6.5-1.7-6.5-5.7v-14h-3.7v-5.1h3.7
				v-6.8h6v6.8h5.4v5.1h-5.4V134c0,1.8,0.5,2.1,2.5,2.1c0.6,0,1.2,0,1.7,0c0.3,0,0.6,0,1.1-0.1V141.2z"/>
			<path d="M89,125.4v-0.9c0-1.9-0.8-3.2-4.4-3.2c-4.5,0-4.7,2.5-4.7,3.4h-5.8c0-3.6,1.5-8.3,10.7-8.3
				c8.7,0,10.3,4.3,10.3,7.9v13.5c0,1,0,1.8,0.1,2.4l0.2,1h-6.2v-2.5c-1.7,1.7-4.2,2.8-7.6,2.8c-4.8,0-8.5-2.8-8.5-7.7
				c0-5.6,5.3-6.8,7.5-7.2L89,125.4z M89,130l-2.4,0.4c-1.3,0.2-2.9,0.4-3.8,0.6c-1,0.2-1.9,0.4-2.6,0.9c-0.6,0.5-0.9,1.2-0.9,2
				c0,0.7,0.3,3,3.6,3c2,0,3.7-0.7,4.7-1.7c1.2-1.2,1.4-2.7,1.4-3.9C89,131.3,89,130,89,130z"/>
			<path d="M116,141.3v-15.2c0-2.9-1.6-4.5-4.3-4.5c-3,0-5.3,1.9-5.3,5.9v13.8h-6v-24.5h6v2.6c1.4-1.7,3.8-2.9,7-2.9
				c5.5,0,8.7,3,8.7,8.1v16.8L116,141.3L116,141.3z"/>
			<path d="M142.8,141.3v-15.2c0-2.9-1.6-4.5-4.3-4.5c-3,0-5.3,1.9-5.3,5.9v13.8h-6v-24.5h6v2.6c1.4-1.7,3.8-2.9,7-2.9
				c5.5,0,8.7,3,8.7,8.1v16.8L142.8,141.3L142.8,141.3z"/>
			<path d="M154,114.5v-5.6h6v5.6H154z M154,141.3v-24.5h6v24.5H154z"/>
			<path d="M186.9,132.4c-0.5,5.3-4.1,9.2-10.9,9.2c-6.8,0-11.8-4.3-11.8-12.4c0-8.6,5-12.8,11.7-12.8
				c6.1,0,10.3,3.2,11,9.4h-6.2c-0.3-2.7-2-4.3-4.7-4.3c-3.2,0-5.6,2.2-5.6,7.6c0,5.4,2.2,7.6,5.4,7.6c2.6,0,4.5-1.5,4.8-4.2h6.3
				V132.4z"/>
			<path d="M206.2,141.3V139c-0.9,0.9-3.1,2.6-7,2.6c-5.5,0-8.3-3.8-8.3-8.4v-16.5h6V132c0,3.2,1.6,4.6,4.2,4.6
				c3.4,0,5-2.4,5-5.5v-14.5h6v24.5h-5.9V141.3z"/>
			<path d="M231.1,124c0-2-1.7-2.9-4.3-2.9c-1.7,0-4,0.5-4,2.5c0,1,0.6,1.7,1.7,2c2.4,0.7,6.7,0.7,9.8,2.2
				c1.9,1,3.4,2.6,3.4,5.7c0,4.3-2.3,8.1-11,8.1c-9.2,0-10.5-5-10.5-8.1h6c0,2.5,2.2,3.3,4.8,3.3c3.4,0,4.5-1.2,4.5-2.7
				c0-1.9-2.4-2.2-5.1-2.6c-1.4-0.2-2.9-0.4-4.3-0.8c-2.9-0.9-5.4-2.6-5.4-6.7c0-4.9,4.6-7.5,10.2-7.5c9.2,0,10.1,5.7,10.1,7.5
				H231.1z"/>
		</g>
		<g>
			<path d="M73.5,161c-0.2-1.7-0.5-4.7-5.8-4.7c-3.6,0-5.4,1.4-5.4,3.7c0,4.7,8,3.4,13.4,6.1c2.6,1.2,4.7,3.2,4.7,7.2
				c0,6.9-5,10.2-12.8,10.2c-6.9,0-12-3.4-12.2-10.4h6.4c0,3.4,2.1,5.1,6,5.1c2.7,0,6.3-0.7,6.3-4.3c0-5.2-10.6-2.7-15.6-7.1
				c-1.5-1.3-2.6-3.4-2.6-6.4c0-6.2,5.5-9.3,11.5-9.3c6.3,0,11.9,2.3,12.4,9.8L73.5,161L73.5,161z"/>
			<path d="M99.4,170.7c0-8.3,4.9-12.6,11.8-12.6c6.8,0,11.8,4.3,11.8,12.6c0,8.4-4.9,12.6-11.8,12.6
				S99.4,179.1,99.4,170.7z M105.6,170.7c0,5.4,2.4,7.6,5.6,7.6s5.6-2.2,5.6-7.6c0-5.4-2.4-7.6-5.6-7.6
				C108,163.1,105.6,165.3,105.6,170.7z"/>
			<path d="M142.7,183v-15.2c0-2.9-1.6-4.5-4.3-4.5c-3,0-5.3,1.9-5.3,5.9V183h-6v-24.5h6v2.6c1.4-1.7,3.8-2.9,7-2.9
				c5.5,0,8.7,3,8.7,8.1V183H142.7z"/>
			<path d="M175.7,174.9c-0.7,4.9-4.5,8.4-10.9,8.4c-6.8,0-11.9-4.1-11.9-12.4c0-8.4,5.2-12.7,11.9-12.7
				c7.4,0,11.3,5.4,11.3,12.7v1.3h-16.9c0,2.7,1.1,6.2,5.5,6.2c2.5,0,4.4-1.2,4.9-3.5H175.7z M169.6,167.8c-0.2-3.4-2.4-4.7-4.9-4.7
				c-2.9,0-5.1,1.7-5.4,4.7H169.6z"/>
			<path d="M97.5,182.9c-0.7,0.1-1.1,0.2-1.6,0.2c-0.9,0.1-2,0.1-3.2,0.1c-4.8,0-6.5-1.7-6.5-5.7v-14h-3.7v-5.1h3.7
				v-6.8h6v6.8h5.4v5.1h-5.4v12.2c0,1.8,0.5,2.1,2.5,2.1c0.6,0,1.2,0,1.7,0c0.3,0,0.6,0,1.1-0.1V182.9z"/>
		</g>
	</g>
	<g>
		<path d="M146.8,43.3C144,40,131,27.1,126,23.8c-0.4-0.3-0.2-0.9-0.1-1.6c0-0.1,0-0.3-0.2-0.3c-2.3-0.9-5-1.5-7.7-1.5
			c-9,0-19.6,6.1-19.6,18.1c0,3.5,1.6,7.1,3.4,9.9c0.1,0.2,0.5,0.1,0.5-0.1c0.2-3.5,2.9-19.5,20.6-20.5c0.7,0,1.5,0,2.2,0.1l0,0
			c-8,0.4-15.6,4.5-18.7,14.3c-0.6,1.9-1,3.9-1.3,6c-0.2,1.3-0.3,3.2-0.3,3.8c0,0.5,0.1,0.8,0.3,1c0.8,1.1,1.9,1.9,3.3,2.8
			c0.1,0.1,0.3,0,0.3-0.1c0.1-0.2,9.7-14.2,25.6-14.2c4.2,0,8.3,1,11.8,2.4C146.8,44.1,147.3,43.8,146.8,43.3z"/>
		<path d="M92.4,73.6c0,0-0.1,0.1,0,0.2s0.3,0,0.3,0c7.7-3.8,10.7-7.1,10.1-14.4c-0.8-8.9-7.2-11.8-7.2-21.7
			c0-10.6,7.1-20.5,22.6-20.5c2.9,0,5.8,0.5,8.3,1.6c0.1,0.1,0.2,0,0.2-0.1l0,0c1.2-4.6,3.6-8.8,6.8-12.2c0.2-0.3,0.2-0.5,0-0.6
			c-5.7-3.7-12.3-5.9-20-5.9C97,0,80.7,12.3,80.7,31.2c0,18.1,12.5,22.4,14.1,31.8C95.5,67.1,94.7,71.6,92.4,73.6z"/>
		<path d="M97.7,73.6c-1.3,0.7-1.9,0.9-2.2,1.1c-0.8,0.3-0.4,0.4,0.4,0.5c0.4,0.1,0.9,0.1,2,0.1
			c10.8,0.5,17.3-6,23.1-15.4c0.2-0.3,0.3-0.3,0.1,0c-2,5.1-4.5,9.3-8.6,12.9c-0.1,0-0.1,0.2,0.1,0.2c0.5-0.1,1.5-0.2,2.3-0.2
			c8.1,0,13.7,4.8,15.2,12.4c0,0,0,0.1,0.1,0.1s0.1-0.1,0.1-0.1c-0.9-3.9-1.3-7.9-1.3-12c0-1.8,0.1-3.6,0.3-5.4c0-0.2,0-0.3-0.2-0.4
			c-0.6-0.5-2.3-2-2.6-2.3c-0.4-0.4-0.8-1-0.2-0.8c0.6,0.2,4.7,1.6,8.3,2c3.6,0.3,3.8-0.7,3.9-1.1c0.2-0.5-0.2-1.5-0.3-2.1
			c-0.1-0.5-0.1-1.4,0.3-1.7c0.3-0.3,0.7-0.5,0.8-0.7c0.1-0.4-0.2-0.7-0.3-0.9c-0.1-0.1-0.2-0.4,0.1-0.5s0.8-0.5,0.9-0.7
			c0-0.2-0.3-0.9-0.4-1.2c-0.1-0.3,0-0.6,0.2-0.8s1.5-0.2,1.8-0.4s0.6-0.5,0.4-1s-2.4-5.3-2.5-6.4c-0.1-1.1,0-1.7,0.5-2.3
			c0.6-0.8,0.9-1.2,1.2-1.9c0.1-0.1,0.1-0.3-0.1-0.3c-2-0.5-4.1-0.8-6.4-0.8c-11.9,0-20.9,9-24.1,13.4c-0.1,0.2-0.2,0.4-0.3,0.7
			C108.3,63.3,103.1,70.9,97.7,73.6z"/>
	</g>
</g>
</svg>
